<?xml version="1.0" encoding="UTF-8" standalone="no"?>
<!DOCTYPE svg PUBLIC "-//W3C//DTD SVG 1.1//EN"
 "http://www.w3.org/Graphics/SVG/1.1/DTD/svg11.dtd">
<!-- Generated by graphviz version 14.1.1 (20251213.1925)
 -->
<!-- Title: DescendantTree Pages: 1 -->
<svg width="5093pt" height="410pt"
 viewBox="0.00 0.00 5093.00 410.00" xmlns="http://www.w3.org/2000/svg" xmlns:xlink="http://www.w3.org/1999/xlink">
<g id="graph0" class="graph" transform="scale(1 1) rotate(0) translate(4 406)">
<title>DescendantTree</title>
<polygon fill="white" stroke="none" points="-4,4 -4,-406 5089.15,-406 5089.15,4 -4,4"/>
<!-- p1 -->
<g id="node1" class="node">
<title>p1</title>
<path fill="#cfe8ff" stroke="black" d="M2466.9,-402C2466.9,-402 2425.38,-402 2425.38,-402 2419.38,-402 2413.38,-396 2413.38,-390 2413.38,-390 2413.38,-378 2413.38,-378 2413.38,-372 2419.38,-366 2425.38,-366 2425.38,-366 2466.9,-366 2466.9,-366 2472.9,-366 2478.9,-372 2478.9,-378 2478.9,-378 2478.9,-390 2478.9,-390 2478.9,-396 2472.9,-402 2466.9,-402"/>
<text xml:space="preserve" text-anchor="middle" x="2446.14" y="-380.5" font-family="Helvetica,sans-Serif" font-size="10.00">Jose G. Alto</text>
</g>
<!-- p2 -->
<g id="node2" class="node">
<title>p2</title>
<path fill="#ffd6e7" stroke="black" d="M2329.02,-402C2329.02,-402 2279.25,-402 2279.25,-402 2273.25,-402 2267.25,-396 2267.25,-390 2267.25,-390 2267.25,-378 2267.25,-378 2267.25,-372 2273.25,-366 2279.25,-366 2279.25,-366 2329.02,-366 2329.02,-366 2335.02,-366 2341.02,-372 2341.02,-378 2341.02,-378 2341.02,-390 2341.02,-390 2341.02,-396 2335.02,-402 2329.02,-402"/>
<text xml:space="preserve" text-anchor="middle" x="2304.14" y="-380.5" font-family="Helvetica,sans-Serif" font-size="10.00">Josefa D. Alto</text>
</g>
<!-- u0 -->
<g id="node3" class="node">
<title>u0</title>
<ellipse fill="#f9f9f9" stroke="black" cx="2377.14" cy="-384" rx="0.36" ry="0.36"/>
</g>
<!-- p2&#45;&gt;u0 -->
<g id="edge1" class="edge">
<title>p2&#45;&gt;u0</title>
<path fill="none" stroke="#ffb6c6" d="M2341.49,-384C2347.28,-384 2352.8,-384 2352.8,-384 2352.8,-384 2372.79,-384 2376.53,-384"/>
</g>
<!-- u0&#45;&gt;p1 -->
<g id="edge2" class="edge">
<title>u0&#45;&gt;p1</title>
<path fill="none" stroke="#ffb6c6" d="M2377.7,-384C2381.25,-384 2400.14,-384 2400.14,-384 2400.14,-384 2406.82,-384 2412.98,-384"/>
</g>
<!-- p13 -->
<g id="node5" class="node">
<title>p13</title>
<path fill="#ffd6e7" stroke="black" d="M222.89,-280C222.89,-280 175.38,-280 175.38,-280 169.38,-280 163.38,-274 163.38,-268 163.38,-268 163.38,-256 163.38,-256 163.38,-250 169.38,-244 175.38,-244 175.38,-244 222.89,-244 222.89,-244 228.89,-244 234.89,-250 234.89,-256 234.89,-256 234.89,-268 234.89,-268 234.89,-274 228.89,-280 222.89,-280"/>
<text xml:space="preserve" text-anchor="middle" x="199.13" y="-258.5" font-family="Helvetica,sans-Serif" font-size="10.00">Lydia A. Zano</text>
</g>
<!-- u0&#45;&gt;p13 -->
<g id="edge54" class="edge">
<title>u0&#45;&gt;p13</title>
<path fill="none" stroke="#555555" d="M2377.08,-382.95C2376.03,-381.95 2359.14,-366 2359.14,-366 2359.14,-366 253.13,-280 253.13,-280 253.13,-280 245.06,-277.46 235.15,-274.34"/>
</g>
<!-- p8 -->
<g id="node6" class="node">
<title>p8</title>
<path fill="#cfe8ff" stroke="black" d="M1020.52,-280C1020.52,-280 973.75,-280 973.75,-280 967.75,-280 961.75,-274 961.75,-268 961.75,-268 961.75,-256 961.75,-256 961.75,-250 967.75,-244 973.75,-244 973.75,-244 1020.52,-244 1020.52,-244 1026.52,-244 1032.52,-250 1032.52,-256 1032.52,-256 1032.52,-268 1032.52,-268 1032.52,-274 1026.52,-280 1020.52,-280"/>
<text xml:space="preserve" text-anchor="middle" x="997.13" y="-258.5" font-family="Helvetica,sans-Serif" font-size="10.00">Jesse D. Alto</text>
</g>
<!-- u0&#45;&gt;p8 -->
<g id="edge52" class="edge">
<title>u0&#45;&gt;p8</title>
<path fill="none" stroke="#555555" d="M2377.08,-382.95C2376.03,-381.95 2359.14,-366 2359.14,-366 2359.14,-366 1051.13,-280 1051.13,-280 1051.13,-280 1042.9,-277.41 1032.85,-274.24"/>
</g>
<!-- p19 -->
<g id="node9" class="node">
<title>p19</title>
<path fill="#ffd6e7" stroke="black" d="M1428.14,-280C1428.14,-280 1346.12,-280 1346.12,-280 1340.12,-280 1334.12,-274 1334.12,-268 1334.12,-268 1334.12,-256 1334.12,-256 1334.12,-250 1340.12,-244 1346.12,-244 1346.12,-244 1428.14,-244 1428.14,-244 1434.14,-244 1440.14,-250 1440.14,-256 1440.14,-256 1440.14,-268 1440.14,-268 1440.14,-274 1434.14,-280 1428.14,-280"/>
<text xml:space="preserve" text-anchor="middle" x="1387.13" y="-258.5" font-family="Helvetica,sans-Serif" font-size="10.00">Linda A. Wongbandue</text>
</g>
<!-- u0&#45;&gt;p19 -->
<g id="edge57" class="edge">
<title>u0&#45;&gt;p19</title>
<path fill="none" stroke="#555555" d="M2377.08,-382.95C2376.03,-381.95 2359.14,-366 2359.14,-366 2359.14,-366 1458.13,-280 1458.13,-280 1458.13,-280 1450.67,-278.21 1440.58,-275.8"/>
</g>
<!-- p4 -->
<g id="node10" class="node">
<title>p4</title>
<path fill="#cfe8ff" stroke="black" d="M1863.02,-280C1863.02,-280 1807.25,-280 1807.25,-280 1801.25,-280 1795.25,-274 1795.25,-268 1795.25,-268 1795.25,-256 1795.25,-256 1795.25,-250 1801.25,-244 1807.25,-244 1807.25,-244 1863.02,-244 1863.02,-244 1869.02,-244 1875.02,-250 1875.02,-256 1875.02,-256 1875.02,-268 1875.02,-268 1875.02,-274 1869.02,-280 1863.02,-280"/>
<text xml:space="preserve" text-anchor="middle" x="1835.13" y="-258.5" font-family="Helvetica,sans-Serif" font-size="10.00">Jose D. Alto Jr.</text>
</g>
<!-- u0&#45;&gt;p4 -->
<g id="edge50" class="edge">
<title>u0&#45;&gt;p4</title>
<path fill="none" stroke="#555555" d="M2377.08,-382.95C2376.03,-381.95 2359.14,-366 2359.14,-366 2359.14,-366 1893.13,-280 1893.13,-280 1893.13,-280 1885.32,-277.71 1875.42,-274.81"/>
</g>
<!-- p14 -->
<g id="node12" class="node">
<title>p14</title>
<path fill="#cfe8ff" stroke="black" d="M2400.52,-280C2400.52,-280 2353.75,-280 2353.75,-280 2347.75,-280 2341.75,-274 2341.75,-268 2341.75,-268 2341.75,-256 2341.75,-256 2341.75,-250 2347.75,-244 2353.75,-244 2353.75,-244 2400.52,-244 2400.52,-244 2406.52,-244 2412.52,-250 2412.52,-256 2412.52,-256 2412.52,-268 2412.52,-268 2412.52,-274 2406.52,-280 2400.52,-280"/>
<text xml:space="preserve" text-anchor="middle" x="2377.14" y="-258.5" font-family="Helvetica,sans-Serif" font-size="10.00">Josue D. Alto</text>
</g>
<!-- u0&#45;&gt;p14 -->
<g id="edge55" class="edge">
<title>u0&#45;&gt;p14</title>
<path fill="none" stroke="#555555" d="M2377.14,-382.91C2377.14,-380.17 2377.14,-313.06 2377.14,-280.46"/>
</g>
<!-- p10 -->
<g id="node14" class="node">
<title>p10</title>
<path fill="#cfe8ff" stroke="black" d="M2909.02,-280C2909.02,-280 2859.25,-280 2859.25,-280 2853.25,-280 2847.25,-274 2847.25,-268 2847.25,-268 2847.25,-256 2847.25,-256 2847.25,-250 2853.25,-244 2859.25,-244 2859.25,-244 2909.02,-244 2909.02,-244 2915.02,-244 2921.02,-250 2921.02,-256 2921.02,-256 2921.02,-268 2921.02,-268 2921.02,-274 2915.02,-280 2909.02,-280"/>
<text xml:space="preserve" text-anchor="middle" x="2884.14" y="-258.5" font-family="Helvetica,sans-Serif" font-size="10.00">Jimmy D. Alto</text>
</g>
<!-- u0&#45;&gt;p10 -->
<g id="edge53" class="edge">
<title>u0&#45;&gt;p10</title>
<path fill="none" stroke="#555555" d="M2377.19,-382.95C2378.24,-381.95 2395.14,-366 2395.14,-366 2395.14,-366 2732.86,-294.86 2846.98,-270.83"/>
</g>
<!-- p6 -->
<g id="node16" class="node">
<title>p6</title>
<path fill="#cfe8ff" stroke="black" d="M3691.27,-280C3691.27,-280 3655,-280 3655,-280 3649,-280 3643,-274 3643,-268 3643,-268 3643,-256 3643,-256 3643,-250 3649,-244 3655,-244 3655,-244 3691.27,-244 3691.27,-244 3697.27,-244 3703.27,-250 3703.27,-256 3703.27,-256 3703.27,-268 3703.27,-268 3703.27,-274 3697.27,-280 3691.27,-280"/>
<text xml:space="preserve" text-anchor="middle" x="3673.14" y="-258.5" font-family="Helvetica,sans-Serif" font-size="10.00">Job D. Alto</text>
</g>
<!-- u0&#45;&gt;p6 -->
<g id="edge51" class="edge">
<title>u0&#45;&gt;p6</title>
<path fill="none" stroke="#555555" d="M2377.19,-382.95C2378.24,-381.95 2395.14,-366 2395.14,-366 2395.14,-366 3449.27,-281.04 3642.8,-265.44"/>
</g>
<!-- p16 -->
<g id="node18" class="node">
<title>p16</title>
<path fill="#cfe8ff" stroke="black" d="M4378.15,-280C4378.15,-280 4326.12,-280 4326.12,-280 4320.12,-280 4314.12,-274 4314.12,-268 4314.12,-268 4314.12,-256 4314.12,-256 4314.12,-250 4320.12,-244 4326.12,-244 4326.12,-244 4378.15,-244 4378.15,-244 4384.15,-244 4390.15,-250 4390.15,-256 4390.15,-256 4390.15,-268 4390.15,-268 4390.15,-274 4384.15,-280 4378.15,-280"/>
<text xml:space="preserve" text-anchor="middle" x="4352.14" y="-258.5" font-family="Helvetica,sans-Serif" font-size="10.00">Joseph D. Alto</text>
</g>
<!-- u0&#45;&gt;p16 -->
<g id="edge56" class="edge">
<title>u0&#45;&gt;p16</title>
<path fill="none" stroke="#555555" d="M2377.19,-382.95C2378.24,-381.95 2395.14,-366 2395.14,-366 2395.14,-366 4030.14,-280 4030.14,-280 4030.14,-280 4228.64,-269.52 4313.93,-265.02"/>
</g>
<!-- p3 -->
<g id="node20" class="node">
<title>p3</title>
<path fill="#ffd6e7" stroke="black" d="M4759.65,-280C4759.65,-280 4710.62,-280 4710.62,-280 4704.62,-280 4698.62,-274 4698.62,-268 4698.62,-268 4698.62,-256 4698.62,-256 4698.62,-250 4704.62,-244 4710.62,-244 4710.62,-244 4759.65,-244 4759.65,-244 4765.65,-244 4771.65,-250 4771.65,-256 4771.65,-256 4771.65,-268 4771.65,-268 4771.65,-274 4765.65,-280 4759.65,-280"/>
<text xml:space="preserve" text-anchor="middle" x="4735.14" y="-258.5" font-family="Helvetica,sans-Serif" font-size="10.00">Leticia D. Alto</text>
</g>
<!-- u0&#45;&gt;p3 -->
<g id="edge49" class="edge">
<title>u0&#45;&gt;p3</title>
<path fill="none" stroke="#555555" d="M2377.19,-382.95C2378.24,-381.95 2395.14,-366 2395.14,-366 2395.14,-366 4681.14,-280 4681.14,-280 4681.14,-280 4688.73,-277.61 4698.22,-274.62"/>
</g>
<!-- p12 -->
<g id="node4" class="node">
<title>p12</title>
<path fill="#cfe8ff" stroke="black" d="M352.39,-280C352.39,-280 319.88,-280 319.88,-280 313.88,-280 307.88,-274 307.88,-268 307.88,-268 307.88,-256 307.88,-256 307.88,-250 313.88,-244 319.88,-244 319.88,-244 352.39,-244 352.39,-244 358.39,-244 364.39,-250 364.39,-256 364.39,-256 364.39,-268 364.39,-268 364.39,-274 358.39,-280 352.39,-280"/>
<text xml:space="preserve" text-anchor="middle" x="336.13" y="-258.5" font-family="Helvetica,sans-Serif" font-size="10.00">Raul Zano</text>
</g>
<!-- u1 -->
<g id="node21" class="node">
<title>u1</title>
<ellipse fill="#f9f9f9" stroke="black" cx="271.13" cy="-262" rx="0.36" ry="0.36"/>
</g>
<!-- p13&#45;&gt;u1 -->
<g id="edge3" class="edge">
<title>p13&#45;&gt;u1</title>
<path fill="none" stroke="#ffb6c6" d="M235.13,-262C241.13,-262 247.13,-262 247.13,-262 247.13,-262 266.85,-262 270.54,-262"/>
</g>
<!-- u2 -->
<g id="node22" class="node">
<title>u2</title>
<ellipse fill="#f9f9f9" stroke="black" cx="1069.13" cy="-262" rx="0.36" ry="0.36"/>
</g>
<!-- p8&#45;&gt;u2 -->
<g id="edge5" class="edge">
<title>p8&#45;&gt;u2</title>
<path fill="none" stroke="#ffb6c6" d="M1032.85,-262C1038.95,-262 1045.13,-262 1045.13,-262 1045.13,-262 1064.85,-262 1068.54,-262"/>
</g>
<!-- p9 -->
<g id="node7" class="node">
<title>p9</title>
<path fill="#ffd6e7" stroke="black" d="M1171.27,-280C1171.27,-280 1117,-280 1117,-280 1111,-280 1105,-274 1105,-268 1105,-268 1105,-256 1105,-256 1105,-250 1111,-244 1117,-244 1117,-244 1171.27,-244 1171.27,-244 1177.27,-244 1183.27,-250 1183.27,-256 1183.27,-256 1183.27,-268 1183.27,-268 1183.27,-274 1177.27,-280 1171.27,-280"/>
<text xml:space="preserve" text-anchor="middle" x="1144.13" y="-258.5" font-family="Helvetica,sans-Serif" font-size="10.00">Michelle L. Alto</text>
</g>
<!-- p18 -->
<g id="node8" class="node">
<title>p18</title>
<path fill="#cfe8ff" stroke="black" d="M1613.89,-280C1613.89,-280 1524.38,-280 1524.38,-280 1518.38,-280 1512.38,-274 1512.38,-268 1512.38,-268 1512.38,-256 1512.38,-256 1512.38,-250 1518.38,-244 1524.38,-244 1524.38,-244 1613.89,-244 1613.89,-244 1619.89,-244 1625.89,-250 1625.89,-256 1625.89,-256 1625.89,-268 1625.89,-268 1625.89,-274 1619.89,-280 1613.89,-280"/>
<text xml:space="preserve" text-anchor="middle" x="1569.13" y="-258.5" font-family="Helvetica,sans-Serif" font-size="10.00">Thongbue Wongbandue</text>
</g>
<!-- u3 -->
<g id="node23" class="node">
<title>u3</title>
<ellipse fill="#f9f9f9" stroke="black" cx="1476.13" cy="-262" rx="0.36" ry="0.36"/>
</g>
<!-- p19&#45;&gt;u3 -->
<g id="edge7" class="edge">
<title>p19&#45;&gt;u3</title>
<path fill="none" stroke="#ffb6c6" d="M1440.46,-262C1443.99,-262 1446.47,-262 1446.47,-262 1446.47,-262 1470.83,-262 1475.4,-262"/>
</g>
<!-- u4 -->
<g id="node24" class="node">
<title>u4</title>
<ellipse fill="#f9f9f9" stroke="black" cx="1911.13" cy="-262" rx="0.36" ry="0.36"/>
</g>
<!-- p4&#45;&gt;u4 -->
<g id="edge9" class="edge">
<title>p4&#45;&gt;u4</title>
<path fill="none" stroke="#ffb6c6" d="M1875.5,-262C1880.95,-262 1885.8,-262 1885.8,-262 1885.8,-262 1906.61,-262 1910.51,-262"/>
</g>
<!-- p5 -->
<g id="node11" class="node">
<title>p5</title>
<path fill="#ffd6e7" stroke="black" d="M2025.27,-280C2025.27,-280 1959,-280 1959,-280 1953,-280 1947,-274 1947,-268 1947,-268 1947,-256 1947,-256 1947,-250 1953,-244 1959,-244 1959,-244 2025.27,-244 2025.27,-244 2031.27,-244 2037.27,-250 2037.27,-256 2037.27,-256 2037.27,-268 2037.27,-268 2037.27,-274 2031.27,-280 2025.27,-280"/>
<text xml:space="preserve" text-anchor="middle" x="1992.13" y="-258.5" font-family="Helvetica,sans-Serif" font-size="10.00">Clara de Vera Alto</text>
</g>
<!-- u5 -->
<g id="node25" class="node">
<title>u5</title>
<ellipse fill="#f9f9f9" stroke="black" cx="2449.14" cy="-262" rx="0.36" ry="0.36"/>
</g>
<!-- p14&#45;&gt;u5 -->
<g id="edge11" class="edge">
<title>p14&#45;&gt;u5</title>
<path fill="none" stroke="#ffb6c6" d="M2412.85,-262C2418.95,-262 2425.14,-262 2425.14,-262 2425.14,-262 2444.85,-262 2448.54,-262"/>
</g>
<!-- p15 -->
<g id="node13" class="node">
<title>p15</title>
<path fill="#ffd6e7" stroke="black" d="M2542.4,-280C2542.4,-280 2497.88,-280 2497.88,-280 2491.88,-280 2485.88,-274 2485.88,-268 2485.88,-268 2485.88,-256 2485.88,-256 2485.88,-250 2491.88,-244 2497.88,-244 2497.88,-244 2542.4,-244 2542.4,-244 2548.4,-244 2554.4,-250 2554.4,-256 2554.4,-256 2554.4,-268 2554.4,-268 2554.4,-274 2548.4,-280 2542.4,-280"/>
<text xml:space="preserve" text-anchor="middle" x="2520.14" y="-258.5" font-family="Helvetica,sans-Serif" font-size="10.00">Angelina Alto</text>
</g>
<!-- u6 -->
<g id="node26" class="node">
<title>u6</title>
<ellipse fill="#f9f9f9" stroke="black" cx="3310.14" cy="-262" rx="0.36" ry="0.36"/>
</g>
<!-- p10&#45;&gt;u6 -->
<g id="edge13" class="edge">
<title>p10&#45;&gt;u6</title>
<path fill="none" stroke="#ffb6c6" d="M2921.44,-262C2963.52,-262 3026.14,-262 3026.14,-262 3026.14,-262 3168.14,-262 3168.14,-262 3168.14,-262 3301.4,-262 3309.73,-262"/>
</g>
<!-- p11 -->
<g id="node15" class="node">
<title>p11</title>
<path fill="#ffd6e7" stroke="black" d="M3428.15,-280C3428.15,-280 3358.12,-280 3358.12,-280 3352.12,-280 3346.12,-274 3346.12,-268 3346.12,-268 3346.12,-256 3346.12,-256 3346.12,-250 3352.12,-244 3358.12,-244 3358.12,-244 3428.15,-244 3428.15,-244 3434.15,-244 3440.15,-250 3440.15,-256 3440.15,-256 3440.15,-268 3440.15,-268 3440.15,-274 3434.15,-280 3428.15,-280"/>
<text xml:space="preserve" text-anchor="middle" x="3393.14" y="-258.5" font-family="Helvetica,sans-Serif" font-size="10.00">Ma. Piedad C. Alto</text>
</g>
<!-- u7 -->
<g id="node27" class="node">
<title>u7</title>
<ellipse fill="#f9f9f9" stroke="black" cx="3892.14" cy="-262" rx="0.36" ry="0.36"/>
</g>
<!-- p6&#45;&gt;u7 -->
<g id="edge15" class="edge">
<title>p6&#45;&gt;u7</title>
<path fill="none" stroke="#ffb6c6" d="M3703.67,-262C3723.67,-262 3746.14,-262 3746.14,-262 3746.14,-262 3819.14,-262 3819.14,-262 3819.14,-262 3883.3,-262 3891.32,-262"/>
</g>
<!-- p7 -->
<g id="node17" class="node">
<title>p7</title>
<path fill="#ffd6e7" stroke="black" d="M3999.9,-280C3999.9,-280 3940.38,-280 3940.38,-280 3934.38,-280 3928.38,-274 3928.38,-268 3928.38,-268 3928.38,-256 3928.38,-256 3928.38,-250 3934.38,-244 3940.38,-244 3940.38,-244 3999.9,-244 3999.9,-244 4005.9,-244 4011.9,-250 4011.9,-256 4011.9,-256 4011.9,-268 4011.9,-268 4011.9,-274 4005.9,-280 3999.9,-280"/>
<text xml:space="preserve" text-anchor="middle" x="3970.14" y="-258.5" font-family="Helvetica,sans-Serif" font-size="10.00">Romulita C. Alto</text>
</g>
<!-- u8 -->
<g id="node28" class="node">
<title>u8</title>
<ellipse fill="#f9f9f9" stroke="black" cx="4559.14" cy="-262" rx="0.36" ry="0.36"/>
</g>
<!-- p16&#45;&gt;u8 -->
<g id="edge17" class="edge">
<title>p16&#45;&gt;u8</title>
<path fill="none" stroke="#ffb6c6" d="M4390.27,-262C4406.23,-262 4421.14,-262 4421.14,-262 4421.14,-262 4490.14,-262 4490.14,-262 4490.14,-262 4550.78,-262 4558.36,-262"/>
</g>
<!-- p17 -->
<g id="node19" class="node">
<title>p17</title>
<path fill="#ffd6e7" stroke="black" d="M4651.02,-280C4651.02,-280 4607.25,-280 4607.25,-280 4601.25,-280 4595.25,-274 4595.25,-268 4595.25,-268 4595.25,-256 4595.25,-256 4595.25,-250 4601.25,-244 4607.25,-244 4607.25,-244 4651.02,-244 4651.02,-244 4657.02,-244 4663.02,-250 4663.02,-256 4663.02,-256 4663.02,-268 4663.02,-268 4663.02,-274 4657.02,-280 4651.02,-280"/>
<text xml:space="preserve" text-anchor="middle" x="4629.14" y="-258.5" font-family="Helvetica,sans-Serif" font-size="10.00">Loida H. Alto</text>
</g>
<!-- u1&#45;&gt;p12 -->
<g id="edge4" class="edge">
<title>u1&#45;&gt;p12</title>
<path fill="none" stroke="#ffb6c6" d="M271.67,-262C275.01,-262 292.8,-262 292.8,-262 292.8,-262 301.27,-262 307.61,-262"/>
</g>
<!-- p43 -->
<g id="node51" class="node">
<title>p43</title>
<path fill="#cfe8ff" stroke="black" d="M66.27,-158C66.27,-158 12,-158 12,-158 6,-158 0,-152 0,-146 0,-146 0,-134 0,-134 0,-128 6,-122 12,-122 12,-122 66.27,-122 66.27,-122 72.27,-122 78.27,-128 78.27,-134 78.27,-134 78.27,-146 78.27,-146 78.27,-152 72.27,-158 66.27,-158"/>
<text xml:space="preserve" text-anchor="middle" x="39.13" y="-136.5" font-family="Helvetica,sans-Serif" font-size="10.00">Ryan Joy Zano</text>
</g>
<!-- u1&#45;&gt;p43 -->
<g id="edge73" class="edge">
<title>u1&#45;&gt;p43</title>
<path fill="none" stroke="#555555" d="M271.08,-260.95C270.03,-259.95 253.13,-244 253.13,-244 253.13,-244 136.49,-187.86 75.44,-158.47"/>
</g>
<!-- p39 -->
<g id="node55" class="node">
<title>p39</title>
<path fill="#cfe8ff" stroke="black" d="M176.39,-158C176.39,-158 125.88,-158 125.88,-158 119.88,-158 113.88,-152 113.88,-146 113.88,-146 113.88,-134 113.88,-134 113.88,-128 119.88,-122 125.88,-122 125.88,-122 176.39,-122 176.39,-122 182.39,-122 188.39,-128 188.39,-134 188.39,-134 188.39,-146 188.39,-146 188.39,-152 182.39,-158 176.39,-158"/>
<text xml:space="preserve" text-anchor="middle" x="151.13" y="-136.5" font-family="Helvetica,sans-Serif" font-size="10.00">Reginald Zano</text>
</g>
<!-- u1&#45;&gt;p39 -->
<g id="edge70" class="edge">
<title>u1&#45;&gt;p39</title>
<path fill="none" stroke="#555555" d="M271.05,-260.91C268.3,-258.17 201.2,-191.06 168.6,-158.46"/>
</g>
<!-- p41 -->
<g id="node64" class="node">
<title>p41</title>
<path fill="#cfe8ff" stroke="black" d="M306.14,-158C306.14,-158 236.12,-158 236.12,-158 230.12,-158 224.12,-152 224.12,-146 224.12,-146 224.12,-134 224.12,-134 224.12,-128 230.12,-122 236.12,-122 236.12,-122 306.14,-122 306.14,-122 312.14,-122 318.14,-128 318.14,-134 318.14,-134 318.14,-146 318.14,-146 318.14,-152 312.14,-158 306.14,-158"/>
<text xml:space="preserve" text-anchor="middle" x="271.13" y="-136.5" font-family="Helvetica,sans-Serif" font-size="10.00">Laurenti Raul Zano</text>
</g>
<!-- u1&#45;&gt;p41 -->
<g id="edge71" class="edge">
<title>u1&#45;&gt;p41</title>
<path fill="none" stroke="#555555" d="M271.13,-260.91C271.13,-258.17 271.13,-191.06 271.13,-158.46"/>
</g>
<!-- p42 -->
<g id="node65" class="node">
<title>p42</title>
<path fill="#cfe8ff" stroke="black" d="M420.27,-158C420.27,-158 366,-158 366,-158 360,-158 354,-152 354,-146 354,-146 354,-134 354,-134 354,-128 360,-122 366,-122 366,-122 420.27,-122 420.27,-122 426.27,-122 432.27,-128 432.27,-134 432.27,-134 432.27,-146 432.27,-146 432.27,-152 426.27,-158 420.27,-158"/>
<text xml:space="preserve" text-anchor="middle" x="393.13" y="-136.5" font-family="Helvetica,sans-Serif" font-size="10.00">Raymond Zano</text>
</g>
<!-- u1&#45;&gt;p42 -->
<g id="edge72" class="edge">
<title>u1&#45;&gt;p42</title>
<path fill="none" stroke="#555555" d="M271.22,-260.91C274.02,-258.17 342.24,-191.06 375.38,-158.46"/>
</g>
<!-- u2&#45;&gt;p9 -->
<g id="edge6" class="edge">
<title>u2&#45;&gt;p9</title>
<path fill="none" stroke="#ffb6c6" d="M1069.75,-262C1073.6,-262 1094.13,-262 1094.13,-262 1094.13,-262 1099.09,-262 1104.59,-262"/>
</g>
<!-- p28 -->
<g id="node43" class="node">
<title>p28</title>
<path fill="#cfe8ff" stroke="black" d="M822.13,-158C822.13,-158 792.13,-158 792.13,-158 786.13,-158 780.13,-152 780.13,-146 780.13,-146 780.13,-134 780.13,-134 780.13,-128 786.13,-122 792.13,-122 792.13,-122 822.13,-122 822.13,-122 828.13,-122 834.13,-128 834.13,-134 834.13,-134 834.13,-146 834.13,-146 834.13,-152 828.13,-158 822.13,-158"/>
<text xml:space="preserve" text-anchor="middle" x="807.13" y="-136.5" font-family="Helvetica,sans-Serif" font-size="10.00">Philo Alto</text>
</g>
<!-- u2&#45;&gt;p28 -->
<g id="edge63" class="edge">
<title>u2&#45;&gt;p28</title>
<path fill="none" stroke="#555555" d="M1069.08,-260.95C1067.97,-259.95 1050.13,-244 1050.13,-244 1050.13,-244 898.09,-179.55 834.54,-152.62"/>
</g>
<!-- p30 -->
<g id="node57" class="node">
<title>p30</title>
<path fill="#cfe8ff" stroke="black" d="M1098.14,-158C1098.14,-158 1040.12,-158 1040.12,-158 1034.12,-158 1028.12,-152 1028.12,-146 1028.12,-146 1028.12,-134 1028.12,-134 1028.12,-128 1034.12,-122 1040.12,-122 1040.12,-122 1098.14,-122 1098.14,-122 1104.14,-122 1110.14,-128 1110.14,-134 1110.14,-134 1110.14,-146 1110.14,-146 1110.14,-152 1104.14,-158 1098.14,-158"/>
<text xml:space="preserve" text-anchor="middle" x="1069.13" y="-136.5" font-family="Helvetica,sans-Serif" font-size="10.00">Washington Alto</text>
</g>
<!-- u2&#45;&gt;p30 -->
<g id="edge64" class="edge">
<title>u2&#45;&gt;p30</title>
<path fill="none" stroke="#555555" d="M1069.13,-260.91C1069.13,-258.17 1069.13,-191.06 1069.13,-158.46"/>
</g>
<!-- u3&#45;&gt;p18 -->
<g id="edge8" class="edge">
<title>u3&#45;&gt;p18</title>
<path fill="none" stroke="#ffb6c6" d="M1476.9,-262C1481.68,-262 1507.13,-262 1507.13,-262 1507.13,-262 1509.07,-262 1511.98,-262"/>
</g>
<!-- p56 -->
<g id="node49" class="node">
<title>p56</title>
<path fill="#cfe8ff" stroke="black" d="M1382.64,-158C1382.64,-158 1309.62,-158 1309.62,-158 1303.62,-158 1297.62,-152 1297.62,-146 1297.62,-146 1297.62,-134 1297.62,-134 1297.62,-128 1303.62,-122 1309.62,-122 1309.62,-122 1382.64,-122 1382.64,-122 1388.64,-122 1394.64,-128 1394.64,-134 1394.64,-134 1394.64,-146 1394.64,-146 1394.64,-152 1388.64,-158 1382.64,-158"/>
<text xml:space="preserve" text-anchor="middle" x="1346.13" y="-136.5" font-family="Helvetica,sans-Serif" font-size="10.00">Jaime Wongbandue</text>
</g>
<!-- u3&#45;&gt;p56 -->
<g id="edge80" class="edge">
<title>u3&#45;&gt;p56</title>
<path fill="none" stroke="#555555" d="M1476.08,-260.95C1475.03,-259.95 1458.13,-244 1458.13,-244 1458.13,-244 1397.09,-187.86 1365.13,-158.47"/>
</g>
<!-- p58 -->
<g id="node67" class="node">
<title>p58</title>
<path fill="#ffd6e7" stroke="black" d="M1509.64,-158C1509.64,-158 1442.62,-158 1442.62,-158 1436.62,-158 1430.62,-152 1430.62,-146 1430.62,-146 1430.62,-134 1430.62,-134 1430.62,-128 1436.62,-122 1442.62,-122 1442.62,-122 1509.64,-122 1509.64,-122 1515.64,-122 1521.64,-128 1521.64,-134 1521.64,-134 1521.64,-146 1521.64,-146 1521.64,-152 1515.64,-158 1509.64,-158"/>
<text xml:space="preserve" text-anchor="middle" x="1476.13" y="-136.5" font-family="Helvetica,sans-Serif" font-size="10.00">Julie Wongbandue</text>
</g>
<!-- u3&#45;&gt;p58 -->
<g id="edge81" class="edge">
<title>u3&#45;&gt;p58</title>
<path fill="none" stroke="#555555" d="M1476.13,-260.91C1476.13,-258.17 1476.13,-191.06 1476.13,-158.46"/>
</g>
<!-- u4&#45;&gt;p5 -->
<g id="edge10" class="edge">
<title>u4&#45;&gt;p5</title>
<path fill="none" stroke="#ffb6c6" d="M1911.8,-262C1915.96,-262 1938.13,-262 1938.13,-262 1938.13,-262 1941.93,-262 1946.68,-262"/>
</g>
<!-- p20 -->
<g id="node59" class="node">
<title>p20</title>
<path fill="#ffd6e7" stroke="black" d="M1816.52,-158C1816.52,-158 1757.75,-158 1757.75,-158 1751.75,-158 1745.75,-152 1745.75,-146 1745.75,-146 1745.75,-134 1745.75,-134 1745.75,-128 1751.75,-122 1757.75,-122 1757.75,-122 1816.52,-122 1816.52,-122 1822.52,-122 1828.52,-128 1828.52,-134 1828.52,-134 1828.52,-146 1828.52,-146 1828.52,-152 1822.52,-158 1816.52,-158"/>
<text xml:space="preserve" text-anchor="middle" x="1787.13" y="-136.5" font-family="Helvetica,sans-Serif" font-size="10.00">Maria Elena Alto</text>
</g>
<!-- u4&#45;&gt;p20 -->
<g id="edge58" class="edge">
<title>u4&#45;&gt;p20</title>
<path fill="none" stroke="#555555" d="M1911.05,-260.91C1908.21,-258.17 1838.87,-191.06 1805.18,-158.46"/>
</g>
<!-- p21 -->
<g id="node60" class="node">
<title>p21</title>
<path fill="#ffd6e7" stroke="black" d="M1945.39,-158C1945.39,-158 1876.88,-158 1876.88,-158 1870.88,-158 1864.88,-152 1864.88,-146 1864.88,-146 1864.88,-134 1864.88,-134 1864.88,-128 1870.88,-122 1876.88,-122 1876.88,-122 1945.39,-122 1945.39,-122 1951.39,-122 1957.39,-128 1957.39,-134 1957.39,-134 1957.39,-146 1957.39,-146 1957.39,-152 1951.39,-158 1945.39,-158"/>
<text xml:space="preserve" text-anchor="middle" x="1911.13" y="-136.5" font-family="Helvetica,sans-Serif" font-size="10.00">Maria Lourdes Alto</text>
</g>
<!-- u4&#45;&gt;p21 -->
<g id="edge59" class="edge">
<title>u4&#45;&gt;p21</title>
<path fill="none" stroke="#555555" d="M1911.13,-260.91C1911.13,-258.17 1911.13,-191.06 1911.13,-158.46"/>
</g>
<!-- u5&#45;&gt;p15 -->
<g id="edge12" class="edge">
<title>u5&#45;&gt;p15</title>
<path fill="none" stroke="#ffb6c6" d="M2449.72,-262C2453.36,-262 2472.8,-262 2472.8,-262 2472.8,-262 2479.29,-262 2485.47,-262"/>
</g>
<!-- p49 -->
<g id="node33" class="node">
<title>p49</title>
<path fill="#cfe8ff" stroke="black" d="M2058.52,-158C2058.52,-158 2005.75,-158 2005.75,-158 1999.75,-158 1993.75,-152 1993.75,-146 1993.75,-146 1993.75,-134 1993.75,-134 1993.75,-128 1999.75,-122 2005.75,-122 2005.75,-122 2058.52,-122 2058.52,-122 2064.52,-122 2070.52,-128 2070.52,-134 2070.52,-134 2070.52,-146 2070.52,-146 2070.52,-152 2064.52,-158 2058.52,-158"/>
<text xml:space="preserve" text-anchor="middle" x="2032.13" y="-136.5" font-family="Helvetica,sans-Serif" font-size="10.00">Joel Adam Alto</text>
</g>
<!-- u5&#45;&gt;p49 -->
<g id="edge76" class="edge">
<title>u5&#45;&gt;p49</title>
<path fill="none" stroke="#555555" d="M2449.08,-260.95C2447.97,-259.95 2430.14,-244 2430.14,-244 2430.14,-244 2089.14,-158 2089.14,-158 2089.14,-158 2080.95,-155.56 2070.79,-152.53"/>
</g>
<!-- p45 -->
<g id="node35" class="node">
<title>p45</title>
<path fill="#cfe8ff" stroke="black" d="M2330.77,-158C2330.77,-158 2267.5,-158 2267.5,-158 2261.5,-158 2255.5,-152 2255.5,-146 2255.5,-146 2255.5,-134 2255.5,-134 2255.5,-128 2261.5,-122 2267.5,-122 2267.5,-122 2330.77,-122 2330.77,-122 2336.77,-122 2342.77,-128 2342.77,-134 2342.77,-134 2342.77,-146 2342.77,-146 2342.77,-152 2336.77,-158 2330.77,-158"/>
<text xml:space="preserve" text-anchor="middle" x="2299.14" y="-136.5" font-family="Helvetica,sans-Serif" font-size="10.00">Joey Andrew Alto</text>
</g>
<!-- u5&#45;&gt;p45 -->
<g id="edge74" class="edge">
<title>u5&#45;&gt;p45</title>
<path fill="none" stroke="#555555" d="M2449.08,-260.95C2447.97,-259.95 2430.14,-244 2430.14,-244 2430.14,-244 2358.73,-187.86 2321.36,-158.47"/>
</g>
<!-- p48 -->
<g id="node48" class="node">
<title>p48</title>
<path fill="#ffd6e7" stroke="black" d="M2633.02,-158C2633.02,-158 2565.25,-158 2565.25,-158 2559.25,-158 2553.25,-152 2553.25,-146 2553.25,-146 2553.25,-134 2553.25,-134 2553.25,-128 2559.25,-122 2565.25,-122 2565.25,-122 2633.02,-122 2633.02,-122 2639.02,-122 2645.02,-128 2645.02,-134 2645.02,-134 2645.02,-146 2645.02,-146 2645.02,-152 2639.02,-158 2633.02,-158"/>
<text xml:space="preserve" text-anchor="middle" x="2599.14" y="-136.5" font-family="Helvetica,sans-Serif" font-size="10.00">Jo Ann Alto&#45;Obilex</text>
</g>
<!-- u5&#45;&gt;p48 -->
<g id="edge75" class="edge">
<title>u5&#45;&gt;p48</title>
<path fill="none" stroke="#555555" d="M2449.19,-260.95C2450.3,-259.95 2468.14,-244 2468.14,-244 2468.14,-244 2539.54,-187.86 2576.91,-158.47"/>
</g>
<!-- p51 -->
<g id="node66" class="node">
<title>p51</title>
<path fill="#ffd6e7" stroke="black" d="M2898.77,-158C2898.77,-158 2841.5,-158 2841.5,-158 2835.5,-158 2829.5,-152 2829.5,-146 2829.5,-146 2829.5,-134 2829.5,-134 2829.5,-128 2835.5,-122 2841.5,-122 2841.5,-122 2898.77,-122 2898.77,-122 2904.77,-122 2910.77,-128 2910.77,-134 2910.77,-134 2910.77,-146 2910.77,-146 2910.77,-152 2904.77,-158 2898.77,-158"/>
<text xml:space="preserve" text-anchor="middle" x="2870.14" y="-136.5" font-family="Helvetica,sans-Serif" font-size="10.00">Jesy Angeli Alto</text>
</g>
<!-- u5&#45;&gt;p51 -->
<g id="edge77" class="edge">
<title>u5&#45;&gt;p51</title>
<path fill="none" stroke="#555555" d="M2449.19,-260.95C2450.3,-259.95 2468.14,-244 2468.14,-244 2468.14,-244 2811.14,-158 2811.14,-158 2811.14,-158 2819.09,-155.71 2829.16,-152.81"/>
</g>
<!-- u6&#45;&gt;p11 -->
<g id="edge14" class="edge">
<title>u6&#45;&gt;p11</title>
<path fill="none" stroke="#ffb6c6" d="M3310.82,-262C3315.08,-262 3337.8,-262 3337.8,-262 3337.8,-262 3341.22,-262 3345.66,-262"/>
</g>
<!-- p32 -->
<g id="node39" class="node">
<title>p32</title>
<path fill="#cfe8ff" stroke="black" d="M2999.52,-158C2999.52,-158 2958.75,-158 2958.75,-158 2952.75,-158 2946.75,-152 2946.75,-146 2946.75,-146 2946.75,-134 2946.75,-134 2946.75,-128 2952.75,-122 2958.75,-122 2958.75,-122 2999.52,-122 2999.52,-122 3005.52,-122 3011.52,-128 3011.52,-134 3011.52,-134 3011.52,-146 3011.52,-146 3011.52,-152 3005.52,-158 2999.52,-158"/>
<text xml:space="preserve" text-anchor="middle" x="2979.14" y="-136.5" font-family="Helvetica,sans-Serif" font-size="10.00">Michael Alto</text>
</g>
<!-- u6&#45;&gt;p32 -->
<g id="edge65" class="edge">
<title>u6&#45;&gt;p32</title>
<path fill="none" stroke="#555555" d="M3310.07,-260.98C3305.98,-259.49 3094.7,-182.9 3011.91,-152.88"/>
</g>
<!-- p37 -->
<g id="node42" class="node">
<title>p37</title>
<path fill="#ffd6e7" stroke="black" d="M3282.15,-158C3282.15,-158 3230.12,-158 3230.12,-158 3224.12,-158 3218.12,-152 3218.12,-146 3218.12,-146 3218.12,-134 3218.12,-134 3218.12,-128 3224.12,-122 3230.12,-122 3230.12,-122 3282.15,-122 3282.15,-122 3288.15,-122 3294.15,-128 3294.15,-134 3294.15,-134 3294.15,-146 3294.15,-146 3294.15,-152 3288.15,-158 3282.15,-158"/>
<text xml:space="preserve" text-anchor="middle" x="3256.14" y="-136.5" font-family="Helvetica,sans-Serif" font-size="10.00">Josalyn &#160;Elliott</text>
</g>
<!-- u6&#45;&gt;p37 -->
<g id="edge69" class="edge">
<title>u6&#45;&gt;p37</title>
<path fill="none" stroke="#555555" d="M3310.1,-260.91C3308.86,-258.17 3278.66,-191.06 3263.99,-158.46"/>
</g>
<!-- p34 -->
<g id="node61" class="node">
<title>p34</title>
<path fill="#cfe8ff" stroke="black" d="M3388.52,-158C3388.52,-158 3341.75,-158 3341.75,-158 3335.75,-158 3329.75,-152 3329.75,-146 3329.75,-146 3329.75,-134 3329.75,-134 3329.75,-128 3335.75,-122 3341.75,-122 3341.75,-122 3388.52,-122 3388.52,-122 3394.52,-122 3400.52,-128 3400.52,-134 3400.52,-134 3400.52,-146 3400.52,-146 3400.52,-152 3394.52,-158 3388.52,-158"/>
<text xml:space="preserve" text-anchor="middle" x="3365.14" y="-136.5" font-family="Helvetica,sans-Serif" font-size="10.00">Lysander Alto</text>
</g>
<!-- u6&#45;&gt;p34 -->
<g id="edge66" class="edge">
<title>u6&#45;&gt;p34</title>
<path fill="none" stroke="#555555" d="M3310.17,-260.91C3311.43,-258.17 3342.19,-191.06 3357.13,-158.46"/>
</g>
<!-- p35 -->
<g id="node62" class="node">
<title>p35</title>
<path fill="#cfe8ff" stroke="black" d="M3499.4,-158C3499.4,-158 3448.88,-158 3448.88,-158 3442.88,-158 3436.88,-152 3436.88,-146 3436.88,-146 3436.88,-134 3436.88,-134 3436.88,-128 3442.88,-122 3448.88,-122 3448.88,-122 3499.4,-122 3499.4,-122 3505.4,-122 3511.4,-128 3511.4,-134 3511.4,-134 3511.4,-146 3511.4,-146 3511.4,-152 3505.4,-158 3499.4,-158"/>
<text xml:space="preserve" text-anchor="middle" x="3474.14" y="-136.5" font-family="Helvetica,sans-Serif" font-size="10.00">Jimmy Jr. Alto</text>
</g>
<!-- u6&#45;&gt;p35 -->
<g id="edge67" class="edge">
<title>u6&#45;&gt;p35</title>
<path fill="none" stroke="#555555" d="M3310.19,-260.95C3311.24,-259.95 3328.14,-244 3328.14,-244 3328.14,-244 3407.71,-187.86 3449.37,-158.47"/>
</g>
<!-- p36 -->
<g id="node63" class="node">
<title>p36</title>
<path fill="#cfe8ff" stroke="black" d="M3596.65,-158C3596.65,-158 3559.62,-158 3559.62,-158 3553.62,-158 3547.62,-152 3547.62,-146 3547.62,-146 3547.62,-134 3547.62,-134 3547.62,-128 3553.62,-122 3559.62,-122 3559.62,-122 3596.65,-122 3596.65,-122 3602.65,-122 3608.65,-128 3608.65,-134 3608.65,-134 3608.65,-146 3608.65,-146 3608.65,-152 3602.65,-158 3596.65,-158"/>
<text xml:space="preserve" text-anchor="middle" x="3578.14" y="-136.5" font-family="Helvetica,sans-Serif" font-size="10.00">Angelo Alto</text>
</g>
<!-- u6&#45;&gt;p36 -->
<g id="edge68" class="edge">
<title>u6&#45;&gt;p36</title>
<path fill="none" stroke="#555555" d="M3310.19,-260.95C3311.24,-259.95 3328.14,-244 3328.14,-244 3328.14,-244 3480.34,-181.29 3547.23,-153.73"/>
</g>
<!-- u7&#45;&gt;p7 -->
<g id="edge16" class="edge">
<title>u7&#45;&gt;p7</title>
<path fill="none" stroke="#ffb6c6" d="M3892.78,-262C3896.78,-262 3918.14,-262 3918.14,-262 3918.14,-262 3922.76,-262 3928.11,-262"/>
</g>
<!-- p26 -->
<g id="node29" class="node">
<title>p26</title>
<path fill="#cfe8ff" stroke="black" d="M3851.15,-158C3851.15,-158 3799.12,-158 3799.12,-158 3793.12,-158 3787.12,-152 3787.12,-146 3787.12,-146 3787.12,-134 3787.12,-134 3787.12,-128 3793.12,-122 3799.12,-122 3799.12,-122 3851.15,-122 3851.15,-122 3857.15,-122 3863.15,-128 3863.15,-134 3863.15,-134 3863.15,-146 3863.15,-146 3863.15,-152 3857.15,-158 3851.15,-158"/>
<text xml:space="preserve" text-anchor="middle" x="3825.14" y="-136.5" font-family="Helvetica,sans-Serif" font-size="10.00">Roland Ira Alto</text>
</g>
<!-- u7&#45;&gt;p26 -->
<g id="edge62" class="edge">
<title>u7&#45;&gt;p26</title>
<path fill="none" stroke="#555555" d="M3892.09,-260.91C3890.55,-258.17 3853.09,-191.06 3834.88,-158.46"/>
</g>
<!-- p22 -->
<g id="node31" class="node">
<title>p22</title>
<path fill="#cfe8ff" stroke="black" d="M4126.65,-158C4126.65,-158 4059.62,-158 4059.62,-158 4053.62,-158 4047.62,-152 4047.62,-146 4047.62,-146 4047.62,-134 4047.62,-134 4047.62,-128 4053.62,-122 4059.62,-122 4059.62,-122 4126.65,-122 4126.65,-122 4132.65,-122 4138.65,-128 4138.65,-134 4138.65,-134 4138.65,-146 4138.65,-146 4138.65,-152 4132.65,-158 4126.65,-158"/>
<text xml:space="preserve" text-anchor="middle" x="4093.14" y="-136.5" font-family="Helvetica,sans-Serif" font-size="10.00">Christian Roy Alto</text>
</g>
<!-- u7&#45;&gt;p22 -->
<g id="edge60" class="edge">
<title>u7&#45;&gt;p22</title>
<path fill="none" stroke="#555555" d="M3892.19,-260.95C3893.24,-259.95 3910.14,-244 3910.14,-244 3910.14,-244 4009.88,-187.86 4062.09,-158.47"/>
</g>
<!-- p24 -->
<g id="node45" class="node">
<title>p24</title>
<path fill="#cfe8ff" stroke="black" d="M4403.27,-158C4403.27,-158 4331,-158 4331,-158 4325,-158 4319,-152 4319,-146 4319,-146 4319,-134 4319,-134 4319,-128 4325,-122 4331,-122 4331,-122 4403.27,-122 4403.27,-122 4409.27,-122 4415.27,-128 4415.27,-134 4415.27,-134 4415.27,-146 4415.27,-146 4415.27,-152 4409.27,-158 4403.27,-158"/>
<text xml:space="preserve" text-anchor="middle" x="4367.14" y="-136.5" font-family="Helvetica,sans-Serif" font-size="10.00">Philip Reginald Alto</text>
</g>
<!-- u7&#45;&gt;p24 -->
<g id="edge61" class="edge">
<title>u7&#45;&gt;p24</title>
<path fill="none" stroke="#555555" d="M3892.19,-260.95C3893.24,-259.95 3910.14,-244 3910.14,-244 3910.14,-244 4301.14,-158 4301.14,-158 4301.14,-158 4308.76,-156.04 4318.82,-153.44"/>
</g>
<!-- u8&#45;&gt;p17 -->
<g id="edge18" class="edge">
<title>u8&#45;&gt;p17</title>
<path fill="none" stroke="#ffb6c6" d="M4559.71,-262C4563.3,-262 4582.47,-262 4582.47,-262 4582.47,-262 4588.86,-262 4594.95,-262"/>
</g>
<!-- p54 -->
<g id="node37" class="node">
<title>p54</title>
<path fill="#cfe8ff" stroke="black" d="M4642.77,-158C4642.77,-158 4609.5,-158 4609.5,-158 4603.5,-158 4597.5,-152 4597.5,-146 4597.5,-146 4597.5,-134 4597.5,-134 4597.5,-128 4603.5,-122 4609.5,-122 4609.5,-122 4642.77,-122 4642.77,-122 4648.77,-122 4654.77,-128 4654.77,-134 4654.77,-134 4654.77,-146 4654.77,-146 4654.77,-152 4648.77,-158 4642.77,-158"/>
<text xml:space="preserve" text-anchor="middle" x="4626.14" y="-136.5" font-family="Helvetica,sans-Serif" font-size="10.00">Jason Alto</text>
</g>
<!-- u8&#45;&gt;p54 -->
<g id="edge79" class="edge">
<title>u8&#45;&gt;p54</title>
<path fill="none" stroke="#555555" d="M4559.18,-260.91C4560.72,-258.17 4598.18,-191.06 4616.39,-158.46"/>
</g>
<!-- p53 -->
<g id="node54" class="node">
<title>p53</title>
<path fill="#ffd6e7" stroke="black" d="M4885.15,-158C4885.15,-158 4833.12,-158 4833.12,-158 4827.12,-158 4821.12,-152 4821.12,-146 4821.12,-146 4821.12,-134 4821.12,-134 4821.12,-128 4827.12,-122 4833.12,-122 4833.12,-122 4885.15,-122 4885.15,-122 4891.15,-122 4897.15,-128 4897.15,-134 4897.15,-134 4897.15,-146 4897.15,-146 4897.15,-152 4891.15,-158 4885.15,-158"/>
<text xml:space="preserve" text-anchor="middle" x="4859.14" y="-136.5" font-family="Helvetica,sans-Serif" font-size="10.00">Grace Ann Lim</text>
</g>
<!-- u8&#45;&gt;p53 -->
<g id="edge78" class="edge">
<title>u8&#45;&gt;p53</title>
<path fill="none" stroke="#555555" d="M4559.19,-260.95C4560.24,-259.95 4577.14,-244 4577.14,-244 4577.14,-244 4743.71,-183.16 4820.81,-155"/>
</g>
<!-- u9 -->
<g id="node68" class="node">
<title>u9</title>
<ellipse fill="#f9f9f9" stroke="black" cx="3899.14" cy="-140" rx="0.36" ry="0.36"/>
</g>
<!-- p26&#45;&gt;u9 -->
<g id="edge19" class="edge">
<title>p26&#45;&gt;u9</title>
<path fill="none" stroke="#ffb6c6" d="M3863.58,-140C3869.23,-140 3874.47,-140 3874.47,-140 3874.47,-140 3894.73,-140 3898.53,-140"/>
</g>
<!-- p27 -->
<g id="node30" class="node">
<title>p27</title>
<path fill="#ffd6e7" stroke="black" d="M3999.15,-158C3999.15,-158 3947.12,-158 3947.12,-158 3941.12,-158 3935.12,-152 3935.12,-146 3935.12,-146 3935.12,-134 3935.12,-134 3935.12,-128 3941.12,-122 3947.12,-122 3947.12,-122 3999.15,-122 3999.15,-122 4005.15,-122 4011.15,-128 4011.15,-134 4011.15,-134 4011.15,-146 4011.15,-146 4011.15,-152 4005.15,-158 3999.15,-158"/>
<text xml:space="preserve" text-anchor="middle" x="3973.14" y="-136.5" font-family="Helvetica,sans-Serif" font-size="10.00">Merylle U. Alto</text>
</g>
<!-- u10 -->
<g id="node69" class="node">
<title>u10</title>
<ellipse fill="#f9f9f9" stroke="black" cx="4175.14" cy="-140" rx="0.36" ry="0.36"/>
</g>
<!-- p22&#45;&gt;u10 -->
<g id="edge21" class="edge">
<title>p22&#45;&gt;u10</title>
<path fill="none" stroke="#ffb6c6" d="M4138.85,-140C4143.8,-140 4147.8,-140 4147.8,-140 4147.8,-140 4170.25,-140 4174.46,-140"/>
</g>
<!-- p23 -->
<g id="node32" class="node">
<title>p23</title>
<path fill="#ffd6e7" stroke="black" d="M4271.27,-158C4271.27,-158 4223,-158 4223,-158 4217,-158 4211,-152 4211,-146 4211,-146 4211,-134 4211,-134 4211,-128 4217,-122 4223,-122 4223,-122 4271.27,-122 4271.27,-122 4277.27,-122 4283.27,-128 4283.27,-134 4283.27,-134 4283.27,-146 4283.27,-146 4283.27,-152 4277.27,-158 4271.27,-158"/>
<text xml:space="preserve" text-anchor="middle" x="4247.14" y="-136.5" font-family="Helvetica,sans-Serif" font-size="10.00">Amelia F. Alto</text>
</g>
<!-- u11 -->
<g id="node70" class="node">
<title>u11</title>
<ellipse fill="#f9f9f9" stroke="black" cx="2107.14" cy="-140" rx="0.36" ry="0.36"/>
</g>
<!-- p49&#45;&gt;u11 -->
<g id="edge23" class="edge">
<title>p49&#45;&gt;u11</title>
<path fill="none" stroke="#ffb6c6" d="M2070.81,-140C2076.64,-140 2082.14,-140 2082.14,-140 2082.14,-140 2102.67,-140 2106.52,-140"/>
</g>
<!-- p50 -->
<g id="node34" class="node">
<title>p50</title>
<path fill="#ffd6e7" stroke="black" d="M2207.15,-158C2207.15,-158 2155.12,-158 2155.12,-158 2149.12,-158 2143.12,-152 2143.12,-146 2143.12,-146 2143.12,-134 2143.12,-134 2143.12,-128 2149.12,-122 2155.12,-122 2155.12,-122 2207.15,-122 2207.15,-122 2213.15,-122 2219.15,-128 2219.15,-134 2219.15,-134 2219.15,-146 2219.15,-146 2219.15,-152 2213.15,-158 2207.15,-158"/>
<text xml:space="preserve" text-anchor="middle" x="2181.14" y="-136.5" font-family="Helvetica,sans-Serif" font-size="10.00">Lea Abello Alto</text>
</g>
<!-- u12 -->
<g id="node71" class="node">
<title>u12</title>
<ellipse fill="#f9f9f9" stroke="black" cx="2379.14" cy="-140" rx="0.36" ry="0.36"/>
</g>
<!-- p45&#45;&gt;u12 -->
<g id="edge25" class="edge">
<title>p45&#45;&gt;u12</title>
<path fill="none" stroke="#ffb6c6" d="M2343.14,-140C2348.23,-140 2352.47,-140 2352.47,-140 2352.47,-140 2374.37,-140 2378.48,-140"/>
</g>
<!-- p46 -->
<g id="node36" class="node">
<title>p46</title>
<path fill="#ffd6e7" stroke="black" d="M2504.9,-158C2504.9,-158 2427.38,-158 2427.38,-158 2421.38,-158 2415.38,-152 2415.38,-146 2415.38,-146 2415.38,-134 2415.38,-134 2415.38,-128 2421.38,-122 2427.38,-122 2427.38,-122 2504.9,-122 2504.9,-122 2510.9,-122 2516.9,-128 2516.9,-134 2516.9,-134 2516.9,-146 2516.9,-146 2516.9,-152 2510.9,-158 2504.9,-158"/>
<text xml:space="preserve" text-anchor="middle" x="2466.14" y="-136.5" font-family="Helvetica,sans-Serif" font-size="10.00">Rebecca Reyes Alto</text>
</g>
<!-- u13 -->
<g id="node72" class="node">
<title>u13</title>
<ellipse fill="#f9f9f9" stroke="black" cx="4691.14" cy="-140" rx="0.36" ry="0.36"/>
</g>
<!-- p54&#45;&gt;u13 -->
<g id="edge27" class="edge">
<title>p54&#45;&gt;u13</title>
<path fill="none" stroke="#ffb6c6" d="M4655.14,-140C4661.42,-140 4669.47,-140 4669.47,-140 4669.47,-140 4687.26,-140 4690.6,-140"/>
</g>
<!-- p55 -->
<g id="node38" class="node">
<title>p55</title>
<path fill="#ffd6e7" stroke="black" d="M4773.15,-158C4773.15,-158 4739.12,-158 4739.12,-158 4733.12,-158 4727.12,-152 4727.12,-146 4727.12,-146 4727.12,-134 4727.12,-134 4727.12,-128 4733.12,-122 4739.12,-122 4739.12,-122 4773.15,-122 4773.15,-122 4779.15,-122 4785.15,-128 4785.15,-134 4785.15,-134 4785.15,-146 4785.15,-146 4785.15,-152 4779.15,-158 4773.15,-158"/>
<text xml:space="preserve" text-anchor="middle" x="4756.14" y="-136.5" font-family="Helvetica,sans-Serif" font-size="10.00">Amy Hung</text>
</g>
<!-- u14 -->
<g id="node73" class="node">
<title>u14</title>
<ellipse fill="#f9f9f9" stroke="black" cx="3048.14" cy="-140" rx="0.36" ry="0.36"/>
</g>
<!-- p32&#45;&gt;u14 -->
<g id="edge29" class="edge">
<title>p32&#45;&gt;u14</title>
<path fill="none" stroke="#ffb6c6" d="M3011.76,-140C3018.06,-140 3025.14,-140 3025.14,-140 3025.14,-140 3044.02,-140 3047.57,-140"/>
</g>
<!-- p33 -->
<g id="node40" class="node">
<title>p33</title>
<path fill="#ffd6e7" stroke="black" d="M3169.65,-158C3169.65,-158 3096.62,-158 3096.62,-158 3090.62,-158 3084.62,-152 3084.62,-146 3084.62,-146 3084.62,-134 3084.62,-134 3084.62,-128 3090.62,-122 3096.62,-122 3096.62,-122 3169.65,-122 3169.65,-122 3175.65,-122 3181.65,-128 3181.65,-134 3181.65,-134 3181.65,-146 3181.65,-146 3181.65,-152 3175.65,-158 3169.65,-158"/>
<text xml:space="preserve" text-anchor="middle" x="3133.14" y="-136.5" font-family="Helvetica,sans-Serif" font-size="10.00">Jaime Alicia H. Alto</text>
</g>
<!-- p38 -->
<g id="node41" class="node">
<title>p38</title>
<path fill="#cfe8ff" stroke="black" d="M3739.15,-158C3739.15,-158 3693.12,-158 3693.12,-158 3687.12,-158 3681.12,-152 3681.12,-146 3681.12,-146 3681.12,-134 3681.12,-134 3681.12,-128 3687.12,-122 3693.12,-122 3693.12,-122 3739.15,-122 3739.15,-122 3745.15,-122 3751.15,-128 3751.15,-134 3751.15,-134 3751.15,-146 3751.15,-146 3751.15,-152 3745.15,-158 3739.15,-158"/>
<text xml:space="preserve" text-anchor="middle" x="3716.14" y="-136.5" font-family="Helvetica,sans-Serif" font-size="10.00">Patrick Elliott</text>
</g>
<!-- u15 -->
<g id="node74" class="node">
<title>u15</title>
<ellipse fill="#f9f9f9" stroke="black" cx="3645.14" cy="-140" rx="0.36" ry="0.36"/>
</g>
<!-- p37&#45;&gt;u15 -->
<g id="edge31" class="edge">
<title>p37&#45;&gt;u15</title>
<path fill="none" stroke="#ffb6c6" d="M3278.34,-158.3C3300.13,-176.27 3330.14,-201 3330.14,-201 3330.14,-201 3609.14,-201 3609.14,-201 3609.14,-201 3640.78,-147.39 3644.73,-140.69"/>
</g>
<!-- u16 -->
<g id="node75" class="node">
<title>u16</title>
<ellipse fill="#f9f9f9" stroke="black" cx="870.13" cy="-140" rx="0.36" ry="0.36"/>
</g>
<!-- p28&#45;&gt;u16 -->
<g id="edge33" class="edge">
<title>p28&#45;&gt;u16</title>
<path fill="none" stroke="#ffb6c6" d="M834.32,-140C840.52,-140 849.13,-140 849.13,-140 849.13,-140 866.38,-140 869.62,-140"/>
</g>
<!-- p29 -->
<g id="node44" class="node">
<title>p29</title>
<path fill="#ffd6e7" stroke="black" d="M980.02,-158C980.02,-158 918.25,-158 918.25,-158 912.25,-158 906.25,-152 906.25,-146 906.25,-146 906.25,-134 906.25,-134 906.25,-128 912.25,-122 918.25,-122 918.25,-122 980.02,-122 980.02,-122 986.02,-122 992.02,-128 992.02,-134 992.02,-134 992.02,-146 992.02,-146 992.02,-152 986.02,-158 980.02,-158"/>
<text xml:space="preserve" text-anchor="middle" x="949.13" y="-136.5" font-family="Helvetica,sans-Serif" font-size="10.00">Angel Young&#45;Alto</text>
</g>
<!-- u17 -->
<g id="node76" class="node">
<title>u17</title>
<ellipse fill="#f9f9f9" stroke="black" cx="4451.14" cy="-140" rx="0.36" ry="0.36"/>
</g>
<!-- p24&#45;&gt;u17 -->
<g id="edge35" class="edge">
<title>p24&#45;&gt;u17</title>
<path fill="none" stroke="#ffb6c6" d="M4415.48,-140C4419.83,-140 4423.14,-140 4423.14,-140 4423.14,-140 4446.13,-140 4450.44,-140"/>
</g>
<!-- p25 -->
<g id="node46" class="node">
<title>p25</title>
<path fill="#ffd6e7" stroke="black" d="M4549.02,-158C4549.02,-158 4499.25,-158 4499.25,-158 4493.25,-158 4487.25,-152 4487.25,-146 4487.25,-146 4487.25,-134 4487.25,-134 4487.25,-128 4493.25,-122 4499.25,-122 4499.25,-122 4549.02,-122 4549.02,-122 4555.02,-122 4561.02,-128 4561.02,-134 4561.02,-134 4561.02,-146 4561.02,-146 4561.02,-152 4555.02,-158 4549.02,-158"/>
<text xml:space="preserve" text-anchor="middle" x="4524.14" y="-136.5" font-family="Helvetica,sans-Serif" font-size="10.00">Mylene L. Alto</text>
</g>
<!-- p47 -->
<g id="node47" class="node">
<title>p47</title>
<path fill="#cfe8ff" stroke="black" d="M2781.15,-158C2781.15,-158 2729.12,-158 2729.12,-158 2723.12,-158 2717.12,-152 2717.12,-146 2717.12,-146 2717.12,-134 2717.12,-134 2717.12,-128 2723.12,-122 2729.12,-122 2729.12,-122 2781.15,-122 2781.15,-122 2787.15,-122 2793.15,-128 2793.15,-134 2793.15,-134 2793.15,-146 2793.15,-146 2793.15,-152 2787.15,-158 2781.15,-158"/>
<text xml:space="preserve" text-anchor="middle" x="2755.14" y="-136.5" font-family="Helvetica,sans-Serif" font-size="10.00">Richard Obilex</text>
</g>
<!-- u18 -->
<g id="node77" class="node">
<title>u18</title>
<ellipse fill="#f9f9f9" stroke="black" cx="2681.14" cy="-140" rx="0.36" ry="0.36"/>
</g>
<!-- p48&#45;&gt;u18 -->
<g id="edge37" class="edge">
<title>p48&#45;&gt;u18</title>
<path fill="none" stroke="#ffb6c6" d="M2645.45,-140C2650.12,-140 2653.8,-140 2653.8,-140 2653.8,-140 2676.25,-140 2680.46,-140"/>
</g>
<!-- u19 -->
<g id="node78" class="node">
<title>u19</title>
<ellipse fill="#f9f9f9" stroke="black" cx="1558.13" cy="-140" rx="0.36" ry="0.36"/>
</g>
<!-- p56&#45;&gt;u19 -->
<g id="edge39" class="edge">
<title>p56&#45;&gt;u19</title>
<path fill="none" stroke="#ffb6c6" d="M1371.34,-158.3C1396.08,-176.27 1430.13,-201 1430.13,-201 1430.13,-201 1522.13,-201 1522.13,-201 1522.13,-201 1553.78,-147.39 1557.73,-140.69"/>
</g>
<!-- p57 -->
<g id="node50" class="node">
<title>p57</title>
<path fill="#ffd6e7" stroke="black" d="M1697.64,-158C1697.64,-158 1606.62,-158 1606.62,-158 1600.62,-158 1594.62,-152 1594.62,-146 1594.62,-146 1594.62,-134 1594.62,-134 1594.62,-128 1600.62,-122 1606.62,-122 1606.62,-122 1697.64,-122 1697.64,-122 1703.64,-122 1709.64,-128 1709.64,-134 1709.64,-134 1709.64,-146 1709.64,-146 1709.64,-152 1703.64,-158 1697.64,-158"/>
<text xml:space="preserve" text-anchor="middle" x="1652.13" y="-136.5" font-family="Helvetica,sans-Serif" font-size="10.00">Nita Nash Wongbandue</text>
</g>
<!-- u20 -->
<g id="node79" class="node">
<title>u20</title>
<ellipse fill="#f9f9f9" stroke="black" cx="632.13" cy="-140" rx="0.36" ry="0.36"/>
</g>
<!-- p43&#45;&gt;u20 -->
<g id="edge41" class="edge">
<title>p43&#45;&gt;u20</title>
<path fill="none" stroke="#ffb6c6" d="M61.64,-158.3C83.73,-176.27 114.13,-201 114.13,-201 114.13,-201 596.13,-201 596.13,-201 596.13,-201 627.78,-147.39 631.73,-140.69"/>
</g>
<!-- p44 -->
<g id="node52" class="node">
<title>p44</title>
<path fill="#ffd6e7" stroke="black" d="M731.77,-158C731.77,-158 680.5,-158 680.5,-158 674.5,-158 668.5,-152 668.5,-146 668.5,-146 668.5,-134 668.5,-134 668.5,-128 674.5,-122 680.5,-122 680.5,-122 731.77,-122 731.77,-122 737.77,-122 743.77,-128 743.77,-134 743.77,-134 743.77,-146 743.77,-146 743.77,-152 737.77,-158 731.77,-158"/>
<text xml:space="preserve" text-anchor="middle" x="706.13" y="-136.5" font-family="Helvetica,sans-Serif" font-size="10.00">Riza Joy Zano</text>
</g>
<!-- p52 -->
<g id="node53" class="node">
<title>p52</title>
<path fill="#cfe8ff" stroke="black" d="M5016.9,-158C5016.9,-158 4981.38,-158 4981.38,-158 4975.38,-158 4969.38,-152 4969.38,-146 4969.38,-146 4969.38,-134 4969.38,-134 4969.38,-128 4975.38,-122 4981.38,-122 4981.38,-122 5016.9,-122 5016.9,-122 5022.9,-122 5028.9,-128 5028.9,-134 5028.9,-134 5028.9,-146 5028.9,-146 5028.9,-152 5022.9,-158 5016.9,-158"/>
<text xml:space="preserve" text-anchor="middle" x="4999.14" y="-136.5" font-family="Helvetica,sans-Serif" font-size="10.00">Fabian Lim</text>
</g>
<!-- u21 -->
<g id="node80" class="node">
<title>u21</title>
<ellipse fill="#f9f9f9" stroke="black" cx="4933.14" cy="-140" rx="0.36" ry="0.36"/>
</g>
<!-- p53&#45;&gt;u21 -->
<g id="edge43" class="edge">
<title>p53&#45;&gt;u21</title>
<path fill="none" stroke="#ffb6c6" d="M4897.58,-140C4903.23,-140 4908.47,-140 4908.47,-140 4908.47,-140 4928.73,-140 4932.53,-140"/>
</g>
<!-- u22 -->
<g id="node81" class="node">
<title>u22</title>
<ellipse fill="#f9f9f9" stroke="black" cx="468.13" cy="-140" rx="0.36" ry="0.36"/>
</g>
<!-- p39&#45;&gt;u22 -->
<g id="edge45" class="edge">
<title>p39&#45;&gt;u22</title>
<path fill="none" stroke="#ffb6c6" d="M173.04,-158.3C194.54,-176.27 224.13,-201 224.13,-201 224.13,-201 432.13,-201 432.13,-201 432.13,-201 463.78,-147.39 467.73,-140.69"/>
</g>
<!-- p40 -->
<g id="node56" class="node">
<title>p40</title>
<path fill="#ffd6e7" stroke="black" d="M584.02,-158C584.02,-158 516.25,-158 516.25,-158 510.25,-158 504.25,-152 504.25,-146 504.25,-146 504.25,-134 504.25,-134 504.25,-128 510.25,-122 516.25,-122 516.25,-122 584.02,-122 584.02,-122 590.02,-122 596.02,-128 596.02,-134 596.02,-134 596.02,-146 596.02,-146 596.02,-152 590.02,-158 584.02,-158"/>
<text xml:space="preserve" text-anchor="middle" x="550.13" y="-136.5" font-family="Helvetica,sans-Serif" font-size="10.00">Angelia Nina Zano</text>
</g>
<!-- u23 -->
<g id="node82" class="node">
<title>u23</title>
<ellipse fill="#f9f9f9" stroke="black" cx="1146.13" cy="-140" rx="0.36" ry="0.36"/>
</g>
<!-- p30&#45;&gt;u23 -->
<g id="edge47" class="edge">
<title>p30&#45;&gt;u23</title>
<path fill="none" stroke="#ffb6c6" d="M1110.62,-140C1115.9,-140 1120.47,-140 1120.47,-140 1120.47,-140 1141.55,-140 1145.5,-140"/>
</g>
<!-- p31 -->
<g id="node58" class="node">
<title>p31</title>
<path fill="#ffd6e7" stroke="black" d="M1249.64,-158C1249.64,-158 1194.62,-158 1194.62,-158 1188.62,-158 1182.62,-152 1182.62,-146 1182.62,-146 1182.62,-134 1182.62,-134 1182.62,-128 1188.62,-122 1194.62,-122 1194.62,-122 1249.64,-122 1249.64,-122 1255.64,-122 1261.64,-128 1261.64,-134 1261.64,-134 1261.64,-146 1261.64,-146 1261.64,-152 1255.64,-158 1249.64,-158"/>
<text xml:space="preserve" text-anchor="middle" x="1222.13" y="-136.5" font-family="Helvetica,sans-Serif" font-size="10.00">Marissa N. Alto</text>
</g>
<!-- p68 -->
<g id="node92" class="node">
<title>p68</title>
<path fill="#ffd6e7" stroke="black" d="M3606.27,-36C3606.27,-36 3570,-36 3570,-36 3564,-36 3558,-30 3558,-24 3558,-24 3558,-12 3558,-12 3558,-6 3564,0 3570,0 3570,0 3606.27,0 3606.27,0 3612.27,0 3618.27,-6 3618.27,-12 3618.27,-12 3618.27,-24 3618.27,-24 3618.27,-30 3612.27,-36 3606.27,-36"/>
<text xml:space="preserve" text-anchor="middle" x="3588.14" y="-14.5" font-family="Helvetica,sans-Serif" font-size="10.00">Marina Alto</text>
</g>
<!-- p35&#45;&gt;p68 -->
<g id="edge91" class="edge">
<title>p35&#45;&gt;p68</title>
<path fill="none" stroke="#555555" d="M3490.71,-121.55C3512.33,-98.8 3549.91,-59.23 3571.54,-36.47"/>
</g>
<!-- p69 -->
<g id="node93" class="node">
<title>p69</title>
<path fill="#cfe8ff" stroke="black" d="M3378.27,-36C3378.27,-36 3300,-36 3300,-36 3294,-36 3288,-30 3288,-24 3288,-24 3288,-12 3288,-12 3288,-6 3294,0 3300,0 3300,0 3378.27,0 3378.27,0 3384.27,0 3390.27,-6 3390.27,-12 3390.27,-12 3390.27,-24 3390.27,-24 3390.27,-30 3384.27,-36 3378.27,-36"/>
<text xml:space="preserve" text-anchor="middle" x="3339.14" y="-14.5" font-family="Helvetica,sans-Serif" font-size="10.00">Alexander Adam Alto</text>
</g>
<!-- p35&#45;&gt;p69 -->
<g id="edge92" class="edge">
<title>p35&#45;&gt;p69</title>
<path fill="none" stroke="#555555" d="M3454.5,-121.55C3428.91,-98.8 3384.4,-59.23 3358.79,-36.47"/>
</g>
<!-- p70 -->
<g id="node94" class="node">
<title>p70</title>
<path fill="#cfe8ff" stroke="black" d="M3509.52,-36C3509.52,-36 3438.75,-36 3438.75,-36 3432.75,-36 3426.75,-30 3426.75,-24 3426.75,-24 3426.75,-12 3426.75,-12 3426.75,-6 3432.75,0 3438.75,0 3438.75,0 3509.52,0 3509.52,0 3515.52,0 3521.52,-6 3521.52,-12 3521.52,-12 3521.52,-24 3521.52,-24 3521.52,-30 3515.52,-36 3509.52,-36"/>
<text xml:space="preserve" text-anchor="middle" x="3474.14" y="-14.5" font-family="Helvetica,sans-Serif" font-size="10.00">Jayson Jordan Alto</text>
</g>
<!-- p35&#45;&gt;p70 -->
<g id="edge93" class="edge">
<title>p35&#45;&gt;p70</title>
<path fill="none" stroke="#555555" d="M3474.14,-121.55C3474.14,-98.8 3474.14,-59.23 3474.14,-36.47"/>
</g>
<!-- p79 -->
<g id="node103" class="node">
<title>p79</title>
<path fill="#ffd6e7" stroke="black" d="M2895.4,-36C2895.4,-36 2844.88,-36 2844.88,-36 2838.88,-36 2832.88,-30 2832.88,-24 2832.88,-24 2832.88,-12 2832.88,-12 2832.88,-6 2838.88,0 2844.88,0 2844.88,0 2895.4,0 2895.4,0 2901.4,0 2907.4,-6 2907.4,-12 2907.4,-12 2907.4,-24 2907.4,-24 2907.4,-30 2901.4,-36 2895.4,-36"/>
<text xml:space="preserve" text-anchor="middle" x="2870.14" y="-14.5" font-family="Helvetica,sans-Serif" font-size="10.00">Ryder Garland</text>
</g>
<!-- p51&#45;&gt;p79 -->
<g id="edge102" class="edge">
<title>p51&#45;&gt;p79</title>
<path fill="none" stroke="#555555" d="M2870.14,-121.55C2870.14,-98.8 2870.14,-59.23 2870.14,-36.47"/>
</g>
<!-- u9&#45;&gt;p27 -->
<g id="edge20" class="edge">
<title>u9&#45;&gt;p27</title>
<path fill="none" stroke="#ffb6c6" d="M3899.74,-140C3903.54,-140 3923.8,-140 3923.8,-140 3923.8,-140 3929.04,-140 3934.69,-140"/>
</g>
<!-- p62 -->
<g id="node86" class="node">
<title>p62</title>
<path fill="#ffd6e7" stroke="black" d="M3974.77,-36C3974.77,-36 3923.5,-36 3923.5,-36 3917.5,-36 3911.5,-30 3911.5,-24 3911.5,-24 3911.5,-12 3911.5,-12 3911.5,-6 3917.5,0 3923.5,0 3923.5,0 3974.77,0 3974.77,0 3980.77,0 3986.77,-6 3986.77,-12 3986.77,-12 3986.77,-24 3986.77,-24 3986.77,-30 3980.77,-36 3974.77,-36"/>
<text xml:space="preserve" text-anchor="middle" x="3949.14" y="-14.5" font-family="Helvetica,sans-Serif" font-size="10.00">Tifanny Claire </text>
</g>
<!-- u9&#45;&gt;p62 -->
<g id="edge85" class="edge">
<title>u9&#45;&gt;p62</title>
<path fill="none" stroke="#555555" d="M3899.17,-138.91C3900.32,-136.17 3928.28,-69.06 3941.86,-36.46"/>
</g>
<!-- p63 -->
<g id="node87" class="node">
<title>p63</title>
<path fill="#cfe8ff" stroke="black" d="M3863.9,-36C3863.9,-36 3792.38,-36 3792.38,-36 3786.38,-36 3780.38,-30 3780.38,-24 3780.38,-24 3780.38,-12 3780.38,-12 3780.38,-6 3786.38,0 3792.38,0 3792.38,0 3863.9,0 3863.9,0 3869.9,0 3875.9,-6 3875.9,-12 3875.9,-12 3875.9,-24 3875.9,-24 3875.9,-30 3869.9,-36 3863.9,-36"/>
<text xml:space="preserve" text-anchor="middle" x="3828.14" y="-14.5" font-family="Helvetica,sans-Serif" font-size="10.00">Matthew Ira James</text>
</g>
<!-- u9&#45;&gt;p63 -->
<g id="edge86" class="edge">
<title>u9&#45;&gt;p63</title>
<path fill="none" stroke="#555555" d="M3899.08,-138.91C3897.46,-136.17 3857.76,-69.06 3838.47,-36.46"/>
</g>
<!-- u10&#45;&gt;p23 -->
<g id="edge22" class="edge">
<title>u10&#45;&gt;p23</title>
<path fill="none" stroke="#ffb6c6" d="M4175.73,-140C4179.42,-140 4199.14,-140 4199.14,-140 4199.14,-140 4204.77,-140 4210.57,-140"/>
</g>
<!-- p59 -->
<g id="node83" class="node">
<title>p59</title>
<path fill="#ffd6e7" stroke="black" d="M4250.02,-36C4250.02,-36 4212.25,-36 4212.25,-36 4206.25,-36 4200.25,-30 4200.25,-24 4200.25,-24 4200.25,-12 4200.25,-12 4200.25,-6 4206.25,0 4212.25,0 4212.25,0 4250.02,0 4250.02,0 4256.02,0 4262.02,-6 4262.02,-12 4262.02,-12 4262.02,-24 4262.02,-24 4262.02,-30 4256.02,-36 4250.02,-36"/>
<text xml:space="preserve" text-anchor="middle" x="4231.14" y="-14.5" font-family="Helvetica,sans-Serif" font-size="10.00">Denice Alto</text>
</g>
<!-- u10&#45;&gt;p59 -->
<g id="edge82" class="edge">
<title>u10&#45;&gt;p59</title>
<path fill="none" stroke="#555555" d="M4175.18,-138.91C4176.46,-136.17 4207.77,-69.06 4222.99,-36.46"/>
</g>
<!-- p60 -->
<g id="node84" class="node">
<title>p60</title>
<path fill="#cfe8ff" stroke="black" d="M4152.27,-36C4152.27,-36 4086,-36 4086,-36 4080,-36 4074,-30 4074,-24 4074,-24 4074,-12 4074,-12 4074,-6 4080,0 4086,0 4086,0 4152.27,0 4152.27,0 4158.27,0 4164.27,-6 4164.27,-12 4164.27,-12 4164.27,-24 4164.27,-24 4164.27,-30 4158.27,-36 4152.27,-36"/>
<text xml:space="preserve" text-anchor="middle" x="4119.14" y="-14.5" font-family="Helvetica,sans-Serif" font-size="10.00">Nicolas Miles Alto</text>
</g>
<!-- u10&#45;&gt;p60 -->
<g id="edge83" class="edge">
<title>u10&#45;&gt;p60</title>
<path fill="none" stroke="#555555" d="M4175.09,-138.91C4173.81,-136.17 4142.5,-69.06 4127.28,-36.46"/>
</g>
<!-- u11&#45;&gt;p50 -->
<g id="edge24" class="edge">
<title>u11&#45;&gt;p50</title>
<path fill="none" stroke="#ffb6c6" d="M2107.74,-140C2111.54,-140 2131.8,-140 2131.8,-140 2131.8,-140 2137.04,-140 2142.69,-140"/>
</g>
<!-- p75 -->
<g id="node99" class="node">
<title>p75</title>
<path fill="#cfe8ff" stroke="black" d="M1891.02,-36C1891.02,-36 1823.25,-36 1823.25,-36 1817.25,-36 1811.25,-30 1811.25,-24 1811.25,-24 1811.25,-12 1811.25,-12 1811.25,-6 1817.25,0 1823.25,0 1823.25,0 1891.02,0 1891.02,0 1897.02,0 1903.02,-6 1903.02,-12 1903.02,-12 1903.02,-24 1903.02,-24 1903.02,-30 1897.02,-36 1891.02,-36"/>
<text xml:space="preserve" text-anchor="middle" x="1857.13" y="-14.5" font-family="Helvetica,sans-Serif" font-size="10.00">Justin Lhance Alto</text>
</g>
<!-- u11&#45;&gt;p75 -->
<g id="edge98" class="edge">
<title>u11&#45;&gt;p75</title>
<path fill="none" stroke="#555555" d="M2107.08,-138.95C2105.97,-137.95 2088.14,-122 2088.14,-122 2088.14,-122 1962.23,-65.86 1896.32,-36.47"/>
</g>
<!-- p76 -->
<g id="node100" class="node">
<title>p76</title>
<path fill="#cfe8ff" stroke="black" d="M2026.77,-36C2026.77,-36 1951.5,-36 1951.5,-36 1945.5,-36 1939.5,-30 1939.5,-24 1939.5,-24 1939.5,-12 1939.5,-12 1939.5,-6 1945.5,0 1951.5,0 1951.5,0 2026.77,0 2026.77,0 2032.77,0 2038.77,-6 2038.77,-12 2038.77,-12 2038.77,-24 2038.77,-24 2038.77,-30 2032.77,-36 2026.77,-36"/>
<text xml:space="preserve" text-anchor="middle" x="1989.13" y="-14.5" font-family="Helvetica,sans-Serif" font-size="10.00">Joshua Landice Alto</text>
</g>
<!-- u11&#45;&gt;p76 -->
<g id="edge99" class="edge">
<title>u11&#45;&gt;p76</title>
<path fill="none" stroke="#555555" d="M2107.05,-138.91C2104.35,-136.17 2038.36,-69.06 2006.31,-36.46"/>
</g>
<!-- p77 -->
<g id="node101" class="node">
<title>p77</title>
<path fill="#cfe8ff" stroke="black" d="M2143.4,-36C2143.4,-36 2086.88,-36 2086.88,-36 2080.88,-36 2074.88,-30 2074.88,-24 2074.88,-24 2074.88,-12 2074.88,-12 2074.88,-6 2080.88,0 2086.88,0 2086.88,0 2143.4,0 2143.4,0 2149.4,0 2155.4,-6 2155.4,-12 2155.4,-12 2155.4,-24 2155.4,-24 2155.4,-30 2149.4,-36 2143.4,-36"/>
<text xml:space="preserve" text-anchor="middle" x="2115.14" y="-14.5" font-family="Helvetica,sans-Serif" font-size="10.00">Jairo Leslie Alto</text>
</g>
<!-- u11&#45;&gt;p77 -->
<g id="edge100" class="edge">
<title>u11&#45;&gt;p77</title>
<path fill="none" stroke="#555555" d="M2107.14,-138.91C2107.32,-136.17 2111.8,-69.06 2113.97,-36.46"/>
</g>
<!-- p78 -->
<g id="node102" class="node">
<title>p78</title>
<path fill="#ffd6e7" stroke="black" d="M2260.4,-36C2260.4,-36 2203.88,-36 2203.88,-36 2197.88,-36 2191.88,-30 2191.88,-24 2191.88,-24 2191.88,-12 2191.88,-12 2191.88,-6 2197.88,0 2203.88,0 2203.88,0 2260.4,0 2260.4,0 2266.4,0 2272.4,-6 2272.4,-12 2272.4,-12 2272.4,-24 2272.4,-24 2272.4,-30 2266.4,-36 2260.4,-36"/>
<text xml:space="preserve" text-anchor="middle" x="2232.14" y="-14.5" font-family="Helvetica,sans-Serif" font-size="10.00">Lyza Joelie Alto</text>
</g>
<!-- u11&#45;&gt;p78 -->
<g id="edge101" class="edge">
<title>u11&#45;&gt;p78</title>
<path fill="none" stroke="#555555" d="M2107.23,-138.91C2110.09,-136.17 2179.99,-69.06 2213.95,-36.46"/>
</g>
<!-- u12&#45;&gt;p46 -->
<g id="edge26" class="edge">
<title>u12&#45;&gt;p46</title>
<path fill="none" stroke="#ffb6c6" d="M2379.85,-140C2384.32,-140 2408.14,-140 2408.14,-140 2408.14,-140 2411.11,-140 2415.16,-140"/>
</g>
<!-- p72 -->
<g id="node96" class="node">
<title>p72</title>
<path fill="#ffd6e7" stroke="black" d="M2403.27,-36C2403.27,-36 2337,-36 2337,-36 2331,-36 2325,-30 2325,-24 2325,-24 2325,-12 2325,-12 2325,-6 2331,0 2337,0 2337,0 2403.27,0 2403.27,0 2409.27,0 2415.27,-6 2415.27,-12 2415.27,-12 2415.27,-24 2415.27,-24 2415.27,-30 2409.27,-36 2403.27,-36"/>
<text xml:space="preserve" text-anchor="middle" x="2370.14" y="-14.5" font-family="Helvetica,sans-Serif" font-size="10.00">Arlene Reese Alto</text>
</g>
<!-- u12&#45;&gt;p72 -->
<g id="edge95" class="edge">
<title>u12&#45;&gt;p72</title>
<path fill="none" stroke="#555555" d="M2379.13,-138.91C2378.92,-136.17 2373.89,-69.06 2371.44,-36.46"/>
</g>
<!-- p73 -->
<g id="node97" class="node">
<title>p73</title>
<path fill="#cfe8ff" stroke="black" d="M2504.9,-36C2504.9,-36 2463.38,-36 2463.38,-36 2457.38,-36 2451.38,-30 2451.38,-24 2451.38,-24 2451.38,-12 2451.38,-12 2451.38,-6 2457.38,0 2463.38,0 2463.38,0 2504.9,0 2504.9,0 2510.9,0 2516.9,-6 2516.9,-12 2516.9,-12 2516.9,-24 2516.9,-24 2516.9,-30 2510.9,-36 2504.9,-36"/>
<text xml:space="preserve" text-anchor="middle" x="2484.14" y="-14.5" font-family="Helvetica,sans-Serif" font-size="10.00">Arden Rhyle</text>
</g>
<!-- u12&#45;&gt;p73 -->
<g id="edge96" class="edge">
<title>u12&#45;&gt;p73</title>
<path fill="none" stroke="#555555" d="M2379.21,-138.91C2381.61,-136.17 2440.33,-69.06 2468.86,-36.46"/>
</g>
<!-- u13&#45;&gt;p55 -->
<g id="edge28" class="edge">
<title>u13&#45;&gt;p55</title>
<path fill="none" stroke="#ffb6c6" d="M4691.67,-140C4695.01,-140 4712.8,-140 4712.8,-140 4712.8,-140 4720.44,-140 4726.65,-140"/>
</g>
<!-- p83 -->
<g id="node107" class="node">
<title>p83</title>
<path fill="#ffd6e7" stroke="black" d="M4706.14,-36C4706.14,-36 4676.14,-36 4676.14,-36 4670.14,-36 4664.14,-30 4664.14,-24 4664.14,-24 4664.14,-12 4664.14,-12 4664.14,-6 4670.14,0 4676.14,0 4676.14,0 4706.14,0 4706.14,0 4712.14,0 4718.14,-6 4718.14,-12 4718.14,-12 4718.14,-24 4718.14,-24 4718.14,-30 4712.14,-36 4706.14,-36"/>
<text xml:space="preserve" text-anchor="middle" x="4691.14" y="-14.5" font-family="Helvetica,sans-Serif" font-size="10.00">Zoe Alto</text>
</g>
<!-- u13&#45;&gt;p83 -->
<g id="edge106" class="edge">
<title>u13&#45;&gt;p83</title>
<path fill="none" stroke="#555555" d="M4691.14,-138.91C4691.14,-136.17 4691.14,-69.06 4691.14,-36.46"/>
</g>
<!-- u14&#45;&gt;p33 -->
<g id="edge30" class="edge">
<title>u14&#45;&gt;p33</title>
<path fill="none" stroke="#ffb6c6" d="M3048.84,-140C3053.2,-140 3076.47,-140 3076.47,-140 3076.47,-140 3079.82,-140 3084.21,-140"/>
</g>
<!-- p67 -->
<g id="node91" class="node">
<title>p67</title>
<path fill="#cfe8ff" stroke="black" d="M3081.65,-36C3081.65,-36 3014.62,-36 3014.62,-36 3008.62,-36 3002.62,-30 3002.62,-24 3002.62,-24 3002.62,-12 3002.62,-12 3002.62,-6 3008.62,0 3014.62,0 3014.62,0 3081.65,0 3081.65,0 3087.65,0 3093.65,-6 3093.65,-12 3093.65,-12 3093.65,-24 3093.65,-24 3093.65,-30 3087.65,-36 3081.65,-36"/>
<text xml:space="preserve" text-anchor="middle" x="3048.14" y="-14.5" font-family="Helvetica,sans-Serif" font-size="10.00">Noah Michael Alto</text>
</g>
<!-- u14&#45;&gt;p67 -->
<g id="edge90" class="edge">
<title>u14&#45;&gt;p67</title>
<path fill="none" stroke="#555555" d="M3048.14,-138.91C3048.14,-136.17 3048.14,-69.06 3048.14,-36.46"/>
</g>
<!-- u15&#45;&gt;p38 -->
<g id="edge32" class="edge">
<title>u15&#45;&gt;p38</title>
<path fill="none" stroke="#ffb6c6" d="M3645.72,-140C3649.36,-140 3668.8,-140 3668.8,-140 3668.8,-140 3674.72,-140 3680.64,-140"/>
</g>
<!-- u16&#45;&gt;p29 -->
<g id="edge34" class="edge">
<title>u16&#45;&gt;p29</title>
<path fill="none" stroke="#ffb6c6" d="M870.79,-140C874.84,-140 896.47,-140 896.47,-140 896.47,-140 900.81,-140 905.98,-140"/>
</g>
<!-- p64 -->
<g id="node88" class="node">
<title>p64</title>
<path fill="#cfe8ff" stroke="black" d="M891.64,-36C891.64,-36 848.62,-36 848.62,-36 842.62,-36 836.62,-30 836.62,-24 836.62,-24 836.62,-12 836.62,-12 836.62,-6 842.62,0 848.62,0 848.62,0 891.64,0 891.64,0 897.64,0 903.64,-6 903.64,-12 903.64,-12 903.64,-24 903.64,-24 903.64,-30 897.64,-36 891.64,-36"/>
<text xml:space="preserve" text-anchor="middle" x="870.13" y="-14.5" font-family="Helvetica,sans-Serif" font-size="10.00">Brandon Alto</text>
</g>
<!-- u16&#45;&gt;p64 -->
<g id="edge87" class="edge">
<title>u16&#45;&gt;p64</title>
<path fill="none" stroke="#555555" d="M870.13,-138.91C870.13,-136.17 870.13,-69.06 870.13,-36.46"/>
</g>
<!-- u17&#45;&gt;p25 -->
<g id="edge36" class="edge">
<title>u17&#45;&gt;p25</title>
<path fill="none" stroke="#ffb6c6" d="M4451.74,-140C4455.48,-140 4475.47,-140 4475.47,-140 4475.47,-140 4480.99,-140 4486.78,-140"/>
</g>
<!-- p61 -->
<g id="node85" class="node">
<title>p61</title>
<path fill="#ffd6e7" stroke="black" d="M4483.52,-36C4483.52,-36 4418.75,-36 4418.75,-36 4412.75,-36 4406.75,-30 4406.75,-24 4406.75,-24 4406.75,-12 4406.75,-12 4406.75,-6 4412.75,0 4418.75,0 4418.75,0 4483.52,0 4483.52,0 4489.52,0 4495.52,-6 4495.52,-12 4495.52,-12 4495.52,-24 4495.52,-24 4495.52,-30 4489.52,-36 4483.52,-36"/>
<text xml:space="preserve" text-anchor="middle" x="4451.14" y="-14.5" font-family="Helvetica,sans-Serif" font-size="10.00">Ava Margaux Alto</text>
</g>
<!-- u17&#45;&gt;p61 -->
<g id="edge84" class="edge">
<title>u17&#45;&gt;p61</title>
<path fill="none" stroke="#555555" d="M4451.14,-138.91C4451.14,-136.17 4451.14,-69.06 4451.14,-36.46"/>
</g>
<!-- u18&#45;&gt;p47 -->
<g id="edge38" class="edge">
<title>u18&#45;&gt;p47</title>
<path fill="none" stroke="#ffb6c6" d="M2681.74,-140C2685.54,-140 2705.8,-140 2705.8,-140 2705.8,-140 2711.04,-140 2716.69,-140"/>
</g>
<!-- p74 -->
<g id="node98" class="node">
<title>p74</title>
<path fill="#ffd6e7" stroke="black" d="M2707.15,-36C2707.15,-36 2655.12,-36 2655.12,-36 2649.12,-36 2643.12,-30 2643.12,-24 2643.12,-24 2643.12,-12 2643.12,-12 2643.12,-6 2649.12,0 2655.12,0 2655.12,0 2707.15,0 2707.15,0 2713.15,0 2719.15,-6 2719.15,-12 2719.15,-12 2719.15,-24 2719.15,-24 2719.15,-30 2713.15,-36 2707.15,-36"/>
<text xml:space="preserve" text-anchor="middle" x="2681.14" y="-14.5" font-family="Helvetica,sans-Serif" font-size="10.00">Janiyah Obilex</text>
</g>
<!-- u18&#45;&gt;p74 -->
<g id="edge97" class="edge">
<title>u18&#45;&gt;p74</title>
<path fill="none" stroke="#555555" d="M2681.14,-138.91C2681.14,-136.17 2681.14,-69.06 2681.14,-36.46"/>
</g>
<!-- u19&#45;&gt;p57 -->
<g id="edge40" class="edge">
<title>u19&#45;&gt;p57</title>
<path fill="none" stroke="#ffb6c6" d="M1558.91,-140C1563.73,-140 1589.47,-140 1589.47,-140 1589.47,-140 1591.43,-140 1594.36,-140"/>
</g>
<!-- u20&#45;&gt;p44 -->
<g id="edge42" class="edge">
<title>u20&#45;&gt;p44</title>
<path fill="none" stroke="#ffb6c6" d="M632.74,-140C636.54,-140 656.8,-140 656.8,-140 656.8,-140 662.4,-140 668.27,-140"/>
</g>
<!-- u21&#45;&gt;p52 -->
<g id="edge44" class="edge">
<title>u21&#45;&gt;p52</title>
<path fill="none" stroke="#ffb6c6" d="M4933.68,-140C4937.07,-140 4955.14,-140 4955.14,-140 4955.14,-140 4962.69,-140 4968.94,-140"/>
</g>
<!-- p80 -->
<g id="node104" class="node">
<title>p80</title>
<path fill="#ffd6e7" stroke="black" d="M5073.15,-36C5073.15,-36 5021.12,-36 5021.12,-36 5015.12,-36 5009.12,-30 5009.12,-24 5009.12,-24 5009.12,-12 5009.12,-12 5009.12,-6 5015.12,0 5021.12,0 5021.12,0 5073.15,0 5073.15,0 5079.15,0 5085.15,-6 5085.15,-12 5085.15,-12 5085.15,-24 5085.15,-24 5085.15,-30 5079.15,-36 5073.15,-36"/>
<text xml:space="preserve" text-anchor="middle" x="5047.14" y="-14.5" font-family="Helvetica,sans-Serif" font-size="10.00">Alexis Mei Lim</text>
</g>
<!-- u21&#45;&gt;p80 -->
<g id="edge103" class="edge">
<title>u21&#45;&gt;p80</title>
<path fill="none" stroke="#555555" d="M4933.22,-138.91C4935.83,-136.17 4999.58,-69.06 5030.55,-36.46"/>
</g>
<!-- p81 -->
<g id="node105" class="node">
<title>p81</title>
<path fill="#ffd6e7" stroke="black" d="M4845.02,-36C4845.02,-36 4789.25,-36 4789.25,-36 4783.25,-36 4777.25,-30 4777.25,-24 4777.25,-24 4777.25,-12 4777.25,-12 4777.25,-6 4783.25,0 4789.25,0 4789.25,0 4845.02,0 4845.02,0 4851.02,0 4857.02,-6 4857.02,-12 4857.02,-12 4857.02,-24 4857.02,-24 4857.02,-30 4851.02,-36 4845.02,-36"/>
<text xml:space="preserve" text-anchor="middle" x="4817.14" y="-14.5" font-family="Helvetica,sans-Serif" font-size="10.00">Samara Jia Lim</text>
</g>
<!-- u21&#45;&gt;p81 -->
<g id="edge104" class="edge">
<title>u21&#45;&gt;p81</title>
<path fill="none" stroke="#555555" d="M4933.05,-138.91C4930.4,-136.17 4865.53,-69.06 4834.01,-36.46"/>
</g>
<!-- p82 -->
<g id="node106" class="node">
<title>p82</title>
<path fill="#ffd6e7" stroke="black" d="M4961.4,-36C4961.4,-36 4904.88,-36 4904.88,-36 4898.88,-36 4892.88,-30 4892.88,-24 4892.88,-24 4892.88,-12 4892.88,-12 4892.88,-6 4898.88,0 4904.88,0 4904.88,0 4961.4,0 4961.4,0 4967.4,0 4973.4,-6 4973.4,-12 4973.4,-12 4973.4,-24 4973.4,-24 4973.4,-30 4967.4,-36 4961.4,-36"/>
<text xml:space="preserve" text-anchor="middle" x="4933.14" y="-14.5" font-family="Helvetica,sans-Serif" font-size="10.00">Tamsyn Jie Lim</text>
</g>
<!-- u21&#45;&gt;p82 -->
<g id="edge105" class="edge">
<title>u21&#45;&gt;p82</title>
<path fill="none" stroke="#555555" d="M4933.14,-138.91C4933.14,-136.17 4933.14,-69.06 4933.14,-36.46"/>
</g>
<!-- u22&#45;&gt;p40 -->
<g id="edge46" class="edge">
<title>u22&#45;&gt;p40</title>
<path fill="none" stroke="#ffb6c6" d="M468.81,-140C473.02,-140 495.47,-140 495.47,-140 495.47,-140 499.15,-140 503.82,-140"/>
</g>
<!-- p71 -->
<g id="node95" class="node">
<title>p71</title>
<path fill="#ffd6e7" stroke="black" d="M499.02,-36C499.02,-36 437.25,-36 437.25,-36 431.25,-36 425.25,-30 425.25,-24 425.25,-24 425.25,-12 425.25,-12 425.25,-6 431.25,0 437.25,0 437.25,0 499.02,0 499.02,0 505.02,0 511.02,-6 511.02,-12 511.02,-12 511.02,-24 511.02,-24 511.02,-30 505.02,-36 499.02,-36"/>
<text xml:space="preserve" text-anchor="middle" x="468.13" y="-14.5" font-family="Helvetica,sans-Serif" font-size="10.00">Dianne Joy Zano</text>
</g>
<!-- u22&#45;&gt;p71 -->
<g id="edge94" class="edge">
<title>u22&#45;&gt;p71</title>
<path fill="none" stroke="#555555" d="M468.13,-138.91C468.13,-136.17 468.13,-69.06 468.13,-36.46"/>
</g>
<!-- u23&#45;&gt;p31 -->
<g id="edge48" class="edge">
<title>u23&#45;&gt;p31</title>
<path fill="none" stroke="#ffb6c6" d="M1146.76,-140C1150.66,-140 1171.47,-140 1171.47,-140 1171.47,-140 1176.67,-140 1182.36,-140"/>
</g>
<!-- p65 -->
<g id="node89" class="node">
<title>p65</title>
<path fill="#cfe8ff" stroke="black" d="M1241.39,-36C1241.39,-36 1172.88,-36 1172.88,-36 1166.88,-36 1160.88,-30 1160.88,-24 1160.88,-24 1160.88,-12 1160.88,-12 1160.88,-6 1166.88,0 1172.88,0 1172.88,0 1241.39,0 1241.39,0 1247.39,0 1253.39,-6 1253.39,-12 1253.39,-12 1253.39,-24 1253.39,-24 1253.39,-30 1247.39,-36 1241.39,-36"/>
<text xml:space="preserve" text-anchor="middle" x="1207.13" y="-14.5" font-family="Helvetica,sans-Serif" font-size="10.00">Harold Wilson Alto</text>
</g>
<!-- u23&#45;&gt;p65 -->
<g id="edge88" class="edge">
<title>u23&#45;&gt;p65</title>
<path fill="none" stroke="#555555" d="M1146.18,-138.91C1147.58,-136.17 1181.69,-69.06 1198.26,-36.46"/>
</g>
<!-- p66 -->
<g id="node90" class="node">
<title>p66</title>
<path fill="#ffd6e7" stroke="black" d="M1113.02,-36C1113.02,-36 1057.25,-36 1057.25,-36 1051.25,-36 1045.25,-30 1045.25,-24 1045.25,-24 1045.25,-12 1045.25,-12 1045.25,-6 1051.25,0 1057.25,0 1057.25,0 1113.02,0 1113.02,0 1119.02,0 1125.02,-6 1125.02,-12 1125.02,-12 1125.02,-24 1125.02,-24 1125.02,-30 1119.02,-36 1113.02,-36"/>
<text xml:space="preserve" text-anchor="middle" x="1085.13" y="-14.5" font-family="Helvetica,sans-Serif" font-size="10.00">Sophia Joy Alto</text>
</g>
<!-- u23&#45;&gt;p66 -->
<g id="edge89" class="edge">
<title>u23&#45;&gt;p66</title>
<path fill="none" stroke="#555555" d="M1146.09,-138.91C1144.69,-136.17 1110.58,-69.06 1094.01,-36.46"/>
</g>
</g>
</svg>
