<?xml version="1.0" encoding="UTF-8" standalone="no"?>
<!DOCTYPE svg PUBLIC "-//W3C//DTD SVG 1.1//EN"
 "http://www.w3.org/Graphics/SVG/1.1/DTD/svg11.dtd">
<!-- Generated by graphviz version 14.1.1 (20251213.1925)
 -->
<!-- Title: DescendantTree Pages: 1 -->
<svg width="4850pt" height="410pt"
 viewBox="0.00 0.00 4850.00 410.00" xmlns="http://www.w3.org/2000/svg" xmlns:xlink="http://www.w3.org/1999/xlink">
<g id="graph0" class="graph" transform="scale(1 1) rotate(0) translate(4 406)">
<title>DescendantTree</title>
<polygon fill="white" stroke="none" points="-4,4 -4,-406 4845.77,-406 4845.77,4 -4,4"/>
<!-- p1 -->
<g id="node1" class="node">
<title>p1</title>
<path fill="#cfe8ff" stroke="black" d="M2279.77,-402C2279.77,-402 2238.25,-402 2238.25,-402 2232.25,-402 2226.25,-396 2226.25,-390 2226.25,-390 2226.25,-378 2226.25,-378 2226.25,-372 2232.25,-366 2238.25,-366 2238.25,-366 2279.77,-366 2279.77,-366 2285.77,-366 2291.77,-372 2291.77,-378 2291.77,-378 2291.77,-390 2291.77,-390 2291.77,-396 2285.77,-402 2279.77,-402"/>
<text xml:space="preserve" text-anchor="middle" x="2259.01" y="-380.5" font-family="Helvetica,sans-Serif" font-size="10.00">Jose G. Alto</text>
</g>
<!-- p2 -->
<g id="node2" class="node">
<title>p2</title>
<path fill="#ffd6e7" stroke="black" d="M2141.9,-402C2141.9,-402 2092.12,-402 2092.12,-402 2086.12,-402 2080.12,-396 2080.12,-390 2080.12,-390 2080.12,-378 2080.12,-378 2080.12,-372 2086.12,-366 2092.12,-366 2092.12,-366 2141.9,-366 2141.9,-366 2147.9,-366 2153.9,-372 2153.9,-378 2153.9,-378 2153.9,-390 2153.9,-390 2153.9,-396 2147.9,-402 2141.9,-402"/>
<text xml:space="preserve" text-anchor="middle" x="2117.01" y="-380.5" font-family="Helvetica,sans-Serif" font-size="10.00">Josefa D. Alto</text>
</g>
<!-- u0 -->
<g id="node3" class="node">
<title>u0</title>
<ellipse fill="#f9f9f9" stroke="black" cx="2190.01" cy="-384" rx="0.36" ry="0.36"/>
</g>
<!-- p2&#45;&gt;u0 -->
<g id="edge1" class="edge">
<title>p2&#45;&gt;u0</title>
<path fill="none" stroke="#ffb6c6" d="M2154.36,-384C2160.15,-384 2165.68,-384 2165.68,-384 2165.68,-384 2185.66,-384 2189.41,-384"/>
</g>
<!-- u0&#45;&gt;p1 -->
<g id="edge2" class="edge">
<title>u0&#45;&gt;p1</title>
<path fill="none" stroke="#ffb6c6" d="M2190.58,-384C2194.12,-384 2213.01,-384 2213.01,-384 2213.01,-384 2219.69,-384 2225.85,-384"/>
</g>
<!-- p13 -->
<g id="node5" class="node">
<title>p13</title>
<path fill="#ffd6e7" stroke="black" d="M234.77,-280C234.77,-280 187.25,-280 187.25,-280 181.25,-280 175.25,-274 175.25,-268 175.25,-268 175.25,-256 175.25,-256 175.25,-250 181.25,-244 187.25,-244 187.25,-244 234.77,-244 234.77,-244 240.77,-244 246.77,-250 246.77,-256 246.77,-256 246.77,-268 246.77,-268 246.77,-274 240.77,-280 234.77,-280"/>
<text xml:space="preserve" text-anchor="middle" x="211.01" y="-258.5" font-family="Helvetica,sans-Serif" font-size="10.00">Lydia A. Zano</text>
</g>
<!-- u0&#45;&gt;p13 -->
<g id="edge52" class="edge">
<title>u0&#45;&gt;p13</title>
<path fill="none" stroke="#555555" d="M2189.96,-382.95C2188.9,-381.95 2172.01,-366 2172.01,-366 2172.01,-366 265.01,-280 265.01,-280 265.01,-280 256.93,-277.46 247.03,-274.34"/>
</g>
<!-- p8 -->
<g id="node6" class="node">
<title>p8</title>
<path fill="#cfe8ff" stroke="black" d="M1021.39,-280C1021.39,-280 974.62,-280 974.62,-280 968.62,-280 962.62,-274 962.62,-268 962.62,-268 962.62,-256 962.62,-256 962.62,-250 968.62,-244 974.62,-244 974.62,-244 1021.39,-244 1021.39,-244 1027.39,-244 1033.39,-250 1033.39,-256 1033.39,-256 1033.39,-268 1033.39,-268 1033.39,-274 1027.39,-280 1021.39,-280"/>
<text xml:space="preserve" text-anchor="middle" x="998.01" y="-258.5" font-family="Helvetica,sans-Serif" font-size="10.00">Jesse D. Alto</text>
</g>
<!-- u0&#45;&gt;p8 -->
<g id="edge50" class="edge">
<title>u0&#45;&gt;p8</title>
<path fill="none" stroke="#555555" d="M2189.96,-382.95C2188.9,-381.95 2172.01,-366 2172.01,-366 2172.01,-366 1052.01,-280 1052.01,-280 1052.01,-280 1043.77,-277.41 1033.73,-274.24"/>
</g>
<!-- p19 -->
<g id="node9" class="node">
<title>p19</title>
<path fill="#ffd6e7" stroke="black" d="M1401.02,-280C1401.02,-280 1319,-280 1319,-280 1313,-280 1307,-274 1307,-268 1307,-268 1307,-256 1307,-256 1307,-250 1313,-244 1319,-244 1319,-244 1401.02,-244 1401.02,-244 1407.02,-244 1413.02,-250 1413.02,-256 1413.02,-256 1413.02,-268 1413.02,-268 1413.02,-274 1407.02,-280 1401.02,-280"/>
<text xml:space="preserve" text-anchor="middle" x="1360.01" y="-258.5" font-family="Helvetica,sans-Serif" font-size="10.00">Linda A. Wongbandue</text>
</g>
<!-- u0&#45;&gt;p19 -->
<g id="edge55" class="edge">
<title>u0&#45;&gt;p19</title>
<path fill="none" stroke="#555555" d="M2189.96,-382.95C2188.9,-381.95 2172.01,-366 2172.01,-366 2172.01,-366 1431.01,-280 1431.01,-280 1431.01,-280 1423.55,-278.21 1413.46,-275.8"/>
</g>
<!-- p4 -->
<g id="node10" class="node">
<title>p4</title>
<path fill="#cfe8ff" stroke="black" d="M1702.89,-280C1702.89,-280 1647.12,-280 1647.12,-280 1641.12,-280 1635.12,-274 1635.12,-268 1635.12,-268 1635.12,-256 1635.12,-256 1635.12,-250 1641.12,-244 1647.12,-244 1647.12,-244 1702.89,-244 1702.89,-244 1708.89,-244 1714.89,-250 1714.89,-256 1714.89,-256 1714.89,-268 1714.89,-268 1714.89,-274 1708.89,-280 1702.89,-280"/>
<text xml:space="preserve" text-anchor="middle" x="1675.01" y="-258.5" font-family="Helvetica,sans-Serif" font-size="10.00">Jose D. Alto Jr.</text>
</g>
<!-- u0&#45;&gt;p4 -->
<g id="edge48" class="edge">
<title>u0&#45;&gt;p4</title>
<path fill="none" stroke="#555555" d="M2189.96,-382.95C2188.9,-381.95 2172.01,-366 2172.01,-366 2172.01,-366 1733.01,-280 1733.01,-280 1733.01,-280 1725.19,-277.71 1715.29,-274.81"/>
</g>
<!-- p14 -->
<g id="node12" class="node">
<title>p14</title>
<path fill="#cfe8ff" stroke="black" d="M2213.4,-280C2213.4,-280 2166.62,-280 2166.62,-280 2160.62,-280 2154.62,-274 2154.62,-268 2154.62,-268 2154.62,-256 2154.62,-256 2154.62,-250 2160.62,-244 2166.62,-244 2166.62,-244 2213.4,-244 2213.4,-244 2219.4,-244 2225.4,-250 2225.4,-256 2225.4,-256 2225.4,-268 2225.4,-268 2225.4,-274 2219.4,-280 2213.4,-280"/>
<text xml:space="preserve" text-anchor="middle" x="2190.01" y="-258.5" font-family="Helvetica,sans-Serif" font-size="10.00">Josue D. Alto</text>
</g>
<!-- u0&#45;&gt;p14 -->
<g id="edge53" class="edge">
<title>u0&#45;&gt;p14</title>
<path fill="none" stroke="#555555" d="M2190.01,-382.91C2190.01,-380.17 2190.01,-313.06 2190.01,-280.46"/>
</g>
<!-- p10 -->
<g id="node14" class="node">
<title>p10</title>
<path fill="#cfe8ff" stroke="black" d="M2719.9,-280C2719.9,-280 2670.12,-280 2670.12,-280 2664.12,-280 2658.12,-274 2658.12,-268 2658.12,-268 2658.12,-256 2658.12,-256 2658.12,-250 2664.12,-244 2670.12,-244 2670.12,-244 2719.9,-244 2719.9,-244 2725.9,-244 2731.9,-250 2731.9,-256 2731.9,-256 2731.9,-268 2731.9,-268 2731.9,-274 2725.9,-280 2719.9,-280"/>
<text xml:space="preserve" text-anchor="middle" x="2695.01" y="-258.5" font-family="Helvetica,sans-Serif" font-size="10.00">Jimmy D. Alto</text>
</g>
<!-- u0&#45;&gt;p10 -->
<g id="edge51" class="edge">
<title>u0&#45;&gt;p10</title>
<path fill="none" stroke="#555555" d="M2190.06,-382.95C2191.12,-381.95 2208.01,-366 2208.01,-366 2208.01,-366 2544.36,-294.86 2658.01,-270.83"/>
</g>
<!-- p6 -->
<g id="node16" class="node">
<title>p6</title>
<path fill="#cfe8ff" stroke="black" d="M3503.15,-280C3503.15,-280 3466.88,-280 3466.88,-280 3460.88,-280 3454.88,-274 3454.88,-268 3454.88,-268 3454.88,-256 3454.88,-256 3454.88,-250 3460.88,-244 3466.88,-244 3466.88,-244 3503.15,-244 3503.15,-244 3509.15,-244 3515.15,-250 3515.15,-256 3515.15,-256 3515.15,-268 3515.15,-268 3515.15,-274 3509.15,-280 3503.15,-280"/>
<text xml:space="preserve" text-anchor="middle" x="3485.01" y="-258.5" font-family="Helvetica,sans-Serif" font-size="10.00">Job D. Alto</text>
</g>
<!-- u0&#45;&gt;p6 -->
<g id="edge49" class="edge">
<title>u0&#45;&gt;p6</title>
<path fill="none" stroke="#555555" d="M2190.06,-382.95C2191.12,-381.95 2208.01,-366 2208.01,-366 2208.01,-366 3260.19,-281.13 3454.39,-265.47"/>
</g>
<!-- p16 -->
<g id="node18" class="node">
<title>p16</title>
<path fill="#cfe8ff" stroke="black" d="M4191.02,-280C4191.02,-280 4139,-280 4139,-280 4133,-280 4127,-274 4127,-268 4127,-268 4127,-256 4127,-256 4127,-250 4133,-244 4139,-244 4139,-244 4191.02,-244 4191.02,-244 4197.02,-244 4203.02,-250 4203.02,-256 4203.02,-256 4203.02,-268 4203.02,-268 4203.02,-274 4197.02,-280 4191.02,-280"/>
<text xml:space="preserve" text-anchor="middle" x="4165.01" y="-258.5" font-family="Helvetica,sans-Serif" font-size="10.00">Joseph D. Alto</text>
</g>
<!-- u0&#45;&gt;p16 -->
<g id="edge54" class="edge">
<title>u0&#45;&gt;p16</title>
<path fill="none" stroke="#555555" d="M2190.06,-382.95C2191.12,-381.95 2208.01,-366 2208.01,-366 2208.01,-366 3843.01,-280 3843.01,-280 3843.01,-280 4041.51,-269.52 4126.81,-265.02"/>
</g>
<!-- p3 -->
<g id="node20" class="node">
<title>p3</title>
<path fill="#ffd6e7" stroke="black" d="M4572.52,-280C4572.52,-280 4523.5,-280 4523.5,-280 4517.5,-280 4511.5,-274 4511.5,-268 4511.5,-268 4511.5,-256 4511.5,-256 4511.5,-250 4517.5,-244 4523.5,-244 4523.5,-244 4572.52,-244 4572.52,-244 4578.52,-244 4584.52,-250 4584.52,-256 4584.52,-256 4584.52,-268 4584.52,-268 4584.52,-274 4578.52,-280 4572.52,-280"/>
<text xml:space="preserve" text-anchor="middle" x="4548.01" y="-258.5" font-family="Helvetica,sans-Serif" font-size="10.00">Leticia D. Alto</text>
</g>
<!-- u0&#45;&gt;p3 -->
<g id="edge47" class="edge">
<title>u0&#45;&gt;p3</title>
<path fill="none" stroke="#555555" d="M2190.06,-382.95C2191.12,-381.95 2208.01,-366 2208.01,-366 2208.01,-366 4494.01,-280 4494.01,-280 4494.01,-280 4501.6,-277.61 4511.1,-274.62"/>
</g>
<!-- p12 -->
<g id="node4" class="node">
<title>p12</title>
<path fill="#cfe8ff" stroke="black" d="M364.27,-280C364.27,-280 331.75,-280 331.75,-280 325.75,-280 319.75,-274 319.75,-268 319.75,-268 319.75,-256 319.75,-256 319.75,-250 325.75,-244 331.75,-244 331.75,-244 364.27,-244 364.27,-244 370.27,-244 376.27,-250 376.27,-256 376.27,-256 376.27,-268 376.27,-268 376.27,-274 370.27,-280 364.27,-280"/>
<text xml:space="preserve" text-anchor="middle" x="348.01" y="-258.5" font-family="Helvetica,sans-Serif" font-size="10.00">Raul Zano</text>
</g>
<!-- u1 -->
<g id="node21" class="node">
<title>u1</title>
<ellipse fill="#f9f9f9" stroke="black" cx="283.01" cy="-262" rx="0.36" ry="0.36"/>
</g>
<!-- p13&#45;&gt;u1 -->
<g id="edge3" class="edge">
<title>p13&#45;&gt;u1</title>
<path fill="none" stroke="#ffb6c6" d="M247.01,-262C253.01,-262 259.01,-262 259.01,-262 259.01,-262 278.72,-262 282.42,-262"/>
</g>
<!-- u2 -->
<g id="node22" class="node">
<title>u2</title>
<ellipse fill="#f9f9f9" stroke="black" cx="1070.01" cy="-262" rx="0.36" ry="0.36"/>
</g>
<!-- p8&#45;&gt;u2 -->
<g id="edge5" class="edge">
<title>p8&#45;&gt;u2</title>
<path fill="none" stroke="#ffb6c6" d="M1033.73,-262C1039.82,-262 1046.01,-262 1046.01,-262 1046.01,-262 1065.72,-262 1069.42,-262"/>
</g>
<!-- p9 -->
<g id="node7" class="node">
<title>p9</title>
<path fill="#ffd6e7" stroke="black" d="M1172.14,-280C1172.14,-280 1117.88,-280 1117.88,-280 1111.88,-280 1105.88,-274 1105.88,-268 1105.88,-268 1105.88,-256 1105.88,-256 1105.88,-250 1111.88,-244 1117.88,-244 1117.88,-244 1172.14,-244 1172.14,-244 1178.14,-244 1184.14,-250 1184.14,-256 1184.14,-256 1184.14,-268 1184.14,-268 1184.14,-274 1178.14,-280 1172.14,-280"/>
<text xml:space="preserve" text-anchor="middle" x="1145.01" y="-258.5" font-family="Helvetica,sans-Serif" font-size="10.00">Michelle L. Alto</text>
</g>
<!-- p18 -->
<g id="node8" class="node">
<title>p18</title>
<path fill="#cfe8ff" stroke="black" d="M1586.77,-280C1586.77,-280 1497.25,-280 1497.25,-280 1491.25,-280 1485.25,-274 1485.25,-268 1485.25,-268 1485.25,-256 1485.25,-256 1485.25,-250 1491.25,-244 1497.25,-244 1497.25,-244 1586.77,-244 1586.77,-244 1592.77,-244 1598.77,-250 1598.77,-256 1598.77,-256 1598.77,-268 1598.77,-268 1598.77,-274 1592.77,-280 1586.77,-280"/>
<text xml:space="preserve" text-anchor="middle" x="1542.01" y="-258.5" font-family="Helvetica,sans-Serif" font-size="10.00">Thongbue Wongbandue</text>
</g>
<!-- u3 -->
<g id="node23" class="node">
<title>u3</title>
<ellipse fill="#f9f9f9" stroke="black" cx="1449.01" cy="-262" rx="0.36" ry="0.36"/>
</g>
<!-- p19&#45;&gt;u3 -->
<g id="edge7" class="edge">
<title>p19&#45;&gt;u3</title>
<path fill="none" stroke="#ffb6c6" d="M1413.34,-262C1416.86,-262 1419.34,-262 1419.34,-262 1419.34,-262 1443.71,-262 1448.28,-262"/>
</g>
<!-- u4 -->
<g id="node24" class="node">
<title>u4</title>
<ellipse fill="#f9f9f9" stroke="black" cx="1751.01" cy="-262" rx="0.36" ry="0.36"/>
</g>
<!-- p4&#45;&gt;u4 -->
<g id="edge9" class="edge">
<title>p4&#45;&gt;u4</title>
<path fill="none" stroke="#ffb6c6" d="M1715.37,-262C1720.83,-262 1725.68,-262 1725.68,-262 1725.68,-262 1746.48,-262 1750.38,-262"/>
</g>
<!-- p5 -->
<g id="node11" class="node">
<title>p5</title>
<path fill="#ffd6e7" stroke="black" d="M1865.14,-280C1865.14,-280 1798.88,-280 1798.88,-280 1792.88,-280 1786.88,-274 1786.88,-268 1786.88,-268 1786.88,-256 1786.88,-256 1786.88,-250 1792.88,-244 1798.88,-244 1798.88,-244 1865.14,-244 1865.14,-244 1871.14,-244 1877.14,-250 1877.14,-256 1877.14,-256 1877.14,-268 1877.14,-268 1877.14,-274 1871.14,-280 1865.14,-280"/>
<text xml:space="preserve" text-anchor="middle" x="1832.01" y="-258.5" font-family="Helvetica,sans-Serif" font-size="10.00">Clara de Vera Alto</text>
</g>
<!-- u5 -->
<g id="node25" class="node">
<title>u5</title>
<ellipse fill="#f9f9f9" stroke="black" cx="2262.01" cy="-262" rx="0.36" ry="0.36"/>
</g>
<!-- p14&#45;&gt;u5 -->
<g id="edge11" class="edge">
<title>p14&#45;&gt;u5</title>
<path fill="none" stroke="#ffb6c6" d="M2225.73,-262C2231.82,-262 2238.01,-262 2238.01,-262 2238.01,-262 2257.72,-262 2261.42,-262"/>
</g>
<!-- p15 -->
<g id="node13" class="node">
<title>p15</title>
<path fill="#ffd6e7" stroke="black" d="M2355.27,-280C2355.27,-280 2310.75,-280 2310.75,-280 2304.75,-280 2298.75,-274 2298.75,-268 2298.75,-268 2298.75,-256 2298.75,-256 2298.75,-250 2304.75,-244 2310.75,-244 2310.75,-244 2355.27,-244 2355.27,-244 2361.27,-244 2367.27,-250 2367.27,-256 2367.27,-256 2367.27,-268 2367.27,-268 2367.27,-274 2361.27,-280 2355.27,-280"/>
<text xml:space="preserve" text-anchor="middle" x="2333.01" y="-258.5" font-family="Helvetica,sans-Serif" font-size="10.00">Angelina Alto</text>
</g>
<!-- u6 -->
<g id="node26" class="node">
<title>u6</title>
<ellipse fill="#f9f9f9" stroke="black" cx="3120.01" cy="-262" rx="0.36" ry="0.36"/>
</g>
<!-- p10&#45;&gt;u6 -->
<g id="edge13" class="edge">
<title>p10&#45;&gt;u6</title>
<path fill="none" stroke="#ffb6c6" d="M2732.23,-262C2774.2,-262 2836.68,-262 2836.68,-262 2836.68,-262 2978.34,-262 2978.34,-262 2978.34,-262 3111.29,-262 3119.6,-262"/>
</g>
<!-- p11 -->
<g id="node15" class="node">
<title>p11</title>
<path fill="#ffd6e7" stroke="black" d="M3238.02,-280C3238.02,-280 3168,-280 3168,-280 3162,-280 3156,-274 3156,-268 3156,-268 3156,-256 3156,-256 3156,-250 3162,-244 3168,-244 3168,-244 3238.02,-244 3238.02,-244 3244.02,-244 3250.02,-250 3250.02,-256 3250.02,-256 3250.02,-268 3250.02,-268 3250.02,-274 3244.02,-280 3238.02,-280"/>
<text xml:space="preserve" text-anchor="middle" x="3203.01" y="-258.5" font-family="Helvetica,sans-Serif" font-size="10.00">Ma. Piedad C. Alto</text>
</g>
<!-- u7 -->
<g id="node27" class="node">
<title>u7</title>
<ellipse fill="#f9f9f9" stroke="black" cx="3705.01" cy="-262" rx="0.36" ry="0.36"/>
</g>
<!-- p6&#45;&gt;u7 -->
<g id="edge15" class="edge">
<title>p6&#45;&gt;u7</title>
<path fill="none" stroke="#ffb6c6" d="M3515.26,-262C3535.46,-262 3558.34,-262 3558.34,-262 3558.34,-262 3631.68,-262 3631.68,-262 3631.68,-262 3696.13,-262 3704.19,-262"/>
</g>
<!-- p7 -->
<g id="node17" class="node">
<title>p7</title>
<path fill="#ffd6e7" stroke="black" d="M3812.77,-280C3812.77,-280 3753.25,-280 3753.25,-280 3747.25,-280 3741.25,-274 3741.25,-268 3741.25,-268 3741.25,-256 3741.25,-256 3741.25,-250 3747.25,-244 3753.25,-244 3753.25,-244 3812.77,-244 3812.77,-244 3818.77,-244 3824.77,-250 3824.77,-256 3824.77,-256 3824.77,-268 3824.77,-268 3824.77,-274 3818.77,-280 3812.77,-280"/>
<text xml:space="preserve" text-anchor="middle" x="3783.01" y="-258.5" font-family="Helvetica,sans-Serif" font-size="10.00">Romulita C. Alto</text>
</g>
<!-- u8 -->
<g id="node28" class="node">
<title>u8</title>
<ellipse fill="#f9f9f9" stroke="black" cx="4372.01" cy="-262" rx="0.36" ry="0.36"/>
</g>
<!-- p16&#45;&gt;u8 -->
<g id="edge17" class="edge">
<title>p16&#45;&gt;u8</title>
<path fill="none" stroke="#ffb6c6" d="M4203.14,-262C4219.1,-262 4234.01,-262 4234.01,-262 4234.01,-262 4303.01,-262 4303.01,-262 4303.01,-262 4363.65,-262 4371.24,-262"/>
</g>
<!-- p17 -->
<g id="node19" class="node">
<title>p17</title>
<path fill="#ffd6e7" stroke="black" d="M4463.9,-280C4463.9,-280 4420.12,-280 4420.12,-280 4414.12,-280 4408.12,-274 4408.12,-268 4408.12,-268 4408.12,-256 4408.12,-256 4408.12,-250 4414.12,-244 4420.12,-244 4420.12,-244 4463.9,-244 4463.9,-244 4469.9,-244 4475.9,-250 4475.9,-256 4475.9,-256 4475.9,-268 4475.9,-268 4475.9,-274 4469.9,-280 4463.9,-280"/>
<text xml:space="preserve" text-anchor="middle" x="4442.01" y="-258.5" font-family="Helvetica,sans-Serif" font-size="10.00">Loida H. Alto</text>
</g>
<!-- u1&#45;&gt;p12 -->
<g id="edge4" class="edge">
<title>u1&#45;&gt;p12</title>
<path fill="none" stroke="#ffb6c6" d="M283.55,-262C286.88,-262 304.68,-262 304.68,-262 304.68,-262 313.14,-262 319.49,-262"/>
</g>
<!-- p43 -->
<g id="node49" class="node">
<title>p43</title>
<path fill="#cfe8ff" stroke="black" d="M310.14,-158C310.14,-158 255.88,-158 255.88,-158 249.88,-158 243.88,-152 243.88,-146 243.88,-146 243.88,-134 243.88,-134 243.88,-128 249.88,-122 255.88,-122 255.88,-122 310.14,-122 310.14,-122 316.14,-122 322.14,-128 322.14,-134 322.14,-134 322.14,-146 322.14,-146 322.14,-152 316.14,-158 310.14,-158"/>
<text xml:space="preserve" text-anchor="middle" x="283.01" y="-136.5" font-family="Helvetica,sans-Serif" font-size="10.00">Ryan Joy Zano</text>
</g>
<!-- u1&#45;&gt;p43 -->
<g id="edge71" class="edge">
<title>u1&#45;&gt;p43</title>
<path fill="none" stroke="#555555" d="M283.01,-260.91C283.01,-258.17 283.01,-191.06 283.01,-158.46"/>
</g>
<!-- p39 -->
<g id="node53" class="node">
<title>p39</title>
<path fill="#cfe8ff" stroke="black" d="M420.27,-158C420.27,-158 369.75,-158 369.75,-158 363.75,-158 357.75,-152 357.75,-146 357.75,-146 357.75,-134 357.75,-134 357.75,-128 363.75,-122 369.75,-122 369.75,-122 420.27,-122 420.27,-122 426.27,-122 432.27,-128 432.27,-134 432.27,-134 432.27,-146 432.27,-146 432.27,-152 426.27,-158 420.27,-158"/>
<text xml:space="preserve" text-anchor="middle" x="395.01" y="-136.5" font-family="Helvetica,sans-Serif" font-size="10.00">Reginald Zano</text>
</g>
<!-- u1&#45;&gt;p39 -->
<g id="edge68" class="edge">
<title>u1&#45;&gt;p39</title>
<path fill="none" stroke="#555555" d="M283.09,-260.91C285.65,-258.17 348.28,-191.06 378.71,-158.46"/>
</g>
<!-- p41 -->
<g id="node62" class="node">
<title>p41</title>
<path fill="#cfe8ff" stroke="black" d="M82.02,-158C82.02,-158 12,-158 12,-158 6,-158 0,-152 0,-146 0,-146 0,-134 0,-134 0,-128 6,-122 12,-122 12,-122 82.02,-122 82.02,-122 88.02,-122 94.02,-128 94.02,-134 94.02,-134 94.02,-146 94.02,-146 94.02,-152 88.02,-158 82.02,-158"/>
<text xml:space="preserve" text-anchor="middle" x="47.01" y="-136.5" font-family="Helvetica,sans-Serif" font-size="10.00">Laurenti Raul Zano</text>
</g>
<!-- u1&#45;&gt;p41 -->
<g id="edge69" class="edge">
<title>u1&#45;&gt;p41</title>
<path fill="none" stroke="#555555" d="M282.96,-260.95C281.9,-259.95 265.01,-244 265.01,-244 265.01,-244 146.19,-187.86 83.99,-158.47"/>
</g>
<!-- p42 -->
<g id="node63" class="node">
<title>p42</title>
<path fill="#cfe8ff" stroke="black" d="M196.14,-158C196.14,-158 141.88,-158 141.88,-158 135.88,-158 129.88,-152 129.88,-146 129.88,-146 129.88,-134 129.88,-134 129.88,-128 135.88,-122 141.88,-122 141.88,-122 196.14,-122 196.14,-122 202.14,-122 208.14,-128 208.14,-134 208.14,-134 208.14,-146 208.14,-146 208.14,-152 202.14,-158 196.14,-158"/>
<text xml:space="preserve" text-anchor="middle" x="169.01" y="-136.5" font-family="Helvetica,sans-Serif" font-size="10.00">Raymond Zano</text>
</g>
<!-- u1&#45;&gt;p42 -->
<g id="edge70" class="edge">
<title>u1&#45;&gt;p42</title>
<path fill="none" stroke="#555555" d="M282.93,-260.91C280.32,-258.17 216.57,-191.06 185.6,-158.46"/>
</g>
<!-- u2&#45;&gt;p9 -->
<g id="edge6" class="edge">
<title>u2&#45;&gt;p9</title>
<path fill="none" stroke="#ffb6c6" d="M1070.63,-262C1074.48,-262 1095.01,-262 1095.01,-262 1095.01,-262 1099.97,-262 1105.47,-262"/>
</g>
<!-- p28 -->
<g id="node43" class="node">
<title>p28</title>
<path fill="#cfe8ff" stroke="black" d="M823.01,-158C823.01,-158 793.01,-158 793.01,-158 787.01,-158 781.01,-152 781.01,-146 781.01,-146 781.01,-134 781.01,-134 781.01,-128 787.01,-122 793.01,-122 793.01,-122 823.01,-122 823.01,-122 829.01,-122 835.01,-128 835.01,-134 835.01,-134 835.01,-146 835.01,-146 835.01,-152 829.01,-158 823.01,-158"/>
<text xml:space="preserve" text-anchor="middle" x="808.01" y="-136.5" font-family="Helvetica,sans-Serif" font-size="10.00">Philo Alto</text>
</g>
<!-- u2&#45;&gt;p28 -->
<g id="edge61" class="edge">
<title>u2&#45;&gt;p28</title>
<path fill="none" stroke="#555555" d="M1069.96,-260.95C1068.84,-259.95 1051.01,-244 1051.01,-244 1051.01,-244 898.96,-179.55 835.41,-152.62"/>
</g>
<!-- p30 -->
<g id="node55" class="node">
<title>p30</title>
<path fill="#cfe8ff" stroke="black" d="M1099.02,-158C1099.02,-158 1041,-158 1041,-158 1035,-158 1029,-152 1029,-146 1029,-146 1029,-134 1029,-134 1029,-128 1035,-122 1041,-122 1041,-122 1099.02,-122 1099.02,-122 1105.02,-122 1111.02,-128 1111.02,-134 1111.02,-134 1111.02,-146 1111.02,-146 1111.02,-152 1105.02,-158 1099.02,-158"/>
<text xml:space="preserve" text-anchor="middle" x="1070.01" y="-136.5" font-family="Helvetica,sans-Serif" font-size="10.00">Washington Alto</text>
</g>
<!-- u2&#45;&gt;p30 -->
<g id="edge62" class="edge">
<title>u2&#45;&gt;p30</title>
<path fill="none" stroke="#555555" d="M1070.01,-260.91C1070.01,-258.17 1070.01,-191.06 1070.01,-158.46"/>
</g>
<!-- u3&#45;&gt;p18 -->
<g id="edge8" class="edge">
<title>u3&#45;&gt;p18</title>
<path fill="none" stroke="#ffb6c6" d="M1449.78,-262C1454.55,-262 1480.01,-262 1480.01,-262 1480.01,-262 1481.95,-262 1484.85,-262"/>
</g>
<!-- p56 -->
<g id="node65" class="node">
<title>p56</title>
<path fill="#cfe8ff" stroke="black" d="M1383.52,-158C1383.52,-158 1310.5,-158 1310.5,-158 1304.5,-158 1298.5,-152 1298.5,-146 1298.5,-146 1298.5,-134 1298.5,-134 1298.5,-128 1304.5,-122 1310.5,-122 1310.5,-122 1383.52,-122 1383.52,-122 1389.52,-122 1395.52,-128 1395.52,-134 1395.52,-134 1395.52,-146 1395.52,-146 1395.52,-152 1389.52,-158 1383.52,-158"/>
<text xml:space="preserve" text-anchor="middle" x="1347.01" y="-136.5" font-family="Helvetica,sans-Serif" font-size="10.00">Jaime Wongbandue</text>
</g>
<!-- u3&#45;&gt;p56 -->
<g id="edge78" class="edge">
<title>u3&#45;&gt;p56</title>
<path fill="none" stroke="#555555" d="M1448.94,-260.91C1446.6,-258.17 1389.56,-191.06 1361.85,-158.46"/>
</g>
<!-- p57 -->
<g id="node66" class="node">
<title>p57</title>
<path fill="#ffd6e7" stroke="black" d="M1510.52,-158C1510.52,-158 1443.5,-158 1443.5,-158 1437.5,-158 1431.5,-152 1431.5,-146 1431.5,-146 1431.5,-134 1431.5,-134 1431.5,-128 1437.5,-122 1443.5,-122 1443.5,-122 1510.52,-122 1510.52,-122 1516.52,-122 1522.52,-128 1522.52,-134 1522.52,-134 1522.52,-146 1522.52,-146 1522.52,-152 1516.52,-158 1510.52,-158"/>
<text xml:space="preserve" text-anchor="middle" x="1477.01" y="-136.5" font-family="Helvetica,sans-Serif" font-size="10.00">Julie Wongbandue</text>
</g>
<!-- u3&#45;&gt;p57 -->
<g id="edge79" class="edge">
<title>u3&#45;&gt;p57</title>
<path fill="none" stroke="#555555" d="M1449.03,-260.91C1449.67,-258.17 1465.33,-191.06 1472.94,-158.46"/>
</g>
<!-- u4&#45;&gt;p5 -->
<g id="edge10" class="edge">
<title>u4&#45;&gt;p5</title>
<path fill="none" stroke="#ffb6c6" d="M1751.68,-262C1755.84,-262 1778.01,-262 1778.01,-262 1778.01,-262 1781.81,-262 1786.55,-262"/>
</g>
<!-- p20 -->
<g id="node57" class="node">
<title>p20</title>
<path fill="#ffd6e7" stroke="black" d="M1629.39,-158C1629.39,-158 1570.62,-158 1570.62,-158 1564.62,-158 1558.62,-152 1558.62,-146 1558.62,-146 1558.62,-134 1558.62,-134 1558.62,-128 1564.62,-122 1570.62,-122 1570.62,-122 1629.39,-122 1629.39,-122 1635.39,-122 1641.39,-128 1641.39,-134 1641.39,-134 1641.39,-146 1641.39,-146 1641.39,-152 1635.39,-158 1629.39,-158"/>
<text xml:space="preserve" text-anchor="middle" x="1600.01" y="-136.5" font-family="Helvetica,sans-Serif" font-size="10.00">Maria Elena Alto</text>
</g>
<!-- u4&#45;&gt;p20 -->
<g id="edge56" class="edge">
<title>u4&#45;&gt;p20</title>
<path fill="none" stroke="#555555" d="M1750.96,-260.95C1749.9,-259.95 1733.01,-244 1733.01,-244 1733.01,-244 1660.52,-187.86 1622.57,-158.47"/>
</g>
<!-- p21 -->
<g id="node58" class="node">
<title>p21</title>
<path fill="#ffd6e7" stroke="black" d="M1758.27,-158C1758.27,-158 1689.75,-158 1689.75,-158 1683.75,-158 1677.75,-152 1677.75,-146 1677.75,-146 1677.75,-134 1677.75,-134 1677.75,-128 1683.75,-122 1689.75,-122 1689.75,-122 1758.27,-122 1758.27,-122 1764.27,-122 1770.27,-128 1770.27,-134 1770.27,-134 1770.27,-146 1770.27,-146 1770.27,-152 1764.27,-158 1758.27,-158"/>
<text xml:space="preserve" text-anchor="middle" x="1724.01" y="-136.5" font-family="Helvetica,sans-Serif" font-size="10.00">Maria Lourdes Alto</text>
</g>
<!-- u4&#45;&gt;p21 -->
<g id="edge57" class="edge">
<title>u4&#45;&gt;p21</title>
<path fill="none" stroke="#555555" d="M1750.99,-260.91C1750.37,-258.17 1735.27,-191.06 1727.94,-158.46"/>
</g>
<!-- u5&#45;&gt;p15 -->
<g id="edge12" class="edge">
<title>u5&#45;&gt;p15</title>
<path fill="none" stroke="#ffb6c6" d="M2262.6,-262C2266.24,-262 2285.68,-262 2285.68,-262 2285.68,-262 2292.16,-262 2298.34,-262"/>
</g>
<!-- p49 -->
<g id="node33" class="node">
<title>p49</title>
<path fill="#cfe8ff" stroke="black" d="M1871.39,-158C1871.39,-158 1818.62,-158 1818.62,-158 1812.62,-158 1806.62,-152 1806.62,-146 1806.62,-146 1806.62,-134 1806.62,-134 1806.62,-128 1812.62,-122 1818.62,-122 1818.62,-122 1871.39,-122 1871.39,-122 1877.39,-122 1883.39,-128 1883.39,-134 1883.39,-134 1883.39,-146 1883.39,-146 1883.39,-152 1877.39,-158 1871.39,-158"/>
<text xml:space="preserve" text-anchor="middle" x="1845.01" y="-136.5" font-family="Helvetica,sans-Serif" font-size="10.00">Joel Adam Alto</text>
</g>
<!-- u5&#45;&gt;p49 -->
<g id="edge74" class="edge">
<title>u5&#45;&gt;p49</title>
<path fill="none" stroke="#555555" d="M2261.96,-260.95C2260.84,-259.95 2243.01,-244 2243.01,-244 2243.01,-244 1902.01,-158 1902.01,-158 1902.01,-158 1893.83,-155.56 1883.66,-152.53"/>
</g>
<!-- p45 -->
<g id="node35" class="node">
<title>p45</title>
<path fill="#cfe8ff" stroke="black" d="M2143.65,-158C2143.65,-158 2080.38,-158 2080.38,-158 2074.38,-158 2068.38,-152 2068.38,-146 2068.38,-146 2068.38,-134 2068.38,-134 2068.38,-128 2074.38,-122 2080.38,-122 2080.38,-122 2143.65,-122 2143.65,-122 2149.65,-122 2155.65,-128 2155.65,-134 2155.65,-134 2155.65,-146 2155.65,-146 2155.65,-152 2149.65,-158 2143.65,-158"/>
<text xml:space="preserve" text-anchor="middle" x="2112.01" y="-136.5" font-family="Helvetica,sans-Serif" font-size="10.00">Joey Andrew Alto</text>
</g>
<!-- u5&#45;&gt;p45 -->
<g id="edge72" class="edge">
<title>u5&#45;&gt;p45</title>
<path fill="none" stroke="#555555" d="M2261.96,-260.95C2260.84,-259.95 2243.01,-244 2243.01,-244 2243.01,-244 2171.61,-187.86 2134.23,-158.47"/>
</g>
<!-- p48 -->
<g id="node48" class="node">
<title>p48</title>
<path fill="#ffd6e7" stroke="black" d="M2445.9,-158C2445.9,-158 2378.12,-158 2378.12,-158 2372.12,-158 2366.12,-152 2366.12,-146 2366.12,-146 2366.12,-134 2366.12,-134 2366.12,-128 2372.12,-122 2378.12,-122 2378.12,-122 2445.9,-122 2445.9,-122 2451.9,-122 2457.9,-128 2457.9,-134 2457.9,-134 2457.9,-146 2457.9,-146 2457.9,-152 2451.9,-158 2445.9,-158"/>
<text xml:space="preserve" text-anchor="middle" x="2412.01" y="-136.5" font-family="Helvetica,sans-Serif" font-size="10.00">Jo Ann Alto&#45;Obilex</text>
</g>
<!-- u5&#45;&gt;p48 -->
<g id="edge73" class="edge">
<title>u5&#45;&gt;p48</title>
<path fill="none" stroke="#555555" d="M2262.06,-260.95C2263.18,-259.95 2281.01,-244 2281.01,-244 2281.01,-244 2352.41,-187.86 2389.79,-158.47"/>
</g>
<!-- p51 -->
<g id="node64" class="node">
<title>p51</title>
<path fill="#ffd6e7" stroke="black" d="M2711.65,-158C2711.65,-158 2654.38,-158 2654.38,-158 2648.38,-158 2642.38,-152 2642.38,-146 2642.38,-146 2642.38,-134 2642.38,-134 2642.38,-128 2648.38,-122 2654.38,-122 2654.38,-122 2711.65,-122 2711.65,-122 2717.65,-122 2723.65,-128 2723.65,-134 2723.65,-134 2723.65,-146 2723.65,-146 2723.65,-152 2717.65,-158 2711.65,-158"/>
<text xml:space="preserve" text-anchor="middle" x="2683.01" y="-136.5" font-family="Helvetica,sans-Serif" font-size="10.00">Jesy Angeli Alto</text>
</g>
<!-- u5&#45;&gt;p51 -->
<g id="edge75" class="edge">
<title>u5&#45;&gt;p51</title>
<path fill="none" stroke="#555555" d="M2262.06,-260.95C2263.18,-259.95 2281.01,-244 2281.01,-244 2281.01,-244 2624.01,-158 2624.01,-158 2624.01,-158 2631.96,-155.71 2642.03,-152.81"/>
</g>
<!-- u6&#45;&gt;p11 -->
<g id="edge14" class="edge">
<title>u6&#45;&gt;p11</title>
<path fill="none" stroke="#ffb6c6" d="M3120.69,-262C3124.95,-262 3147.68,-262 3147.68,-262 3147.68,-262 3151.1,-262 3155.53,-262"/>
</g>
<!-- p32 -->
<g id="node39" class="node">
<title>p32</title>
<path fill="#cfe8ff" stroke="black" d="M2812.4,-158C2812.4,-158 2771.62,-158 2771.62,-158 2765.62,-158 2759.62,-152 2759.62,-146 2759.62,-146 2759.62,-134 2759.62,-134 2759.62,-128 2765.62,-122 2771.62,-122 2771.62,-122 2812.4,-122 2812.4,-122 2818.4,-122 2824.4,-128 2824.4,-134 2824.4,-134 2824.4,-146 2824.4,-146 2824.4,-152 2818.4,-158 2812.4,-158"/>
<text xml:space="preserve" text-anchor="middle" x="2792.01" y="-136.5" font-family="Helvetica,sans-Serif" font-size="10.00">Michael Alto</text>
</g>
<!-- u6&#45;&gt;p32 -->
<g id="edge63" class="edge">
<title>u6&#45;&gt;p32</title>
<path fill="none" stroke="#555555" d="M3119.95,-260.98C3115.9,-259.5 2907.03,-183.08 2824.79,-152.99"/>
</g>
<!-- p37 -->
<g id="node42" class="node">
<title>p37</title>
<path fill="#ffd6e7" stroke="black" d="M3303.02,-158C3303.02,-158 3251,-158 3251,-158 3245,-158 3239,-152 3239,-146 3239,-146 3239,-134 3239,-134 3239,-128 3245,-122 3251,-122 3251,-122 3303.02,-122 3303.02,-122 3309.02,-122 3315.02,-128 3315.02,-134 3315.02,-134 3315.02,-146 3315.02,-146 3315.02,-152 3309.02,-158 3303.02,-158"/>
<text xml:space="preserve" text-anchor="middle" x="3277.01" y="-136.5" font-family="Helvetica,sans-Serif" font-size="10.00">Josalyn &#160;Elliott</text>
</g>
<!-- u6&#45;&gt;p37 -->
<g id="edge67" class="edge">
<title>u6&#45;&gt;p37</title>
<path fill="none" stroke="#555555" d="M3120.06,-260.95C3121.12,-259.95 3138.01,-244 3138.01,-244 3138.01,-244 3213.77,-187.86 3253.43,-158.47"/>
</g>
<!-- p34 -->
<g id="node59" class="node">
<title>p34</title>
<path fill="#cfe8ff" stroke="black" d="M3409.4,-158C3409.4,-158 3362.62,-158 3362.62,-158 3356.62,-158 3350.62,-152 3350.62,-146 3350.62,-146 3350.62,-134 3350.62,-134 3350.62,-128 3356.62,-122 3362.62,-122 3362.62,-122 3409.4,-122 3409.4,-122 3415.4,-122 3421.4,-128 3421.4,-134 3421.4,-134 3421.4,-146 3421.4,-146 3421.4,-152 3415.4,-158 3409.4,-158"/>
<text xml:space="preserve" text-anchor="middle" x="3386.01" y="-136.5" font-family="Helvetica,sans-Serif" font-size="10.00">Lysander Alto</text>
</g>
<!-- u6&#45;&gt;p34 -->
<g id="edge64" class="edge">
<title>u6&#45;&gt;p34</title>
<path fill="none" stroke="#555555" d="M3120.06,-260.95C3121.12,-259.95 3138.01,-244 3138.01,-244 3138.01,-244 3281.53,-184.39 3350.21,-155.87"/>
</g>
<!-- p35 -->
<g id="node60" class="node">
<title>p35</title>
<path fill="#cfe8ff" stroke="black" d="M3093.27,-158C3093.27,-158 3042.75,-158 3042.75,-158 3036.75,-158 3030.75,-152 3030.75,-146 3030.75,-146 3030.75,-134 3030.75,-134 3030.75,-128 3036.75,-122 3042.75,-122 3042.75,-122 3093.27,-122 3093.27,-122 3099.27,-122 3105.27,-128 3105.27,-134 3105.27,-134 3105.27,-146 3105.27,-146 3105.27,-152 3099.27,-158 3093.27,-158"/>
<text xml:space="preserve" text-anchor="middle" x="3068.01" y="-136.5" font-family="Helvetica,sans-Serif" font-size="10.00">Jimmy Jr. Alto</text>
</g>
<!-- u6&#45;&gt;p35 -->
<g id="edge65" class="edge">
<title>u6&#45;&gt;p35</title>
<path fill="none" stroke="#555555" d="M3119.97,-260.91C3118.78,-258.17 3089.7,-191.06 3075.58,-158.46"/>
</g>
<!-- p36 -->
<g id="node61" class="node">
<title>p36</title>
<path fill="#cfe8ff" stroke="black" d="M3190.52,-158C3190.52,-158 3153.5,-158 3153.5,-158 3147.5,-158 3141.5,-152 3141.5,-146 3141.5,-146 3141.5,-134 3141.5,-134 3141.5,-128 3147.5,-122 3153.5,-122 3153.5,-122 3190.52,-122 3190.52,-122 3196.52,-122 3202.52,-128 3202.52,-134 3202.52,-134 3202.52,-146 3202.52,-146 3202.52,-152 3196.52,-158 3190.52,-158"/>
<text xml:space="preserve" text-anchor="middle" x="3172.01" y="-136.5" font-family="Helvetica,sans-Serif" font-size="10.00">Angelo Alto</text>
</g>
<!-- u6&#45;&gt;p36 -->
<g id="edge66" class="edge">
<title>u6&#45;&gt;p36</title>
<path fill="none" stroke="#555555" d="M3120.05,-260.91C3121.24,-258.17 3150.32,-191.06 3164.44,-158.46"/>
</g>
<!-- u7&#45;&gt;p7 -->
<g id="edge16" class="edge">
<title>u7&#45;&gt;p7</title>
<path fill="none" stroke="#ffb6c6" d="M3705.65,-262C3709.66,-262 3731.01,-262 3731.01,-262 3731.01,-262 3735.64,-262 3740.99,-262"/>
</g>
<!-- p26 -->
<g id="node29" class="node">
<title>p26</title>
<path fill="#cfe8ff" stroke="black" d="M3664.02,-158C3664.02,-158 3612,-158 3612,-158 3606,-158 3600,-152 3600,-146 3600,-146 3600,-134 3600,-134 3600,-128 3606,-122 3612,-122 3612,-122 3664.02,-122 3664.02,-122 3670.02,-122 3676.02,-128 3676.02,-134 3676.02,-134 3676.02,-146 3676.02,-146 3676.02,-152 3670.02,-158 3664.02,-158"/>
<text xml:space="preserve" text-anchor="middle" x="3638.01" y="-136.5" font-family="Helvetica,sans-Serif" font-size="10.00">Roland Ira Alto</text>
</g>
<!-- u7&#45;&gt;p26 -->
<g id="edge60" class="edge">
<title>u7&#45;&gt;p26</title>
<path fill="none" stroke="#555555" d="M3704.96,-260.91C3703.43,-258.17 3665.96,-191.06 3647.76,-158.46"/>
</g>
<!-- p22 -->
<g id="node31" class="node">
<title>p22</title>
<path fill="#cfe8ff" stroke="black" d="M3939.52,-158C3939.52,-158 3872.5,-158 3872.5,-158 3866.5,-158 3860.5,-152 3860.5,-146 3860.5,-146 3860.5,-134 3860.5,-134 3860.5,-128 3866.5,-122 3872.5,-122 3872.5,-122 3939.52,-122 3939.52,-122 3945.52,-122 3951.52,-128 3951.52,-134 3951.52,-134 3951.52,-146 3951.52,-146 3951.52,-152 3945.52,-158 3939.52,-158"/>
<text xml:space="preserve" text-anchor="middle" x="3906.01" y="-136.5" font-family="Helvetica,sans-Serif" font-size="10.00">Christian Roy Alto</text>
</g>
<!-- u7&#45;&gt;p22 -->
<g id="edge58" class="edge">
<title>u7&#45;&gt;p22</title>
<path fill="none" stroke="#555555" d="M3705.06,-260.95C3706.12,-259.95 3723.01,-244 3723.01,-244 3723.01,-244 3822.76,-187.86 3874.97,-158.47"/>
</g>
<!-- p24 -->
<g id="node45" class="node">
<title>p24</title>
<path fill="#cfe8ff" stroke="black" d="M4216.15,-158C4216.15,-158 4143.88,-158 4143.88,-158 4137.88,-158 4131.88,-152 4131.88,-146 4131.88,-146 4131.88,-134 4131.88,-134 4131.88,-128 4137.88,-122 4143.88,-122 4143.88,-122 4216.15,-122 4216.15,-122 4222.15,-122 4228.15,-128 4228.15,-134 4228.15,-134 4228.15,-146 4228.15,-146 4228.15,-152 4222.15,-158 4216.15,-158"/>
<text xml:space="preserve" text-anchor="middle" x="4180.01" y="-136.5" font-family="Helvetica,sans-Serif" font-size="10.00">Philip Reginald Alto</text>
</g>
<!-- u7&#45;&gt;p24 -->
<g id="edge59" class="edge">
<title>u7&#45;&gt;p24</title>
<path fill="none" stroke="#555555" d="M3705.06,-260.95C3706.12,-259.95 3723.01,-244 3723.01,-244 3723.01,-244 4114.01,-158 4114.01,-158 4114.01,-158 4121.63,-156.04 4131.7,-153.44"/>
</g>
<!-- u8&#45;&gt;p17 -->
<g id="edge18" class="edge">
<title>u8&#45;&gt;p17</title>
<path fill="none" stroke="#ffb6c6" d="M4372.59,-262C4376.18,-262 4395.34,-262 4395.34,-262 4395.34,-262 4401.74,-262 4407.83,-262"/>
</g>
<!-- p54 -->
<g id="node37" class="node">
<title>p54</title>
<path fill="#cfe8ff" stroke="black" d="M4455.65,-158C4455.65,-158 4422.38,-158 4422.38,-158 4416.38,-158 4410.38,-152 4410.38,-146 4410.38,-146 4410.38,-134 4410.38,-134 4410.38,-128 4416.38,-122 4422.38,-122 4422.38,-122 4455.65,-122 4455.65,-122 4461.65,-122 4467.65,-128 4467.65,-134 4467.65,-134 4467.65,-146 4467.65,-146 4467.65,-152 4461.65,-158 4455.65,-158"/>
<text xml:space="preserve" text-anchor="middle" x="4439.01" y="-136.5" font-family="Helvetica,sans-Serif" font-size="10.00">Jason Alto</text>
</g>
<!-- u8&#45;&gt;p54 -->
<g id="edge77" class="edge">
<title>u8&#45;&gt;p54</title>
<path fill="none" stroke="#555555" d="M4372.06,-260.91C4373.59,-258.17 4411.06,-191.06 4429.26,-158.46"/>
</g>
<!-- p53 -->
<g id="node52" class="node">
<title>p53</title>
<path fill="#ffd6e7" stroke="black" d="M4568.02,-158C4568.02,-158 4516,-158 4516,-158 4510,-158 4504,-152 4504,-146 4504,-146 4504,-134 4504,-134 4504,-128 4510,-122 4516,-122 4516,-122 4568.02,-122 4568.02,-122 4574.02,-122 4580.02,-128 4580.02,-134 4580.02,-134 4580.02,-146 4580.02,-146 4580.02,-152 4574.02,-158 4568.02,-158"/>
<text xml:space="preserve" text-anchor="middle" x="4542.01" y="-136.5" font-family="Helvetica,sans-Serif" font-size="10.00">Grace Ann Lim</text>
</g>
<!-- u8&#45;&gt;p53 -->
<g id="edge76" class="edge">
<title>u8&#45;&gt;p53</title>
<path fill="none" stroke="#555555" d="M4372.06,-260.95C4373.12,-259.95 4390.01,-244 4390.01,-244 4390.01,-244 4472.86,-187.86 4516.23,-158.47"/>
</g>
<!-- u9 -->
<g id="node67" class="node">
<title>u9</title>
<ellipse fill="#f9f9f9" stroke="black" cx="3712.01" cy="-140" rx="0.36" ry="0.36"/>
</g>
<!-- p26&#45;&gt;u9 -->
<g id="edge19" class="edge">
<title>p26&#45;&gt;u9</title>
<path fill="none" stroke="#ffb6c6" d="M3676.45,-140C3682.1,-140 3687.34,-140 3687.34,-140 3687.34,-140 3707.6,-140 3711.4,-140"/>
</g>
<!-- p27 -->
<g id="node30" class="node">
<title>p27</title>
<path fill="#ffd6e7" stroke="black" d="M3812.02,-158C3812.02,-158 3760,-158 3760,-158 3754,-158 3748,-152 3748,-146 3748,-146 3748,-134 3748,-134 3748,-128 3754,-122 3760,-122 3760,-122 3812.02,-122 3812.02,-122 3818.02,-122 3824.02,-128 3824.02,-134 3824.02,-134 3824.02,-146 3824.02,-146 3824.02,-152 3818.02,-158 3812.02,-158"/>
<text xml:space="preserve" text-anchor="middle" x="3786.01" y="-136.5" font-family="Helvetica,sans-Serif" font-size="10.00">Merylle U. Alto</text>
</g>
<!-- u10 -->
<g id="node68" class="node">
<title>u10</title>
<ellipse fill="#f9f9f9" stroke="black" cx="3988.01" cy="-140" rx="0.36" ry="0.36"/>
</g>
<!-- p22&#45;&gt;u10 -->
<g id="edge21" class="edge">
<title>p22&#45;&gt;u10</title>
<path fill="none" stroke="#ffb6c6" d="M3951.73,-140C3956.67,-140 3960.68,-140 3960.68,-140 3960.68,-140 3983.13,-140 3987.33,-140"/>
</g>
<!-- p23 -->
<g id="node32" class="node">
<title>p23</title>
<path fill="#ffd6e7" stroke="black" d="M4084.15,-158C4084.15,-158 4035.88,-158 4035.88,-158 4029.88,-158 4023.88,-152 4023.88,-146 4023.88,-146 4023.88,-134 4023.88,-134 4023.88,-128 4029.88,-122 4035.88,-122 4035.88,-122 4084.15,-122 4084.15,-122 4090.15,-122 4096.15,-128 4096.15,-134 4096.15,-134 4096.15,-146 4096.15,-146 4096.15,-152 4090.15,-158 4084.15,-158"/>
<text xml:space="preserve" text-anchor="middle" x="4060.01" y="-136.5" font-family="Helvetica,sans-Serif" font-size="10.00">Amelia F. Alto</text>
</g>
<!-- u11 -->
<g id="node69" class="node">
<title>u11</title>
<ellipse fill="#f9f9f9" stroke="black" cx="1920.01" cy="-140" rx="0.36" ry="0.36"/>
</g>
<!-- p49&#45;&gt;u11 -->
<g id="edge23" class="edge">
<title>p49&#45;&gt;u11</title>
<path fill="none" stroke="#ffb6c6" d="M1883.68,-140C1889.52,-140 1895.01,-140 1895.01,-140 1895.01,-140 1915.54,-140 1919.39,-140"/>
</g>
<!-- p50 -->
<g id="node34" class="node">
<title>p50</title>
<path fill="#ffd6e7" stroke="black" d="M2020.02,-158C2020.02,-158 1968,-158 1968,-158 1962,-158 1956,-152 1956,-146 1956,-146 1956,-134 1956,-134 1956,-128 1962,-122 1968,-122 1968,-122 2020.02,-122 2020.02,-122 2026.02,-122 2032.02,-128 2032.02,-134 2032.02,-134 2032.02,-146 2032.02,-146 2032.02,-152 2026.02,-158 2020.02,-158"/>
<text xml:space="preserve" text-anchor="middle" x="1994.01" y="-136.5" font-family="Helvetica,sans-Serif" font-size="10.00">Lea Abello Alto</text>
</g>
<!-- u12 -->
<g id="node70" class="node">
<title>u12</title>
<ellipse fill="#f9f9f9" stroke="black" cx="2192.01" cy="-140" rx="0.36" ry="0.36"/>
</g>
<!-- p45&#45;&gt;u12 -->
<g id="edge25" class="edge">
<title>p45&#45;&gt;u12</title>
<path fill="none" stroke="#ffb6c6" d="M2156.02,-140C2161.11,-140 2165.34,-140 2165.34,-140 2165.34,-140 2187.24,-140 2191.35,-140"/>
</g>
<!-- p46 -->
<g id="node36" class="node">
<title>p46</title>
<path fill="#ffd6e7" stroke="black" d="M2317.77,-158C2317.77,-158 2240.25,-158 2240.25,-158 2234.25,-158 2228.25,-152 2228.25,-146 2228.25,-146 2228.25,-134 2228.25,-134 2228.25,-128 2234.25,-122 2240.25,-122 2240.25,-122 2317.77,-122 2317.77,-122 2323.77,-122 2329.77,-128 2329.77,-134 2329.77,-134 2329.77,-146 2329.77,-146 2329.77,-152 2323.77,-158 2317.77,-158"/>
<text xml:space="preserve" text-anchor="middle" x="2279.01" y="-136.5" font-family="Helvetica,sans-Serif" font-size="10.00">Rebecca Reyes Alto</text>
</g>
<!-- u13 -->
<g id="node71" class="node">
<title>u13</title>
<ellipse fill="#f9f9f9" stroke="black" cx="4616.01" cy="-140" rx="0.36" ry="0.36"/>
</g>
<!-- p54&#45;&gt;u13 -->
<g id="edge27" class="edge">
<title>p54&#45;&gt;u13</title>
<path fill="none" stroke="#ffb6c6" d="M4458.51,-158.3C4477.66,-176.27 4504.01,-201 4504.01,-201 4504.01,-201 4580.01,-201 4580.01,-201 4580.01,-201 4611.65,-147.39 4615.61,-140.69"/>
</g>
<!-- p55 -->
<g id="node38" class="node">
<title>p55</title>
<path fill="#ffd6e7" stroke="black" d="M4698.02,-158C4698.02,-158 4664,-158 4664,-158 4658,-158 4652,-152 4652,-146 4652,-146 4652,-134 4652,-134 4652,-128 4658,-122 4664,-122 4664,-122 4698.02,-122 4698.02,-122 4704.02,-122 4710.02,-128 4710.02,-134 4710.02,-134 4710.02,-146 4710.02,-146 4710.02,-152 4704.02,-158 4698.02,-158"/>
<text xml:space="preserve" text-anchor="middle" x="4681.01" y="-136.5" font-family="Helvetica,sans-Serif" font-size="10.00">Amy Hung</text>
</g>
<!-- u14 -->
<g id="node72" class="node">
<title>u14</title>
<ellipse fill="#f9f9f9" stroke="black" cx="2861.01" cy="-140" rx="0.36" ry="0.36"/>
</g>
<!-- p32&#45;&gt;u14 -->
<g id="edge29" class="edge">
<title>p32&#45;&gt;u14</title>
<path fill="none" stroke="#ffb6c6" d="M2824.63,-140C2830.93,-140 2838.01,-140 2838.01,-140 2838.01,-140 2856.9,-140 2860.44,-140"/>
</g>
<!-- p33 -->
<g id="node40" class="node">
<title>p33</title>
<path fill="#ffd6e7" stroke="black" d="M2982.52,-158C2982.52,-158 2909.5,-158 2909.5,-158 2903.5,-158 2897.5,-152 2897.5,-146 2897.5,-146 2897.5,-134 2897.5,-134 2897.5,-128 2903.5,-122 2909.5,-122 2909.5,-122 2982.52,-122 2982.52,-122 2988.52,-122 2994.52,-128 2994.52,-134 2994.52,-134 2994.52,-146 2994.52,-146 2994.52,-152 2988.52,-158 2982.52,-158"/>
<text xml:space="preserve" text-anchor="middle" x="2946.01" y="-136.5" font-family="Helvetica,sans-Serif" font-size="10.00">Jaime Alicia H. Alto</text>
</g>
<!-- p38 -->
<g id="node41" class="node">
<title>p38</title>
<path fill="#cfe8ff" stroke="black" d="M3552.02,-158C3552.02,-158 3506,-158 3506,-158 3500,-158 3494,-152 3494,-146 3494,-146 3494,-134 3494,-134 3494,-128 3500,-122 3506,-122 3506,-122 3552.02,-122 3552.02,-122 3558.02,-122 3564.02,-128 3564.02,-134 3564.02,-134 3564.02,-146 3564.02,-146 3564.02,-152 3558.02,-158 3552.02,-158"/>
<text xml:space="preserve" text-anchor="middle" x="3529.01" y="-136.5" font-family="Helvetica,sans-Serif" font-size="10.00">Patrick Elliott</text>
</g>
<!-- u15 -->
<g id="node73" class="node">
<title>u15</title>
<ellipse fill="#f9f9f9" stroke="black" cx="3458.01" cy="-140" rx="0.36" ry="0.36"/>
</g>
<!-- p37&#45;&gt;u15 -->
<g id="edge31" class="edge">
<title>p37&#45;&gt;u15</title>
<path fill="none" stroke="#ffb6c6" d="M3299.21,-158.3C3321.01,-176.27 3351.01,-201 3351.01,-201 3351.01,-201 3421.01,-201 3421.01,-201 3421.01,-201 3453.53,-147.39 3457.59,-140.69"/>
</g>
<!-- u16 -->
<g id="node74" class="node">
<title>u16</title>
<ellipse fill="#f9f9f9" stroke="black" cx="871.01" cy="-140" rx="0.36" ry="0.36"/>
</g>
<!-- p28&#45;&gt;u16 -->
<g id="edge33" class="edge">
<title>p28&#45;&gt;u16</title>
<path fill="none" stroke="#ffb6c6" d="M835.2,-140C841.39,-140 850.01,-140 850.01,-140 850.01,-140 867.26,-140 870.49,-140"/>
</g>
<!-- p29 -->
<g id="node44" class="node">
<title>p29</title>
<path fill="#ffd6e7" stroke="black" d="M980.89,-158C980.89,-158 919.12,-158 919.12,-158 913.12,-158 907.12,-152 907.12,-146 907.12,-146 907.12,-134 907.12,-134 907.12,-128 913.12,-122 919.12,-122 919.12,-122 980.89,-122 980.89,-122 986.89,-122 992.89,-128 992.89,-134 992.89,-134 992.89,-146 992.89,-146 992.89,-152 986.89,-158 980.89,-158"/>
<text xml:space="preserve" text-anchor="middle" x="950.01" y="-136.5" font-family="Helvetica,sans-Serif" font-size="10.00">Angel Young&#45;Alto</text>
</g>
<!-- u17 -->
<g id="node75" class="node">
<title>u17</title>
<ellipse fill="#f9f9f9" stroke="black" cx="4264.01" cy="-140" rx="0.36" ry="0.36"/>
</g>
<!-- p24&#45;&gt;u17 -->
<g id="edge35" class="edge">
<title>p24&#45;&gt;u17</title>
<path fill="none" stroke="#ffb6c6" d="M4228.36,-140C4232.7,-140 4236.01,-140 4236.01,-140 4236.01,-140 4259.01,-140 4263.32,-140"/>
</g>
<!-- p25 -->
<g id="node46" class="node">
<title>p25</title>
<path fill="#ffd6e7" stroke="black" d="M4361.9,-158C4361.9,-158 4312.12,-158 4312.12,-158 4306.12,-158 4300.12,-152 4300.12,-146 4300.12,-146 4300.12,-134 4300.12,-134 4300.12,-128 4306.12,-122 4312.12,-122 4312.12,-122 4361.9,-122 4361.9,-122 4367.9,-122 4373.9,-128 4373.9,-134 4373.9,-134 4373.9,-146 4373.9,-146 4373.9,-152 4367.9,-158 4361.9,-158"/>
<text xml:space="preserve" text-anchor="middle" x="4337.01" y="-136.5" font-family="Helvetica,sans-Serif" font-size="10.00">Mylene L. Alto</text>
</g>
<!-- p47 -->
<g id="node47" class="node">
<title>p47</title>
<path fill="#cfe8ff" stroke="black" d="M2594.02,-158C2594.02,-158 2542,-158 2542,-158 2536,-158 2530,-152 2530,-146 2530,-146 2530,-134 2530,-134 2530,-128 2536,-122 2542,-122 2542,-122 2594.02,-122 2594.02,-122 2600.02,-122 2606.02,-128 2606.02,-134 2606.02,-134 2606.02,-146 2606.02,-146 2606.02,-152 2600.02,-158 2594.02,-158"/>
<text xml:space="preserve" text-anchor="middle" x="2568.01" y="-136.5" font-family="Helvetica,sans-Serif" font-size="10.00">Richard Obilex</text>
</g>
<!-- u18 -->
<g id="node76" class="node">
<title>u18</title>
<ellipse fill="#f9f9f9" stroke="black" cx="2494.01" cy="-140" rx="0.36" ry="0.36"/>
</g>
<!-- p48&#45;&gt;u18 -->
<g id="edge37" class="edge">
<title>p48&#45;&gt;u18</title>
<path fill="none" stroke="#ffb6c6" d="M2458.33,-140C2462.99,-140 2466.68,-140 2466.68,-140 2466.68,-140 2489.13,-140 2493.33,-140"/>
</g>
<!-- u19 -->
<g id="node77" class="node">
<title>u19</title>
<ellipse fill="#f9f9f9" stroke="black" cx="633.01" cy="-140" rx="0.36" ry="0.36"/>
</g>
<!-- p43&#45;&gt;u19 -->
<g id="edge39" class="edge">
<title>p43&#45;&gt;u19</title>
<path fill="none" stroke="#ffb6c6" d="M305.51,-158.3C327.6,-176.27 358.01,-201 358.01,-201 358.01,-201 597.01,-201 597.01,-201 597.01,-201 628.65,-147.39 632.61,-140.69"/>
</g>
<!-- p44 -->
<g id="node50" class="node">
<title>p44</title>
<path fill="#ffd6e7" stroke="black" d="M732.64,-158C732.64,-158 681.38,-158 681.38,-158 675.38,-158 669.38,-152 669.38,-146 669.38,-146 669.38,-134 669.38,-134 669.38,-128 675.38,-122 681.38,-122 681.38,-122 732.64,-122 732.64,-122 738.64,-122 744.64,-128 744.64,-134 744.64,-134 744.64,-146 744.64,-146 744.64,-152 738.64,-158 732.64,-158"/>
<text xml:space="preserve" text-anchor="middle" x="707.01" y="-136.5" font-family="Helvetica,sans-Serif" font-size="10.00">Riza Joy Zano</text>
</g>
<!-- p52 -->
<g id="node51" class="node">
<title>p52</title>
<path fill="#cfe8ff" stroke="black" d="M4829.77,-158C4829.77,-158 4794.25,-158 4794.25,-158 4788.25,-158 4782.25,-152 4782.25,-146 4782.25,-146 4782.25,-134 4782.25,-134 4782.25,-128 4788.25,-122 4794.25,-122 4794.25,-122 4829.77,-122 4829.77,-122 4835.77,-122 4841.77,-128 4841.77,-134 4841.77,-134 4841.77,-146 4841.77,-146 4841.77,-152 4835.77,-158 4829.77,-158"/>
<text xml:space="preserve" text-anchor="middle" x="4812.01" y="-136.5" font-family="Helvetica,sans-Serif" font-size="10.00">Fabian Lim</text>
</g>
<!-- u20 -->
<g id="node78" class="node">
<title>u20</title>
<ellipse fill="#f9f9f9" stroke="black" cx="4746.01" cy="-140" rx="0.36" ry="0.36"/>
</g>
<!-- p53&#45;&gt;u20 -->
<g id="edge41" class="edge">
<title>p53&#45;&gt;u20</title>
<path fill="none" stroke="#ffb6c6" d="M4564.21,-158.3C4586.01,-176.27 4616.01,-201 4616.01,-201 4616.01,-201 4710.01,-201 4710.01,-201 4710.01,-201 4741.65,-147.39 4745.61,-140.69"/>
</g>
<!-- u21 -->
<g id="node79" class="node">
<title>u21</title>
<ellipse fill="#f9f9f9" stroke="black" cx="469.01" cy="-140" rx="0.36" ry="0.36"/>
</g>
<!-- p39&#45;&gt;u21 -->
<g id="edge43" class="edge">
<title>p39&#45;&gt;u21</title>
<path fill="none" stroke="#ffb6c6" d="M432.59,-140C438.56,-140 444.34,-140 444.34,-140 444.34,-140 464.6,-140 468.4,-140"/>
</g>
<!-- p40 -->
<g id="node54" class="node">
<title>p40</title>
<path fill="#ffd6e7" stroke="black" d="M584.89,-158C584.89,-158 517.12,-158 517.12,-158 511.12,-158 505.12,-152 505.12,-146 505.12,-146 505.12,-134 505.12,-134 505.12,-128 511.12,-122 517.12,-122 517.12,-122 584.89,-122 584.89,-122 590.89,-122 596.89,-128 596.89,-134 596.89,-134 596.89,-146 596.89,-146 596.89,-152 590.89,-158 584.89,-158"/>
<text xml:space="preserve" text-anchor="middle" x="551.01" y="-136.5" font-family="Helvetica,sans-Serif" font-size="10.00">Angelia Nina Zano</text>
</g>
<!-- u22 -->
<g id="node80" class="node">
<title>u22</title>
<ellipse fill="#f9f9f9" stroke="black" cx="1147.01" cy="-140" rx="0.36" ry="0.36"/>
</g>
<!-- p30&#45;&gt;u22 -->
<g id="edge45" class="edge">
<title>p30&#45;&gt;u22</title>
<path fill="none" stroke="#ffb6c6" d="M1111.49,-140C1116.78,-140 1121.34,-140 1121.34,-140 1121.34,-140 1142.42,-140 1146.38,-140"/>
</g>
<!-- p31 -->
<g id="node56" class="node">
<title>p31</title>
<path fill="#ffd6e7" stroke="black" d="M1250.52,-158C1250.52,-158 1195.5,-158 1195.5,-158 1189.5,-158 1183.5,-152 1183.5,-146 1183.5,-146 1183.5,-134 1183.5,-134 1183.5,-128 1189.5,-122 1195.5,-122 1195.5,-122 1250.52,-122 1250.52,-122 1256.52,-122 1262.52,-128 1262.52,-134 1262.52,-134 1262.52,-146 1262.52,-146 1262.52,-152 1256.52,-158 1250.52,-158"/>
<text xml:space="preserve" text-anchor="middle" x="1223.01" y="-136.5" font-family="Helvetica,sans-Serif" font-size="10.00">Marissa N. Alto</text>
</g>
<!-- p67 -->
<g id="node90" class="node">
<title>p67</title>
<path fill="#ffd6e7" stroke="black" d="M3232.15,-36C3232.15,-36 3195.88,-36 3195.88,-36 3189.88,-36 3183.88,-30 3183.88,-24 3183.88,-24 3183.88,-12 3183.88,-12 3183.88,-6 3189.88,0 3195.88,0 3195.88,0 3232.15,0 3232.15,0 3238.15,0 3244.15,-6 3244.15,-12 3244.15,-12 3244.15,-24 3244.15,-24 3244.15,-30 3238.15,-36 3232.15,-36"/>
<text xml:space="preserve" text-anchor="middle" x="3214.01" y="-14.5" font-family="Helvetica,sans-Serif" font-size="10.00">Marina Alto</text>
</g>
<!-- p35&#45;&gt;p67 -->
<g id="edge89" class="edge">
<title>p35&#45;&gt;p67</title>
<path fill="none" stroke="#555555" d="M3089.24,-121.55C3116.92,-98.8 3165.06,-59.23 3192.75,-36.47"/>
</g>
<!-- p68 -->
<g id="node91" class="node">
<title>p68</title>
<path fill="#cfe8ff" stroke="black" d="M3004.15,-36C3004.15,-36 2925.88,-36 2925.88,-36 2919.88,-36 2913.88,-30 2913.88,-24 2913.88,-24 2913.88,-12 2913.88,-12 2913.88,-6 2919.88,0 2925.88,0 2925.88,0 3004.15,0 3004.15,0 3010.15,0 3016.15,-6 3016.15,-12 3016.15,-12 3016.15,-24 3016.15,-24 3016.15,-30 3010.15,-36 3004.15,-36"/>
<text xml:space="preserve" text-anchor="middle" x="2965.01" y="-14.5" font-family="Helvetica,sans-Serif" font-size="10.00">Alexander Adam Alto</text>
</g>
<!-- p35&#45;&gt;p68 -->
<g id="edge90" class="edge">
<title>p35&#45;&gt;p68</title>
<path fill="none" stroke="#555555" d="M3053.03,-121.55C3033.5,-98.8 2999.54,-59.23 2980.01,-36.47"/>
</g>
<!-- p69 -->
<g id="node92" class="node">
<title>p69</title>
<path fill="#cfe8ff" stroke="black" d="M3135.4,-36C3135.4,-36 3064.62,-36 3064.62,-36 3058.62,-36 3052.62,-30 3052.62,-24 3052.62,-24 3052.62,-12 3052.62,-12 3052.62,-6 3058.62,0 3064.62,0 3064.62,0 3135.4,0 3135.4,0 3141.4,0 3147.4,-6 3147.4,-12 3147.4,-12 3147.4,-24 3147.4,-24 3147.4,-30 3141.4,-36 3135.4,-36"/>
<text xml:space="preserve" text-anchor="middle" x="3100.01" y="-14.5" font-family="Helvetica,sans-Serif" font-size="10.00">Jayson Jordan Alto</text>
</g>
<!-- p35&#45;&gt;p69 -->
<g id="edge91" class="edge">
<title>p35&#45;&gt;p69</title>
<path fill="none" stroke="#555555" d="M3072.66,-121.55C3078.73,-98.8 3089.28,-59.23 3095.35,-36.47"/>
</g>
<!-- p78 -->
<g id="node101" class="node">
<title>p78</title>
<path fill="#ffd6e7" stroke="black" d="M2708.27,-36C2708.27,-36 2657.75,-36 2657.75,-36 2651.75,-36 2645.75,-30 2645.75,-24 2645.75,-24 2645.75,-12 2645.75,-12 2645.75,-6 2651.75,0 2657.75,0 2657.75,0 2708.27,0 2708.27,0 2714.27,0 2720.27,-6 2720.27,-12 2720.27,-12 2720.27,-24 2720.27,-24 2720.27,-30 2714.27,-36 2708.27,-36"/>
<text xml:space="preserve" text-anchor="middle" x="2683.01" y="-14.5" font-family="Helvetica,sans-Serif" font-size="10.00">Ryder Garland</text>
</g>
<!-- p51&#45;&gt;p78 -->
<g id="edge100" class="edge">
<title>p51&#45;&gt;p78</title>
<path fill="none" stroke="#555555" d="M2683.01,-121.55C2683.01,-98.8 2683.01,-59.23 2683.01,-36.47"/>
</g>
<!-- u9&#45;&gt;p27 -->
<g id="edge20" class="edge">
<title>u9&#45;&gt;p27</title>
<path fill="none" stroke="#ffb6c6" d="M3712.62,-140C3716.42,-140 3736.68,-140 3736.68,-140 3736.68,-140 3741.92,-140 3747.57,-140"/>
</g>
<!-- p61 -->
<g id="node84" class="node">
<title>p61</title>
<path fill="#ffd6e7" stroke="black" d="M3668.65,-36C3668.65,-36 3617.38,-36 3617.38,-36 3611.38,-36 3605.38,-30 3605.38,-24 3605.38,-24 3605.38,-12 3605.38,-12 3605.38,-6 3611.38,0 3617.38,0 3617.38,0 3668.65,0 3668.65,0 3674.65,0 3680.65,-6 3680.65,-12 3680.65,-12 3680.65,-24 3680.65,-24 3680.65,-30 3674.65,-36 3668.65,-36"/>
<text xml:space="preserve" text-anchor="middle" x="3643.01" y="-14.5" font-family="Helvetica,sans-Serif" font-size="10.00">Tifanny Claire </text>
</g>
<!-- u9&#45;&gt;p61 -->
<g id="edge83" class="edge">
<title>u9&#45;&gt;p61</title>
<path fill="none" stroke="#555555" d="M3711.96,-138.91C3710.38,-136.17 3671.8,-69.06 3653.05,-36.46"/>
</g>
<!-- p62 -->
<g id="node85" class="node">
<title>p62</title>
<path fill="#cfe8ff" stroke="black" d="M3799.77,-36C3799.77,-36 3728.25,-36 3728.25,-36 3722.25,-36 3716.25,-30 3716.25,-24 3716.25,-24 3716.25,-12 3716.25,-12 3716.25,-6 3722.25,0 3728.25,0 3728.25,0 3799.77,0 3799.77,0 3805.77,0 3811.77,-6 3811.77,-12 3811.77,-12 3811.77,-24 3811.77,-24 3811.77,-30 3805.77,-36 3799.77,-36"/>
<text xml:space="preserve" text-anchor="middle" x="3764.01" y="-14.5" font-family="Helvetica,sans-Serif" font-size="10.00">Matthew Ira James</text>
</g>
<!-- u9&#45;&gt;p62 -->
<g id="edge84" class="edge">
<title>u9&#45;&gt;p62</title>
<path fill="none" stroke="#555555" d="M3712.05,-138.91C3713.24,-136.17 3742.32,-69.06 3756.44,-36.46"/>
</g>
<!-- u10&#45;&gt;p23 -->
<g id="edge22" class="edge">
<title>u10&#45;&gt;p23</title>
<path fill="none" stroke="#ffb6c6" d="M3988.6,-140C3992.3,-140 4012.01,-140 4012.01,-140 4012.01,-140 4017.64,-140 4023.45,-140"/>
</g>
<!-- p58 -->
<g id="node81" class="node">
<title>p58</title>
<path fill="#ffd6e7" stroke="black" d="M3950.9,-36C3950.9,-36 3913.12,-36 3913.12,-36 3907.12,-36 3901.12,-30 3901.12,-24 3901.12,-24 3901.12,-12 3901.12,-12 3901.12,-6 3907.12,0 3913.12,0 3913.12,0 3950.9,0 3950.9,0 3956.9,0 3962.9,-6 3962.9,-12 3962.9,-12 3962.9,-24 3962.9,-24 3962.9,-30 3956.9,-36 3950.9,-36"/>
<text xml:space="preserve" text-anchor="middle" x="3932.01" y="-14.5" font-family="Helvetica,sans-Serif" font-size="10.00">Denice Alto</text>
</g>
<!-- u10&#45;&gt;p58 -->
<g id="edge80" class="edge">
<title>u10&#45;&gt;p58</title>
<path fill="none" stroke="#555555" d="M3987.97,-138.91C3986.69,-136.17 3955.37,-69.06 3940.16,-36.46"/>
</g>
<!-- p59 -->
<g id="node82" class="node">
<title>p59</title>
<path fill="#cfe8ff" stroke="black" d="M4077.15,-36C4077.15,-36 4010.88,-36 4010.88,-36 4004.88,-36 3998.88,-30 3998.88,-24 3998.88,-24 3998.88,-12 3998.88,-12 3998.88,-6 4004.88,0 4010.88,0 4010.88,0 4077.15,0 4077.15,0 4083.15,0 4089.15,-6 4089.15,-12 4089.15,-12 4089.15,-24 4089.15,-24 4089.15,-30 4083.15,-36 4077.15,-36"/>
<text xml:space="preserve" text-anchor="middle" x="4044.01" y="-14.5" font-family="Helvetica,sans-Serif" font-size="10.00">Nicolas Miles Alto</text>
</g>
<!-- u10&#45;&gt;p59 -->
<g id="edge81" class="edge">
<title>u10&#45;&gt;p59</title>
<path fill="none" stroke="#555555" d="M3988.05,-138.91C3989.33,-136.17 4020.65,-69.06 4035.86,-36.46"/>
</g>
<!-- u11&#45;&gt;p50 -->
<g id="edge24" class="edge">
<title>u11&#45;&gt;p50</title>
<path fill="none" stroke="#ffb6c6" d="M1920.62,-140C1924.42,-140 1944.68,-140 1944.68,-140 1944.68,-140 1949.92,-140 1955.57,-140"/>
</g>
<!-- p74 -->
<g id="node97" class="node">
<title>p74</title>
<path fill="#cfe8ff" stroke="black" d="M2084.9,-36C2084.9,-36 2017.13,-36 2017.13,-36 2011.13,-36 2005.13,-30 2005.13,-24 2005.13,-24 2005.13,-12 2005.13,-12 2005.13,-6 2011.13,0 2017.13,0 2017.13,0 2084.9,0 2084.9,0 2090.9,0 2096.9,-6 2096.9,-12 2096.9,-12 2096.9,-24 2096.9,-24 2096.9,-30 2090.9,-36 2084.9,-36"/>
<text xml:space="preserve" text-anchor="middle" x="2051.01" y="-14.5" font-family="Helvetica,sans-Serif" font-size="10.00">Justin Lhance Alto</text>
</g>
<!-- u11&#45;&gt;p74 -->
<g id="edge96" class="edge">
<title>u11&#45;&gt;p74</title>
<path fill="none" stroke="#555555" d="M1920.06,-138.95C1921.12,-137.95 1938.01,-122 1938.01,-122 1938.01,-122 1999.6,-65.86 2031.84,-36.47"/>
</g>
<!-- p75 -->
<g id="node98" class="node">
<title>p75</title>
<path fill="#cfe8ff" stroke="black" d="M1723.64,-36C1723.64,-36 1648.38,-36 1648.38,-36 1642.38,-36 1636.38,-30 1636.38,-24 1636.38,-24 1636.38,-12 1636.38,-12 1636.38,-6 1642.38,0 1648.38,0 1648.38,0 1723.64,0 1723.64,0 1729.64,0 1735.64,-6 1735.64,-12 1735.64,-12 1735.64,-24 1735.64,-24 1735.64,-30 1729.64,-36 1723.64,-36"/>
<text xml:space="preserve" text-anchor="middle" x="1686.01" y="-14.5" font-family="Helvetica,sans-Serif" font-size="10.00">Joshua Landice Alto</text>
</g>
<!-- u11&#45;&gt;p75 -->
<g id="edge97" class="edge">
<title>u11&#45;&gt;p75</title>
<path fill="none" stroke="#555555" d="M1919.96,-138.95C1918.84,-137.95 1901.01,-122 1901.01,-122 1901.01,-122 1783.82,-65.86 1722.48,-36.47"/>
</g>
<!-- p76 -->
<g id="node99" class="node">
<title>p76</title>
<path fill="#cfe8ff" stroke="black" d="M1840.27,-36C1840.27,-36 1783.75,-36 1783.75,-36 1777.75,-36 1771.75,-30 1771.75,-24 1771.75,-24 1771.75,-12 1771.75,-12 1771.75,-6 1777.75,0 1783.75,0 1783.75,0 1840.27,0 1840.27,0 1846.27,0 1852.27,-6 1852.27,-12 1852.27,-12 1852.27,-24 1852.27,-24 1852.27,-30 1846.27,-36 1840.27,-36"/>
<text xml:space="preserve" text-anchor="middle" x="1812.01" y="-14.5" font-family="Helvetica,sans-Serif" font-size="10.00">Jairo Leslie Alto</text>
</g>
<!-- u11&#45;&gt;p76 -->
<g id="edge98" class="edge">
<title>u11&#45;&gt;p76</title>
<path fill="none" stroke="#555555" d="M1919.93,-138.91C1917.46,-136.17 1857.07,-69.06 1827.72,-36.46"/>
</g>
<!-- p77 -->
<g id="node100" class="node">
<title>p77</title>
<path fill="#ffd6e7" stroke="black" d="M1957.27,-36C1957.27,-36 1900.75,-36 1900.75,-36 1894.75,-36 1888.75,-30 1888.75,-24 1888.75,-24 1888.75,-12 1888.75,-12 1888.75,-6 1894.75,0 1900.75,0 1900.75,0 1957.27,0 1957.27,0 1963.27,0 1969.27,-6 1969.27,-12 1969.27,-12 1969.27,-24 1969.27,-24 1969.27,-30 1963.27,-36 1957.27,-36"/>
<text xml:space="preserve" text-anchor="middle" x="1929.01" y="-14.5" font-family="Helvetica,sans-Serif" font-size="10.00">Lyza Joelie Alto</text>
</g>
<!-- u11&#45;&gt;p77 -->
<g id="edge99" class="edge">
<title>u11&#45;&gt;p77</title>
<path fill="none" stroke="#555555" d="M1920.02,-138.91C1920.22,-136.17 1925.26,-69.06 1927.7,-36.46"/>
</g>
<!-- u12&#45;&gt;p46 -->
<g id="edge26" class="edge">
<title>u12&#45;&gt;p46</title>
<path fill="none" stroke="#ffb6c6" d="M2192.73,-140C2197.19,-140 2221.01,-140 2221.01,-140 2221.01,-140 2223.99,-140 2228.03,-140"/>
</g>
<!-- p71 -->
<g id="node94" class="node">
<title>p71</title>
<path fill="#ffd6e7" stroke="black" d="M2330.15,-36C2330.15,-36 2263.88,-36 2263.88,-36 2257.88,-36 2251.88,-30 2251.88,-24 2251.88,-24 2251.88,-12 2251.88,-12 2251.88,-6 2257.88,0 2263.88,0 2263.88,0 2330.15,0 2330.15,0 2336.15,0 2342.15,-6 2342.15,-12 2342.15,-12 2342.15,-24 2342.15,-24 2342.15,-30 2336.15,-36 2330.15,-36"/>
<text xml:space="preserve" text-anchor="middle" x="2297.01" y="-14.5" font-family="Helvetica,sans-Serif" font-size="10.00">Arlene Reese Alto</text>
</g>
<!-- u12&#45;&gt;p71 -->
<g id="edge93" class="edge">
<title>u12&#45;&gt;p71</title>
<path fill="none" stroke="#555555" d="M2192.09,-138.91C2194.49,-136.17 2253.21,-69.06 2281.73,-36.46"/>
</g>
<!-- p72 -->
<g id="node95" class="node">
<title>p72</title>
<path fill="#cfe8ff" stroke="black" d="M2203.77,-36C2203.77,-36 2162.25,-36 2162.25,-36 2156.25,-36 2150.25,-30 2150.25,-24 2150.25,-24 2150.25,-12 2150.25,-12 2150.25,-6 2156.25,0 2162.25,0 2162.25,0 2203.77,0 2203.77,0 2209.77,0 2215.77,-6 2215.77,-12 2215.77,-12 2215.77,-24 2215.77,-24 2215.77,-30 2209.77,-36 2203.77,-36"/>
<text xml:space="preserve" text-anchor="middle" x="2183.01" y="-14.5" font-family="Helvetica,sans-Serif" font-size="10.00">Arden Rhyle</text>
</g>
<!-- u12&#45;&gt;p72 -->
<g id="edge94" class="edge">
<title>u12&#45;&gt;p72</title>
<path fill="none" stroke="#555555" d="M2192,-138.91C2191.8,-136.17 2186.76,-69.06 2184.32,-36.46"/>
</g>
<!-- u13&#45;&gt;p55 -->
<g id="edge28" class="edge">
<title>u13&#45;&gt;p55</title>
<path fill="none" stroke="#ffb6c6" d="M4616.55,-140C4619.88,-140 4637.68,-140 4637.68,-140 4637.68,-140 4645.32,-140 4651.52,-140"/>
</g>
<!-- u14&#45;&gt;p33 -->
<g id="edge30" class="edge">
<title>u14&#45;&gt;p33</title>
<path fill="none" stroke="#ffb6c6" d="M2861.71,-140C2866.07,-140 2889.34,-140 2889.34,-140 2889.34,-140 2892.69,-140 2897.09,-140"/>
</g>
<!-- p66 -->
<g id="node89" class="node">
<title>p66</title>
<path fill="#cfe8ff" stroke="black" d="M2865.52,-36C2865.52,-36 2798.5,-36 2798.5,-36 2792.5,-36 2786.5,-30 2786.5,-24 2786.5,-24 2786.5,-12 2786.5,-12 2786.5,-6 2792.5,0 2798.5,0 2798.5,0 2865.52,0 2865.52,0 2871.52,0 2877.52,-6 2877.52,-12 2877.52,-12 2877.52,-24 2877.52,-24 2877.52,-30 2871.52,-36 2865.52,-36"/>
<text xml:space="preserve" text-anchor="middle" x="2832.01" y="-14.5" font-family="Helvetica,sans-Serif" font-size="10.00">Noah Michael Alto</text>
</g>
<!-- u14&#45;&gt;p66 -->
<g id="edge88" class="edge">
<title>u14&#45;&gt;p66</title>
<path fill="none" stroke="#555555" d="M2860.99,-138.91C2860.33,-136.17 2844.11,-69.06 2836.23,-36.46"/>
</g>
<!-- u15&#45;&gt;p38 -->
<g id="edge32" class="edge">
<title>u15&#45;&gt;p38</title>
<path fill="none" stroke="#ffb6c6" d="M3458.6,-140C3462.24,-140 3481.68,-140 3481.68,-140 3481.68,-140 3487.59,-140 3493.51,-140"/>
</g>
<!-- u16&#45;&gt;p29 -->
<g id="edge34" class="edge">
<title>u16&#45;&gt;p29</title>
<path fill="none" stroke="#ffb6c6" d="M871.66,-140C875.72,-140 897.34,-140 897.34,-140 897.34,-140 901.69,-140 906.85,-140"/>
</g>
<!-- p63 -->
<g id="node86" class="node">
<title>p63</title>
<path fill="#cfe8ff" stroke="black" d="M892.52,-36C892.52,-36 849.5,-36 849.5,-36 843.5,-36 837.5,-30 837.5,-24 837.5,-24 837.5,-12 837.5,-12 837.5,-6 843.5,0 849.5,0 849.5,0 892.52,0 892.52,0 898.52,0 904.52,-6 904.52,-12 904.52,-12 904.52,-24 904.52,-24 904.52,-30 898.52,-36 892.52,-36"/>
<text xml:space="preserve" text-anchor="middle" x="871.01" y="-14.5" font-family="Helvetica,sans-Serif" font-size="10.00">Brandon Alto</text>
</g>
<!-- u16&#45;&gt;p63 -->
<g id="edge85" class="edge">
<title>u16&#45;&gt;p63</title>
<path fill="none" stroke="#555555" d="M871.01,-138.91C871.01,-136.17 871.01,-69.06 871.01,-36.46"/>
</g>
<!-- u17&#45;&gt;p25 -->
<g id="edge36" class="edge">
<title>u17&#45;&gt;p25</title>
<path fill="none" stroke="#ffb6c6" d="M4264.61,-140C4268.36,-140 4288.34,-140 4288.34,-140 4288.34,-140 4293.87,-140 4299.66,-140"/>
</g>
<!-- p60 -->
<g id="node83" class="node">
<title>p60</title>
<path fill="#ffd6e7" stroke="black" d="M4296.4,-36C4296.4,-36 4231.62,-36 4231.62,-36 4225.62,-36 4219.62,-30 4219.62,-24 4219.62,-24 4219.62,-12 4219.62,-12 4219.62,-6 4225.62,0 4231.62,0 4231.62,0 4296.4,0 4296.4,0 4302.4,0 4308.4,-6 4308.4,-12 4308.4,-12 4308.4,-24 4308.4,-24 4308.4,-30 4302.4,-36 4296.4,-36"/>
<text xml:space="preserve" text-anchor="middle" x="4264.01" y="-14.5" font-family="Helvetica,sans-Serif" font-size="10.00">Ava Margaux Alto</text>
</g>
<!-- u17&#45;&gt;p60 -->
<g id="edge82" class="edge">
<title>u17&#45;&gt;p60</title>
<path fill="none" stroke="#555555" d="M4264.01,-138.91C4264.01,-136.17 4264.01,-69.06 4264.01,-36.46"/>
</g>
<!-- u18&#45;&gt;p47 -->
<g id="edge38" class="edge">
<title>u18&#45;&gt;p47</title>
<path fill="none" stroke="#ffb6c6" d="M2494.62,-140C2498.42,-140 2518.68,-140 2518.68,-140 2518.68,-140 2523.92,-140 2529.57,-140"/>
</g>
<!-- p73 -->
<g id="node96" class="node">
<title>p73</title>
<path fill="#ffd6e7" stroke="black" d="M2520.02,-36C2520.02,-36 2468,-36 2468,-36 2462,-36 2456,-30 2456,-24 2456,-24 2456,-12 2456,-12 2456,-6 2462,0 2468,0 2468,0 2520.02,0 2520.02,0 2526.02,0 2532.02,-6 2532.02,-12 2532.02,-12 2532.02,-24 2532.02,-24 2532.02,-30 2526.02,-36 2520.02,-36"/>
<text xml:space="preserve" text-anchor="middle" x="2494.01" y="-14.5" font-family="Helvetica,sans-Serif" font-size="10.00">Janiyah Obilex</text>
</g>
<!-- u18&#45;&gt;p73 -->
<g id="edge95" class="edge">
<title>u18&#45;&gt;p73</title>
<path fill="none" stroke="#555555" d="M2494.01,-138.91C2494.01,-136.17 2494.01,-69.06 2494.01,-36.46"/>
</g>
<!-- u19&#45;&gt;p44 -->
<g id="edge40" class="edge">
<title>u19&#45;&gt;p44</title>
<path fill="none" stroke="#ffb6c6" d="M633.62,-140C637.42,-140 657.68,-140 657.68,-140 657.68,-140 663.28,-140 669.14,-140"/>
</g>
<!-- u20&#45;&gt;p52 -->
<g id="edge42" class="edge">
<title>u20&#45;&gt;p52</title>
<path fill="none" stroke="#ffb6c6" d="M4746.55,-140C4749.94,-140 4768.01,-140 4768.01,-140 4768.01,-140 4775.56,-140 4781.82,-140"/>
</g>
<!-- p79 -->
<g id="node102" class="node">
<title>p79</title>
<path fill="#ffd6e7" stroke="black" d="M4772.02,-36C4772.02,-36 4720,-36 4720,-36 4714,-36 4708,-30 4708,-24 4708,-24 4708,-12 4708,-12 4708,-6 4714,0 4720,0 4720,0 4772.02,0 4772.02,0 4778.02,0 4784.02,-6 4784.02,-12 4784.02,-12 4784.02,-24 4784.02,-24 4784.02,-30 4778.02,-36 4772.02,-36"/>
<text xml:space="preserve" text-anchor="middle" x="4746.01" y="-14.5" font-family="Helvetica,sans-Serif" font-size="10.00">Alexis Mai Lim</text>
</g>
<!-- u20&#45;&gt;p79 -->
<g id="edge101" class="edge">
<title>u20&#45;&gt;p79</title>
<path fill="none" stroke="#555555" d="M4746.01,-138.91C4746.01,-136.17 4746.01,-69.06 4746.01,-36.46"/>
</g>
<!-- u21&#45;&gt;p40 -->
<g id="edge44" class="edge">
<title>u21&#45;&gt;p40</title>
<path fill="none" stroke="#ffb6c6" d="M469.69,-140C473.89,-140 496.34,-140 496.34,-140 496.34,-140 500.03,-140 504.69,-140"/>
</g>
<!-- p70 -->
<g id="node93" class="node">
<title>p70</title>
<path fill="#ffd6e7" stroke="black" d="M499.89,-36C499.89,-36 438.12,-36 438.12,-36 432.12,-36 426.12,-30 426.12,-24 426.12,-24 426.12,-12 426.12,-12 426.12,-6 432.12,0 438.12,0 438.12,0 499.89,0 499.89,0 505.89,0 511.89,-6 511.89,-12 511.89,-12 511.89,-24 511.89,-24 511.89,-30 505.89,-36 499.89,-36"/>
<text xml:space="preserve" text-anchor="middle" x="469.01" y="-14.5" font-family="Helvetica,sans-Serif" font-size="10.00">Dianne Joy Zano</text>
</g>
<!-- u21&#45;&gt;p70 -->
<g id="edge92" class="edge">
<title>u21&#45;&gt;p70</title>
<path fill="none" stroke="#555555" d="M469.01,-138.91C469.01,-136.17 469.01,-69.06 469.01,-36.46"/>
</g>
<!-- u22&#45;&gt;p31 -->
<g id="edge46" class="edge">
<title>u22&#45;&gt;p31</title>
<path fill="none" stroke="#ffb6c6" d="M1147.64,-140C1151.54,-140 1172.34,-140 1172.34,-140 1172.34,-140 1177.54,-140 1183.23,-140"/>
</g>
<!-- p64 -->
<g id="node87" class="node">
<title>p64</title>
<path fill="#cfe8ff" stroke="black" d="M1120.27,-36C1120.27,-36 1051.75,-36 1051.75,-36 1045.75,-36 1039.75,-30 1039.75,-24 1039.75,-24 1039.75,-12 1039.75,-12 1039.75,-6 1045.75,0 1051.75,0 1051.75,0 1120.27,0 1120.27,0 1126.27,0 1132.27,-6 1132.27,-12 1132.27,-12 1132.27,-24 1132.27,-24 1132.27,-30 1126.27,-36 1120.27,-36"/>
<text xml:space="preserve" text-anchor="middle" x="1086.01" y="-14.5" font-family="Helvetica,sans-Serif" font-size="10.00">Harold Wilson Alto</text>
</g>
<!-- u22&#45;&gt;p64 -->
<g id="edge86" class="edge">
<title>u22&#45;&gt;p64</title>
<path fill="none" stroke="#555555" d="M1146.97,-138.91C1145.57,-136.17 1111.46,-69.06 1094.89,-36.46"/>
</g>
<!-- p65 -->
<g id="node88" class="node">
<title>p65</title>
<path fill="#ffd6e7" stroke="black" d="M1235.89,-36C1235.89,-36 1180.12,-36 1180.12,-36 1174.12,-36 1168.12,-30 1168.12,-24 1168.12,-24 1168.12,-12 1168.12,-12 1168.12,-6 1174.12,0 1180.12,0 1180.12,0 1235.89,0 1235.89,0 1241.89,0 1247.89,-6 1247.89,-12 1247.89,-12 1247.89,-24 1247.89,-24 1247.89,-30 1241.89,-36 1235.89,-36"/>
<text xml:space="preserve" text-anchor="middle" x="1208.01" y="-14.5" font-family="Helvetica,sans-Serif" font-size="10.00">Sophia Joy Alto</text>
</g>
<!-- u22&#45;&gt;p65 -->
<g id="edge87" class="edge">
<title>u22&#45;&gt;p65</title>
<path fill="none" stroke="#555555" d="M1147.05,-138.91C1148.45,-136.17 1182.56,-69.06 1199.13,-36.46"/>
</g>
</g>
</svg>
